<?xml version="1.0" standalone="no"?>
<!DOCTYPE svg PUBLIC "-//W3C//DTD SVG 1.1//EN" "http://www.w3.org/Graphics/SVG/1.1/DTD/svg11.dtd" >
<svg xmlns="http://www.w3.org/2000/svg" xmlns:xlink="http://www.w3.org/1999/xlink" version="1.1">
<metadata>
Created by FontForge 20201107 at Sun Mar  5 17:52:21 2023
 By Unknown
Copyright (c) 2017 jan Same, 2019 David A Roberts. This Font Software is licensed under the SIL Open Font License, Version 1.1.
</metadata>
<defs>
<font id="linjapona-Regular" horiz-adv-x="0" >
  <font-face 
    font-family="linja pona"
    font-weight="400"
    font-stretch="normal"
    units-per-em="1000"
    panose-1="2 0 5 3 0 0 0 0 0 0"
    ascent="833"
    descent="-167"
    x-height="436"
    cap-height="596"
    bbox="-772 -185 2648 833"
    underline-thickness="50"
    underline-position="-200"
    unicode-range="U+000D-F227"
  />
<missing-glyph horiz-adv-x="500" 
d="M50 -167v1000h400v-1000h-400zM100 -117h300v900h-300v-900z" />
    <glyph glyph-name=".notdef" horiz-adv-x="500" 
d="M50 -167v1000h400v-1000h-400zM100 -117h300v900h-300v-900z" />
    <glyph glyph-name="uni0000" 
 />
    <glyph glyph-name="uni000D" unicode="&#xd;" horiz-adv-x="250" 
 />
    <glyph glyph-name="space" unicode=" " horiz-adv-x="4" 
 />
    <glyph glyph-name="exclam" unicode="!" horiz-adv-x="305" 
d="M184 155h-29c-21 134 -31 229 -31 285v167h92v-167c0 -50 -11 -145 -32 -285zM111 53c0 17 6 31 18 43s26 18 43 18s31 -6 43 -18s18 -26 18 -43s-6 -31 -18 -43s-26 -18 -43 -18s-31 6 -43 18s-18 26 -18 43z" />
    <glyph glyph-name="quotedbl" unicode="&#x22;" horiz-adv-x="270" 
d="M104 597l-11 -155h-54l-10 155h75zM238 597l-11 -155h-54l-9 155h74z" />
    <glyph glyph-name="numbersign" unicode="#" horiz-adv-x="436" 
d="M442 385h-84l-41 -160h66v-52h-79l-51 -181h-51l50 181h-121l-50 -181h-53l50 181h-63v52h77l40 160h-70v52h83l42 168h53l-42 -168h121l42 168h52l-42 -168h71v-52zM306 385h-121l-40 -160h121z" />
    <glyph glyph-name="dollar" unicode="$" horiz-adv-x="436" 
d="M391 144c0 -41 -14 -74 -43 -100c-28 -27 -63 -43 -105 -50v-94h-57v90c-17 1 -40 6 -68 14c-28 7 -48 15 -61 23l29 75c13 -9 32 -18 55 -26c23 -9 44 -13 63 -13c30 0 55 8 76 25c20 17 30 39 30 67c0 34 -11 59 -32 76c-10 9 -32 22 -65 37l-48 22
c-37 17 -64 38 -83 62c-18 25 -27 58 -27 100c0 39 13 73 37 100c26 27 57 44 94 51v65h57v-62c57 -2 97 -13 118 -32l-24 -71c-11 8 -28 16 -51 23s-43 11 -60 11c-27 0 -48 -7 -64 -23c-17 -14 -25 -35 -25 -61c0 -31 11 -56 33 -73c11 -9 31 -20 61 -35l38 -18
c42 -20 73 -44 93 -73c19 -28 29 -65 29 -110z" />
    <glyph glyph-name="percent" unicode="%" horiz-adv-x="500" 
d="M448 607l-359 -615h-52l359 615h52zM251 465c0 -40 -10 -73 -30 -99s-48 -39 -83 -39c-75 0 -113 49 -113 146c0 38 11 70 32 95c21 26 50 39 85 39c34 0 61 -12 80 -37s29 -60 29 -105zM76 469c0 -31 5 -56 16 -73c10 -18 24 -27 42 -27c44 0 66 33 66 99
c0 65 -20 97 -60 97c-19 0 -35 -9 -46 -26c-12 -17 -18 -41 -18 -70zM471 130c0 -40 -10 -73 -30 -99s-48 -39 -83 -39c-75 0 -113 49 -113 146c0 38 11 70 31 95c22 25 50 38 85 38c34 0 61 -12 81 -37c19 -25 29 -59 29 -104zM296 133c0 -31 5 -56 16 -73
c10 -18 24 -27 42 -27c44 0 66 33 66 100c0 65 -20 97 -60 97c-19 0 -35 -9 -46 -26c-12 -18 -18 -42 -18 -71z" />
    <glyph glyph-name="ampersand" unicode="&#x26;" horiz-adv-x="588" 
d="M419 158c0 -35 5 -60 13 -75c10 -15 27 -22 54 -22c15 0 32 5 52 15l11 -72c-28 -8 -61 -12 -98 -12c-24 0 -48 10 -73 29c-40 -19 -87 -29 -142 -29c-58 0 -102 17 -132 50c-31 34 -46 81 -46 142c0 36 5 65 15 86c10 22 27 45 50 68c-38 38 -57 77 -57 118
c0 46 17 83 51 110s75 41 122 41c55 0 98 -12 129 -37l-34 -63c-31 26 -58 39 -83 39c-72 0 -108 -33 -108 -98c0 -36 16 -66 47 -90h152v75l77 30v-106h101v-65h-101v-134zM342 128v164h-164c-26 -33 -39 -68 -39 -104c0 -85 41 -127 124 -127c37 0 64 7 83 20
c-3 11 -4 27 -4 47z" />
    <glyph glyph-name="quotesingle" unicode="'" horiz-adv-x="133" 
d="M104 597l-11 -155h-54l-10 155h75z" />
    <glyph glyph-name="parenleft" unicode="(" horiz-adv-x="305" 
d="M251 -174c-53 37 -95 92 -126 162c-31 72 -46 151 -46 239c0 77 17 151 51 224c35 76 76 126 121 149v-34c-53 -77 -80 -190 -80 -339c0 -177 27 -297 80 -358v-43z" />
    <glyph glyph-name="parenright" unicode=")" horiz-adv-x="305" 
d="M79 -174v43c53 61 80 181 80 358c0 149 -27 262 -80 339v34c45 -23 86 -73 121 -149c34 -73 51 -147 51 -224c0 -88 -15 -167 -47 -239c-30 -70 -72 -125 -125 -162z" />
    <glyph glyph-name="asterisk" unicode="*" horiz-adv-x="305" 
d="M278 470l-35 -11l-71 -2l65 -42l19 -26l-50 -42l-22 29l-33 64l-37 -66l-18 -26l-53 41l20 28l65 34l-72 11l-36 13l29 61l39 -15l51 -38l-26 83v32h72v-31l-25 -86l65 44l30 11z" />
    <glyph glyph-name="plus" unicode="+" horiz-adv-x="436" 
d="M249 427v-140h142v-57h-142v-140h-58v140h-141v57h141v140h58z" />
    <glyph glyph-name="comma" unicode="," horiz-adv-x="305" 
d="M152 113c15 0 29 -7 40 -21c12 -13 18 -28 18 -44c0 -43 -10 -79 -29 -108s-49 -58 -90 -88l-21 30c47 38 70 70 70 97c0 12 -4 24 -12 36c-23 11 -35 27 -35 48c0 15 5 27 17 36c10 9 25 14 42 14z" />
    <glyph glyph-name="hyphen" unicode="-" horiz-adv-x="305" 
d="M239 206h-174v71h174v-71z" />
    <glyph glyph-name="period" unicode="." horiz-adv-x="305" 
d="M83 53c0 17 6 31 18 43s26 18 43 18s31 -6 43 -18s18 -26 18 -43s-6 -31 -18 -43s-26 -18 -43 -18s-31 6 -43 18s-18 26 -18 43z" />
    <glyph glyph-name="slash" unicode="/" horiz-adv-x="436" 
d="M358 598l-216 -598h-65l216 598h65z" />
    <glyph glyph-name="zero" unicode="0" horiz-adv-x="436" 
d="M412 303c0 -43 -3 -82 -10 -117s-17 -68 -32 -98c-14 -30 -34 -54 -60 -70c-25 -18 -56 -26 -91 -26c-25 0 -48 4 -69 11c-20 7 -37 17 -50 28s-25 26 -34 45c-9 18 -17 36 -22 52c-5 18 -9 38 -12 62s-4 45 -5 62c-1 18 -1 39 -1 64c0 52 7 99 20 142s35 78 66 106
c31 29 68 43 113 43c33 0 61 -7 85 -19c24 -14 42 -30 55 -48c13 -20 23 -44 30 -73s12 -56 14 -80s3 -52 3 -84zM331 308c0 35 -1 65 -3 88c-3 23 -7 47 -14 70c-7 24 -18 42 -33 54c-15 11 -35 17 -58 17c-77 0 -116 -76 -116 -228c0 -165 35 -248 106 -248
c19 0 35 4 49 11c15 8 26 20 34 36c8 15 15 30 20 44c5 15 9 33 11 56s3 40 3 52c1 12 1 28 1 48z" />
    <glyph glyph-name="one" unicode="1" horiz-adv-x="436" 
d="M81 457c30 15 63 37 99 65c35 27 62 53 80 76h24v-598h-81v457l-122 -76v76z" />
    <glyph glyph-name="two" unicode="2" horiz-adv-x="436" 
d="M176 607c55 0 100 -13 133 -39c33 -25 50 -63 50 -113c0 -45 -21 -102 -64 -169l-134 -213h233v-73h-366v16l187 286c39 59 58 110 58 153c0 55 -31 82 -93 82c-22 0 -43 -6 -62 -18s-33 -26 -42 -43l-52 44c9 27 28 48 55 64c27 15 60 23 97 23z" />
    <glyph glyph-name="three" unicode="3" horiz-adv-x="436" 
d="M383 165c0 -57 -18 -100 -53 -129c-36 -29 -85 -44 -147 -44c-26 0 -52 5 -78 14c-26 10 -46 22 -61 36l39 63c26 -29 60 -44 101 -44c75 0 113 37 113 111c0 34 -11 61 -33 82c-23 21 -52 31 -87 31h-7v66h4c69 0 103 30 103 91c0 63 -32 95 -97 95
c-35 0 -63 -12 -84 -35l-36 55c25 33 67 50 126 50c50 0 92 -13 126 -41c34 -26 51 -63 51 -108c0 -31 -9 -60 -27 -86c-19 -27 -40 -44 -65 -53c33 -11 60 -29 81 -56s31 -59 31 -98z" />
    <glyph glyph-name="four" unicode="4" horiz-adv-x="436" 
d="M419 162h-60v-162h-77v162h-272v47l320 389h29v-373h60v-63zM282 225v211l-175 -211h175z" />
    <glyph glyph-name="five" unicode="5" horiz-adv-x="436" 
d="M94 291l-27 19v288h296v-69h-219v-145c21 15 46 23 77 23c55 0 97 -17 127 -49c28 -34 43 -81 43 -142c0 -149 -67 -224 -200 -224c-55 0 -101 15 -138 46l31 68c37 -30 73 -45 107 -45c77 0 115 48 115 143c0 89 -38 134 -114 134c-36 0 -69 -16 -98 -47z" />
    <glyph glyph-name="six" unicode="6" horiz-adv-x="436" 
d="M228 373c54 0 96 -17 128 -52c30 -35 46 -80 46 -137c0 -55 -15 -101 -46 -138s-73 -56 -126 -56c-131 0 -196 87 -196 260c0 72 26 146 77 221s105 121 162 136l40 -44c-27 -10 -62 -43 -106 -97c-44 -56 -68 -97 -73 -125c21 21 53 32 94 32zM319 180
c0 35 -9 65 -25 88c-18 24 -41 36 -71 36c-69 0 -103 -39 -103 -118c0 -85 35 -127 104 -127c30 0 53 11 70 35c17 22 25 51 25 86z" />
    <glyph glyph-name="seven" unicode="7" horiz-adv-x="436" 
d="M174 0h-90c19 61 53 146 102 253c48 107 91 197 129 268h-281v77h387v-31l-53 -104c-35 -69 -71 -148 -110 -237c-38 -89 -66 -165 -84 -226z" />
    <glyph glyph-name="eight" unicode="8" horiz-adv-x="436" 
d="M36 165c0 35 11 69 33 101s47 54 75 66c-23 12 -44 30 -60 54c-18 24 -26 50 -26 77c0 45 15 80 45 105c30 26 69 39 116 39c49 0 89 -13 117 -37c30 -26 44 -61 44 -107c0 -27 -9 -54 -26 -81c-18 -27 -38 -47 -59 -59c72 -40 108 -93 108 -158c0 -55 -17 -98 -50 -128
s-79 -45 -136 -45c-121 0 -181 58 -181 173zM243 357c37 35 56 71 56 108c0 22 -7 39 -22 53c-15 12 -34 19 -58 19c-53 0 -80 -24 -80 -73c0 -37 35 -72 104 -107zM217 61c31 0 56 10 75 29c19 20 29 45 29 75c0 17 -3 32 -9 45s-16 26 -28 36c-14 12 -25 20 -35 26
c-10 7 -24 15 -42 24c-59 -31 -89 -75 -89 -131c0 -30 9 -55 28 -75c18 -19 42 -29 71 -29z" />
    <glyph glyph-name="nine" unicode="9" horiz-adv-x="436" 
d="M204 223c-54 0 -96 17 -128 53c-30 34 -46 80 -46 137c0 54 16 100 46 137c32 38 73 57 126 57c131 0 196 -87 196 -260c0 -71 -26 -145 -77 -222c-51 -75 -105 -120 -162 -135l-39 43c26 9 61 42 106 97c45 56 69 98 72 125c-21 -21 -53 -32 -94 -32zM114 417
c0 -35 8 -65 26 -89c16 -23 40 -35 70 -35c69 0 103 39 103 117c0 85 -35 127 -105 127c-30 0 -53 -11 -70 -34c-16 -23 -24 -51 -24 -86z" />
    <glyph glyph-name="colon" unicode=":" horiz-adv-x="305" 
d="M83 383c0 17 6 31 18 43s26 18 43 18s31 -6 43 -18s18 -26 18 -43s-6 -31 -18 -43c-12 -13 -26 -19 -43 -19s-31 6 -43 19c-12 12 -18 26 -18 43zM83 53c0 17 6 31 18 43s26 18 43 18s31 -6 43 -18s18 -26 18 -43s-6 -31 -18 -43s-26 -18 -43 -18s-31 6 -43 18
s-18 26 -18 43z" />
    <glyph glyph-name="semicolon" unicode=";" horiz-adv-x="305" 
d="M83 383c0 17 6 31 18 43s26 18 43 18s31 -6 43 -18s18 -26 18 -43s-6 -31 -18 -43c-12 -13 -26 -19 -43 -19s-31 6 -43 19c-12 12 -18 26 -18 43zM152 113c15 0 29 -7 40 -21c12 -13 18 -28 18 -44c0 -43 -10 -79 -29 -108s-49 -58 -90 -88l-21 30c47 38 70 70 70 97
c0 12 -4 24 -12 36c-23 11 -35 27 -35 48c0 15 5 27 17 36c10 9 25 14 42 14z" />
    <glyph glyph-name="less" unicode="&#x3c;" horiz-adv-x="436" 
d="M362 154v-65l-301 145v50l301 144v-65l-233 -104z" />
    <glyph glyph-name="equal" unicode="=" horiz-adv-x="436" 
d="M50 356h341v-57h-341v57zM50 218h341v-57h-341v57z" />
    <glyph glyph-name="greater" unicode="&#x3e;" horiz-adv-x="436" 
d="M362 284v-50l-301 -145v65l232 105l-232 104v65z" />
    <glyph glyph-name="question" unicode="?" horiz-adv-x="358" 
d="M189 607c41 0 75 -12 101 -35c28 -23 41 -54 41 -92c0 -41 -14 -77 -42 -107l-60 -63c-23 -28 -35 -61 -35 -98c0 -9 2 -21 5 -37h-53c-9 27 -14 45 -14 55c0 27 5 50 14 69s24 41 45 64c43 46 64 83 64 110c0 47 -29 71 -86 71c-29 0 -53 -10 -73 -29l-29 58
c28 23 69 34 122 34zM121 53c0 17 6 31 18 43s26 18 43 18s31 -6 43 -18s18 -26 18 -43s-6 -31 -18 -43s-26 -18 -43 -18s-31 6 -43 18s-18 26 -18 43z" />
    <glyph glyph-name="at" unicode="@" horiz-adv-x="641" 
d="M98 236c0 -72 21 -130 62 -174c42 -45 98 -67 168 -67c63 0 113 17 150 52c10 -3 28 -11 55 -23c-53 -53 -121 -79 -205 -79c-86 0 -155 27 -208 81c-53 53 -79 123 -79 210c0 88 26 160 78 218c52 56 122 85 209 85c82 0 148 -25 198 -74s75 -115 75 -196
c0 -45 -12 -84 -36 -117s-56 -49 -96 -49c-43 0 -75 10 -94 29c-23 -21 -51 -32 -82 -32c-29 0 -52 8 -70 24c-18 15 -27 37 -27 64c0 37 15 63 46 80s70 25 117 25c-4 40 -20 60 -48 60s-51 -8 -68 -23l-19 40c21 17 48 25 81 25c75 0 113 -43 113 -130v-97
c21 -15 37 -22 50 -22c51 0 76 41 76 124c0 63 -20 116 -60 157c-41 41 -93 62 -156 62c-71 0 -127 -24 -168 -73c-41 -48 -62 -108 -62 -180zM359 160v95h-21c-53 0 -79 -22 -79 -65c0 -15 5 -27 15 -36c11 -9 24 -14 39 -14c17 0 33 7 46 20z" />
    <glyph glyph-name="A" unicode="A" horiz-adv-x="491" 
d="M490 0h-90l-42 126h-221l-44 -126h-91l242 604h21zM335 186l-84 262l-93 -262h177z" />
    <glyph glyph-name="B" unicode="B" horiz-adv-x="471" 
d="M439 172c0 -54 -20 -96 -59 -126c-39 -31 -89 -46 -149 -46h-170v596c60 3 112 5 157 5c59 0 105 -13 137 -39c32 -25 48 -61 48 -108c0 -27 -10 -52 -31 -75s-44 -37 -69 -43c47 -11 82 -30 103 -56c22 -27 33 -63 33 -108zM142 531v-171c17 -2 38 -3 64 -3
c77 0 115 31 115 94c0 55 -35 83 -106 83c-27 0 -51 -1 -73 -3zM354 185c0 42 -12 71 -36 89c-24 16 -61 25 -110 25l-66 -2v-228c25 -3 46 -4 65 -4c51 0 88 10 111 29c24 19 36 50 36 91z" />
    <glyph glyph-name="C" unicode="C" horiz-adv-x="498" 
d="M284 -10c-79 0 -141 29 -185 86s-66 131 -66 220c0 54 9 104 27 150c18 45 47 83 87 114s87 46 142 46c65 0 116 -11 152 -32l-27 -70c-27 19 -68 29 -123 29s-98 -24 -128 -71s-45 -104 -45 -171c0 -63 15 -117 46 -161c31 -45 73 -67 128 -67c56 0 99 20 129 59l45 -62
c-47 -47 -107 -70 -182 -70z" />
    <glyph glyph-name="D" unicode="D" horiz-adv-x="510" 
d="M208 600c83 0 148 -25 197 -76s73 -118 73 -202c0 -215 -99 -322 -297 -322h-120v596c67 3 116 4 147 4zM210 73c61 0 106 22 137 67s46 103 46 175c0 141 -63 212 -190 212c-11 0 -32 -1 -61 -4v-446c16 -3 39 -4 68 -4z" />
    <glyph glyph-name="E" unicode="E" horiz-adv-x="446" 
d="M417 523h-275v-166h197v-69h-197v-215h271v-73h-352v596h356v-73z" />
    <glyph glyph-name="F" unicode="F" horiz-adv-x="437" 
d="M429 523h-287v-166h210v-69h-210v-288h-81v596h368v-73z" />
    <glyph glyph-name="G" unicode="G" horiz-adv-x="563" 
d="M299 -10c-84 0 -149 28 -196 85s-70 130 -70 221s26 165 77 223s122 87 212 87c63 0 114 -17 152 -51l-34 -68c-41 31 -81 46 -120 46c-63 0 -113 -23 -148 -67c-36 -46 -54 -103 -54 -173c0 -68 18 -123 52 -166c36 -43 84 -64 146 -64c43 0 78 13 105 39v140h-83v69
h164v-260c-21 -17 -50 -32 -89 -43c-39 -12 -77 -18 -114 -18z" />
    <glyph glyph-name="H" unicode="H" horiz-adv-x="545" 
d="M484 0h-81v288h-261v-288h-81v596h81v-239h261v239h81v-596z" />
    <glyph glyph-name="I" unicode="I" horiz-adv-x="231" 
d="M157 0h-82v596h82v-596z" />
    <glyph glyph-name="J" unicode="J" horiz-adv-x="397" 
d="M20 119h71c7 -36 28 -54 65 -54c35 0 61 8 76 23c15 17 23 60 23 131v377h81v-373c0 -77 -12 -134 -36 -173c-25 -39 -73 -58 -144 -58c-39 0 -71 12 -96 35c-24 23 -37 54 -40 92z" />
    <glyph glyph-name="K" unicode="K" horiz-adv-x="479" 
d="M480 0h-90l-168 274l-80 -112v-162h-81v596h81v-324l222 324h90l-178 -258z" />
    <glyph glyph-name="L" unicode="L" horiz-adv-x="421" 
d="M412 0h-351v596h81v-523h270v-73z" />
    <glyph glyph-name="M" unicode="M" horiz-adv-x="591" 
d="M587 0h-77l-71 383l-130 -391h-21l-133 391l-70 -383h-77l112 596h37l142 -435l131 435h36z" />
    <glyph glyph-name="N" unicode="N" horiz-adv-x="531" 
d="M471 -8h-25l-308 436v-428h-77v596h33l299 -412v412h78v-604z" />
    <glyph glyph-name="O" unicode="O" horiz-adv-x="561" 
d="M529 303c0 -95 -21 -171 -65 -228c-42 -57 -106 -85 -191 -85c-42 0 -79 9 -111 27c-31 18 -56 42 -74 73c-19 31 -32 64 -42 100c-8 36 -13 74 -13 113c0 52 8 100 24 145s43 82 80 113s83 46 136 46c85 0 149 -27 191 -82c44 -55 65 -129 65 -222zM273 533
c-53 0 -93 -21 -117 -65c-26 -42 -38 -98 -38 -165c0 -42 5 -80 15 -115s27 -64 51 -88c25 -25 54 -37 89 -37c59 0 102 22 129 66s41 102 41 174c0 153 -57 230 -170 230z" />
    <glyph glyph-name="P" unicode="P" horiz-adv-x="464" 
d="M142 229v-229h-81v596c54 3 91 4 111 4c173 0 260 -58 260 -174c0 -134 -76 -201 -229 -201c-13 0 -34 1 -61 4zM142 523v-220c31 -3 50 -4 55 -4c101 0 151 40 151 119c0 73 -54 109 -161 109c-13 0 -28 -1 -45 -4z" />
    <glyph glyph-name="Q" unicode="Q" horiz-adv-x="563" 
d="M273 607c85 0 149 -27 191 -82c44 -55 65 -129 65 -222c0 -137 -41 -231 -123 -282c29 -43 79 -65 149 -65h63l-12 -79c-142 0 -235 39 -279 118c-7 -3 -25 -5 -54 -5c-42 0 -79 9 -111 27c-31 18 -56 42 -74 73c-19 31 -32 64 -42 100c-8 36 -13 74 -13 113
c0 52 8 100 24 145c16 44 43 82 81 112c37 32 82 47 135 47zM273 63c59 0 102 22 129 66s41 102 41 174c0 153 -57 230 -170 230c-53 0 -93 -21 -117 -65c-26 -42 -38 -98 -38 -165c0 -42 5 -80 15 -115s27 -64 51 -88c25 -25 54 -37 89 -37z" />
    <glyph glyph-name="R" unicode="R" horiz-adv-x="484" 
d="M429 431c0 -37 -12 -70 -35 -101c-23 -30 -51 -49 -82 -56l173 -274h-93l-159 256c-23 0 -52 1 -87 4v-260h-81v596c4 0 29 1 74 3s70 3 75 3c143 0 215 -57 215 -171zM203 325c49 0 84 8 107 23c22 15 33 44 33 85c0 33 -12 57 -35 72c-24 15 -62 22 -114 22
c-11 0 -27 -1 -48 -4v-194c18 -3 37 -4 57 -4z" />
    <glyph glyph-name="S" unicode="S" horiz-adv-x="400" 
d="M203 537c-27 0 -48 -7 -65 -23c-16 -14 -24 -35 -24 -61c0 -31 11 -55 32 -73c7 -7 28 -18 63 -35l49 -24c38 -17 66 -39 84 -67c17 -26 26 -61 26 -103c0 -51 -20 -90 -60 -119c-39 -28 -85 -42 -138 -42c-54 0 -99 12 -136 37l30 75c14 -10 32 -19 54 -27
c23 -8 44 -12 63 -12c30 0 55 8 75 25c21 17 31 39 31 67c0 29 -8 51 -25 67c-16 16 -40 31 -72 46l-48 22c-37 17 -64 38 -82 62c-18 25 -27 58 -27 100c0 45 16 82 48 111s72 43 120 43c66 0 112 -11 137 -32l-24 -71c-11 8 -28 16 -51 23s-43 11 -60 11z" />
    <glyph glyph-name="T" unicode="T" horiz-adv-x="483" 
d="M476 523h-198v-523h-81v523h-190v73h469v-73z" />
    <glyph glyph-name="U" unicode="U" horiz-adv-x="540" 
d="M479 181c0 -61 -19 -108 -57 -141s-89 -50 -153 -50c-67 0 -118 16 -154 50c-36 32 -54 80 -54 142v414h81v-408c0 -37 12 -67 36 -90c23 -23 54 -35 91 -35c39 0 71 11 94 34s35 54 35 93v406h81v-415z" />
    <glyph glyph-name="V" unicode="V" horiz-adv-x="489" 
d="M484 596l-215 -604h-42l-222 604h91l153 -439l148 439h87z" />
    <glyph glyph-name="W" unicode="W" horiz-adv-x="709" 
d="M705 596l-186 -604h-26l-141 411l-133 -411h-26l-188 604h85l120 -416l131 416h28l129 -415l122 415h85z" />
    <glyph glyph-name="X" unicode="X" horiz-adv-x="463" 
d="M459 0h-87l-148 239l-137 -239h-82l176 309l-161 287h80l127 -225l140 225h82l-185 -288z" />
    <glyph glyph-name="Y" unicode="Y" horiz-adv-x="475" 
d="M470 596l-191 -329v-267h-82v267l-192 329h84l149 -260l148 260h84z" />
    <glyph glyph-name="Z" unicode="Z" horiz-adv-x="458" 
d="M418 0h-377v20l256 503h-252v73h364v-20l-257 -503h266v-73z" />
    <glyph glyph-name="bracketleft" unicode="[" horiz-adv-x="366" 
d="M417 -150h-146c-53 0 -99 19 -136 56s-56 82 -56 135v584c0 53 19 98 57 135c37 38 82 57 135 57h146v-51h-146c-39 0 -73 -14 -101 -42c-27 -27 -41 -60 -41 -99v-584c0 -39 14 -72 41 -99c28 -28 62 -42 101 -42h146v-50z" />
    <glyph glyph-name="backslash" unicode="\" horiz-adv-x="296" 
d="M266 0h-58l-209 598h58z" />
    <glyph glyph-name="bracketright" unicode="]" horiz-adv-x="320" 
d="M0 -150v50h118c39 0 72 14 100 41c27 27 41 61 41 100v584c0 39 -14 73 -41 100c-28 27 -61 41 -100 41h-118v51h118c53 0 98 -19 135 -57c37 -37 56 -82 56 -135v-584c0 -53 -19 -98 -56 -135s-82 -56 -135 -56h-118z" />
    <glyph glyph-name="asciicircum" unicode="^" horiz-adv-x="436" 
d="M362 369h-52l-99 182l-101 -184h-49l129 231h44z" />
    <glyph glyph-name="underscore" unicode="_" horiz-adv-x="4" 
d="M854 766h-854v51h854v-51zM854 -150h-854v50h854v-50z" />
    <glyph glyph-name="grave" unicode="`" horiz-adv-x="436" 
d="M284 523h-57l-92 135h81z" />
    <glyph glyph-name="a" unicode="a" horiz-adv-x="437" 
d="M405 -8c-31 0 -54 4 -69 13c-16 9 -28 24 -35 45c-31 -39 -78 -58 -142 -58c-35 0 -64 13 -89 38s-37 56 -37 92c0 51 21 90 63 116c41 28 89 41 142 41c17 0 36 -3 56 -10c0 71 -32 106 -95 106c-48 0 -85 -13 -111 -39l-33 64c14 11 34 22 61 30c26 10 51 14 74 14
c63 0 109 -14 138 -43s43 -74 43 -137v-157c0 -38 11 -63 34 -76v-39zM242 222c-36 0 -67 -9 -93 -28s-39 -43 -39 -73c0 -45 27 -68 80 -68c39 0 74 19 104 56v105c-25 5 -43 8 -52 8z" />
    <glyph glyph-name="b" unicode="b" horiz-adv-x="464" 
d="M227 -8c-20 0 -40 4 -61 12c-20 7 -35 16 -45 27l-27 -39h-39v622h77v-210c7 11 22 20 42 28c22 8 41 12 59 12c59 0 108 -21 145 -62c37 -42 56 -94 56 -156c0 -71 -18 -127 -54 -170c-37 -43 -88 -64 -153 -64zM205 379c-9 0 -23 -4 -40 -13c-17 -8 -28 -15 -33 -21
v-252c0 -5 10 -13 31 -22s35 -14 42 -14c54 0 92 13 114 39s33 68 33 126c0 48 -13 86 -39 114c-26 29 -62 43 -108 43z" />
    <glyph glyph-name="c" unicode="c" horiz-adv-x="412" 
d="M26 214c0 70 20 126 61 168c41 41 96 62 165 62c21 0 45 -5 72 -14c27 -10 47 -20 60 -30l-39 -54c-8 8 -23 16 -43 22c-22 8 -40 11 -57 11c-43 0 -77 -15 -101 -46s-36 -70 -36 -119c0 -51 12 -90 38 -116c24 -28 60 -41 105 -41c35 0 70 13 105 40l30 -65
c-41 -27 -92 -40 -154 -40c-63 0 -113 21 -150 63s-56 95 -56 159z" />
    <glyph glyph-name="d" unicode="d" horiz-adv-x="464" 
d="M214 -8c-57 0 -101 20 -134 60c-33 41 -49 92 -49 155c0 66 19 122 58 167c39 47 86 70 140 70c45 0 79 -11 102 -32v202h77v-614h-77v33c-27 -27 -66 -41 -117 -41zM255 57c13 0 27 4 44 12s27 16 32 24v242c-20 29 -47 44 -80 44c-42 0 -76 -16 -101 -47
c-25 -32 -38 -71 -38 -118c0 -105 48 -157 143 -157z" />
    <glyph glyph-name="e" unicode="e" horiz-adv-x="454" 
d="M231 444c59 0 107 -17 143 -50s54 -79 54 -136c0 -18 -2 -34 -6 -48h-314c0 -46 12 -83 36 -111s58 -42 101 -42c44 0 81 13 111 39l32 -56c-15 -15 -37 -26 -66 -35c-30 -9 -61 -13 -92 -13c-61 0 -111 21 -148 64c-37 42 -56 94 -56 157s19 117 56 163
c38 45 88 68 149 68zM351 266c0 34 -11 61 -33 82s-50 31 -84 31c-33 0 -62 -11 -84 -33c-24 -21 -37 -48 -40 -80h241z" />
    <glyph glyph-name="f" unicode="f" horiz-adv-x="307" 
d="M90 436c0 53 13 96 40 128c26 34 63 50 110 50c22 0 46 -4 72 -12l-22 -57c-17 5 -32 8 -43 8c-25 0 -45 -9 -59 -27c-16 -19 -23 -41 -23 -67c0 -5 1 -12 2 -23h89v-65h-89v-371h-77v371h-64v65h64z" />
    <glyph glyph-name="g" unicode="g" horiz-adv-x="418" 
d="M394 -37c0 -43 -19 -76 -56 -99c-38 -23 -83 -35 -135 -35c-28 0 -58 5 -89 15c-32 11 -57 23 -75 37l42 62c46 -31 87 -46 124 -46c25 0 51 5 76 15c25 11 38 27 38 49c0 35 -26 52 -77 52c-5 0 -22 -2 -50 -7c-27 -4 -44 -6 -50 -6c-62 0 -93 23 -93 70
c0 16 8 30 23 41s33 19 52 24c-61 29 -91 78 -91 149c0 46 16 84 47 114c32 31 71 46 118 46c41 0 75 -9 100 -27l39 47l50 -48l-46 -35c20 -26 30 -60 30 -101c0 -45 -14 -82 -42 -111s-64 -46 -107 -51l-64 -6c-11 -1 -22 -4 -33 -10c-11 -4 -17 -11 -17 -19
c0 -11 13 -16 40 -16c7 0 25 2 56 6c30 4 48 6 54 6c43 0 76 -10 100 -31c24 -20 36 -48 36 -85zM290 284c0 27 -8 50 -25 69s-37 29 -62 29c-27 0 -49 -10 -65 -28c-18 -20 -26 -43 -26 -70c0 -31 8 -56 24 -76c17 -19 39 -29 67 -29s49 10 65 29c14 20 22 45 22 76z" />
    <glyph glyph-name="h" unicode="h" horiz-adv-x="455" 
d="M253 444c47 0 83 -16 109 -47s39 -72 39 -123v-274h-78v274c0 33 -8 58 -24 77s-38 28 -67 28c-19 0 -38 -6 -58 -17c-18 -11 -33 -24 -42 -38v-324h-77v614h77v-226c10 15 27 28 50 40c23 10 47 16 71 16z" />
    <glyph glyph-name="i" unicode="i" horiz-adv-x="237" 
d="M135 505c-13 0 -24 5 -33 15c-10 9 -15 20 -15 33s5 24 14 33s21 14 34 14s25 -5 34 -14s14 -20 14 -33s-5 -24 -15 -33c-9 -10 -20 -15 -33 -15zM170 0h-78v371h-59v65h137v-436z" />
    <glyph glyph-name="j" unicode="j" horiz-adv-x="305" 
d="M222 553c0 -13 -5 -24 -14 -33c-9 -10 -21 -15 -34 -15s-24 5 -33 14s-14 21 -14 34s5 24 13 33c10 9 21 14 34 14s25 -5 34 -14s14 -20 14 -33zM7 -171v69c45 0 80 7 103 21c24 14 36 42 36 83v369h-87v65h164v-432c0 -60 -18 -104 -53 -132c-35 -29 -90 -43 -163 -43z
" />
    <glyph glyph-name="k" unicode="k" horiz-adv-x="420" 
d="M420 0h-84l-136 218l-68 -70v-148h-77v614h77v-381l167 203h90l-139 -166z" />
    <glyph glyph-name="l" unicode="l" horiz-adv-x="245" 
d="M61 123v491h77v-478c0 -23 7 -42 20 -55s31 -20 53 -20v-69c-100 0 -150 44 -150 131z" />
    <glyph glyph-name="m" unicode="m" horiz-adv-x="691" 
d="M374 386c9 16 25 30 48 41c24 11 48 17 73 17c45 0 79 -14 105 -40c24 -28 37 -65 37 -113v-291h-78v276c0 69 -30 103 -89 103c-18 0 -35 -6 -52 -17c-17 -12 -28 -25 -34 -40v-322h-77v310c0 21 -8 38 -24 50c-16 13 -37 19 -64 19c-17 0 -34 -6 -51 -19
s-29 -26 -36 -39v-321h-77v436h50l26 -51c30 39 67 59 112 59c63 0 106 -19 131 -58z" />
    <glyph glyph-name="n" unicode="n" horiz-adv-x="455" 
d="M232 379c-19 0 -38 -6 -57 -17s-34 -24 -43 -38v-324h-77v436h53l24 -56c26 43 68 64 125 64c95 0 143 -58 143 -174v-270h-77v253c0 43 -6 75 -19 95c-13 21 -37 31 -72 31z" />
    <glyph glyph-name="o" unicode="o" horiz-adv-x="447" 
d="M224 -8c-63 0 -111 21 -146 62c-35 42 -52 97 -52 165c0 65 18 119 54 161c35 43 83 64 144 64c63 0 112 -20 146 -61s51 -95 51 -164c0 -68 -17 -123 -51 -165c-35 -41 -83 -62 -146 -62zM224 381c-39 0 -68 -15 -87 -46s-29 -69 -29 -116c0 -109 39 -164 116 -164
c38 0 67 15 86 47c19 30 29 70 29 117c0 108 -38 162 -115 162z" />
    <glyph glyph-name="p" unicode="p" horiz-adv-x="464" 
d="M232 -8c-17 0 -37 3 -58 10c-22 6 -36 13 -42 22v-195h-77v607h77v-36c29 29 65 44 106 44c65 0 114 -20 146 -60c34 -41 50 -96 50 -167c0 -67 -17 -121 -52 -163c-35 -41 -85 -62 -150 -62zM210 379c-12 0 -26 -4 -42 -13c-16 -8 -28 -16 -36 -24v-254
c5 -7 15 -14 32 -21s32 -10 45 -10c96 0 144 54 144 163c0 55 -11 96 -34 121s-59 38 -109 38z" />
    <glyph glyph-name="q" unicode="q" horiz-adv-x="464" 
d="M221 -8c-61 0 -108 20 -141 62c-33 40 -49 95 -49 163c0 66 18 120 55 163s87 64 152 64c37 0 73 -14 106 -41l21 33h46v-607h-77v197c-23 -23 -60 -34 -113 -34zM112 217c0 -48 12 -87 35 -116s57 -44 100 -44c37 0 66 9 87 28v260c-23 23 -50 34 -83 34
c-44 0 -78 -15 -103 -45c-24 -30 -36 -69 -36 -117z" />
    <glyph glyph-name="r" unicode="r" horiz-adv-x="323" 
d="M241 379c-29 0 -53 -13 -73 -40s-30 -56 -30 -89v-250h-77v436h77v-70c28 52 70 78 126 78c16 0 36 -2 60 -7l-32 -76c-17 12 -34 18 -51 18z" />
    <glyph glyph-name="s" unicode="s" horiz-adv-x="337" 
d="M311 117c0 -41 -14 -72 -43 -93c-28 -21 -65 -32 -112 -32s-91 11 -130 34l28 73c43 -28 78 -42 104 -42c47 0 71 20 71 60c0 29 -23 53 -69 74c-21 9 -36 17 -48 23c-10 6 -24 15 -39 26c-15 12 -27 25 -33 40c-8 15 -11 31 -11 50c0 37 13 65 39 84c27 20 61 30 102 30
c32 0 72 -10 120 -30l-21 -72c-32 25 -63 37 -93 37c-17 0 -32 -4 -46 -13c-12 -8 -19 -19 -19 -33c0 -29 16 -50 47 -64l56 -25c34 -15 59 -33 74 -52c15 -20 23 -45 23 -75z" />
    <glyph glyph-name="t" unicode="t" horiz-adv-x="330" 
d="M205 -8c-35 0 -65 13 -87 39c-24 26 -35 58 -35 96v248h-51v61h51v91l77 30v-121h119v-61h-119v-217c0 -36 6 -62 18 -78c12 -15 32 -23 60 -23c20 0 40 5 61 15l12 -68c-32 -8 -67 -12 -106 -12z" />
    <glyph glyph-name="u" unicode="u" horiz-adv-x="455" 
d="M328 60c-8 -17 -25 -32 -52 -46c-27 -15 -52 -22 -77 -22c-48 0 -85 14 -110 41s-38 66 -38 117v286h77v-278c0 -67 29 -101 88 -101c25 0 48 7 70 22c21 15 35 32 42 51v306h77v-436h-77v60z" />
    <glyph glyph-name="v" unicode="v" horiz-adv-x="408" 
d="M403 437l-191 -445h-20l-187 445h85l115 -305l117 305h81z" />
    <glyph glyph-name="w" unicode="w" horiz-adv-x="620" 
d="M614 437l-156 -445h-21l-127 296l-128 -296h-20l-156 445h83l93 -286l116 286h20l120 -286l100 286h76z" />
    <glyph glyph-name="x" unicode="x" horiz-adv-x="417" 
d="M413 0h-93l-119 159l-106 -159h-90l158 223l-145 213h87l98 -150l109 150h85l-158 -213z" />
    <glyph glyph-name="y" unicode="y" horiz-adv-x="410" 
d="M50 -102c29 0 56 7 81 22c25 14 37 33 37 56c0 25 -4 48 -13 70c-3 7 -7 21 -15 40c-6 20 -12 36 -17 47l-118 303h79l128 -337l115 337h79l-185 -510c-10 -28 -31 -51 -64 -70c-33 -18 -68 -27 -107 -27v69z" />
    <glyph glyph-name="z" unicode="z" horiz-adv-x="395" 
d="M377 414l-239 -345h241v-69h-363v20l248 347h-244v69h357v-22z" />
    <glyph glyph-name="braceleft" unicode="{" horiz-adv-x="305" 
d="M70 585c0 36 16 65 46 85c32 22 68 32 111 32h61v-54h-72c-44 0 -66 -25 -66 -75c0 -21 4 -43 12 -68c9 -27 13 -49 13 -66c0 -44 -30 -83 -91 -118c61 -26 91 -60 91 -101c0 -19 -4 -44 -13 -74c-8 -27 -12 -53 -12 -76c0 -62 36 -93 107 -93h31v-57h-57
c-44 0 -82 11 -113 32c-32 22 -48 52 -48 89c0 19 5 48 15 87s15 68 15 89c0 53 -28 82 -85 86v35c27 2 47 11 63 28c14 17 22 38 22 65c0 18 -5 44 -15 78s-15 59 -15 76z" />
    <glyph glyph-name="bar" unicode="|" horiz-adv-x="436" 
d="M247 -83h-59v684h59v-684z" />
    <glyph glyph-name="braceright" unicode="}" horiz-adv-x="305" 
d="M233 39c0 -37 -16 -67 -47 -89c-32 -21 -70 -32 -114 -32h-57v57h31c71 0 107 31 107 93c0 21 -4 46 -13 76c-8 27 -12 52 -12 74c0 41 30 75 91 101c-61 35 -91 74 -91 118c0 19 4 41 12 66c9 27 13 49 13 68c0 50 -22 75 -66 75h-72v54h61c42 0 79 -10 110 -32
c31 -20 47 -49 47 -85c0 -17 -5 -42 -15 -76s-15 -60 -15 -78c0 -27 7 -48 23 -65c14 -17 35 -26 62 -28v-35c-57 -4 -85 -33 -85 -86c0 -19 5 -49 15 -88s15 -68 15 -88z" />
    <glyph glyph-name="asciitilde" unicode="~" horiz-adv-x="436" 
d="M64 207c3 22 12 41 26 59c13 16 30 25 49 25c25 0 52 -5 82 -16c31 -10 53 -15 67 -15c23 0 37 10 44 31h36c-14 -56 -40 -84 -78 -84c-19 0 -47 5 -83 16c-31 10 -51 15 -62 15c-19 0 -34 -10 -44 -31h-37z" />
    <glyph glyph-name="uni00A0" unicode="&#xa0;" horiz-adv-x="251" 
 />
    <glyph glyph-name="exclamdown" unicode="&#xa1;" horiz-adv-x="305" 
d="M217 382c0 -17 -6 -31 -18 -43s-26 -18 -43 -18s-31 6 -43 18s-18 26 -18 43s6 31 18 44c12 12 26 18 43 18s31 -6 43 -18c12 -13 18 -27 18 -44zM200 -4v-167h-92v167c0 55 10 150 31 284h29c21 -141 32 -236 32 -284z" />
    <glyph glyph-name="cent" unicode="&#xa2;" horiz-adv-x="436" 
d="M79 214c0 55 16 100 47 134c31 33 74 50 128 51l28 96h42l-29 -101c29 -7 52 -17 69 -30l-32 -46c-11 11 -28 18 -53 23l-68 -241c15 -5 30 -8 47 -8c29 0 57 11 84 32l24 -55c-32 -21 -73 -32 -123 -32c-18 0 -34 2 -49 6l-30 -105h-46l35 122c-49 29 -74 81 -74 154z
M237 342c-28 -5 -51 -19 -67 -42c-18 -24 -26 -53 -26 -86c0 -39 10 -68 29 -88z" />
    <glyph glyph-name="sterling" unicode="&#xa3;" horiz-adv-x="436" 
d="M90 408c0 59 14 107 44 144c28 37 69 55 122 55c55 0 95 -17 119 -50l-38 -54c-17 23 -47 35 -90 35c-50 0 -75 -42 -75 -126v-64h81v-60h-81v-215h90c42 0 74 15 96 46l57 -45c-28 -49 -88 -74 -181 -74h-180v57c24 8 36 25 36 52v179h-33v60h33v60z" />
    <glyph glyph-name="currency" unicode="&#xa4;" horiz-adv-x="436" 
d="M414 136l-35 -36l-58 59c-33 -23 -68 -35 -103 -35s-70 12 -103 35l-58 -59l-34 36l58 57c-22 35 -33 69 -33 102s11 67 33 102l-58 57l34 36l58 -58c34 23 68 34 103 34s69 -11 103 -34l58 58l35 -36l-58 -57c22 -35 33 -69 33 -102s-11 -67 -33 -102zM218 417
c-33 0 -62 -12 -86 -36s-36 -53 -36 -86s12 -62 36 -86c23 -24 52 -36 86 -36c33 0 62 12 86 36c23 24 35 53 35 86s-12 62 -35 86c-24 24 -53 36 -86 36z" />
    <glyph glyph-name="yen" unicode="&#xa5;" horiz-adv-x="475" 
d="M379 247v-54h-103v-193h-82v193h-98v54h98v20l-178 329h84l135 -260l149 260h81l-189 -329v-20h103z" />
    <glyph glyph-name="brokenbar" unicode="&#xa6;" horiz-adv-x="436" 
d="M251 282h-59v294h59v-294zM251 -112h-59v294h59v-294z" />
    <glyph glyph-name="section" unicode="&#xa7;" horiz-adv-x="377" 
d="M346 131c0 -45 -15 -80 -44 -104s-69 -36 -119 -36c-60 0 -107 12 -142 37l28 76c31 -27 67 -41 110 -41c54 0 81 20 81 60c0 37 -31 61 -93 74c-29 6 -57 18 -83 37c-27 19 -40 41 -40 67c0 37 13 63 39 80c-32 18 -48 51 -48 99c0 39 16 69 49 92s69 34 110 34
c18 0 39 -4 64 -13s43 -18 54 -27l-26 -75c-29 28 -59 42 -90 42c-51 0 -76 -17 -76 -52c0 -11 4 -22 12 -33c9 -10 34 -21 76 -32s73 -26 92 -45s29 -45 29 -76c0 -26 -11 -51 -33 -74c33 -22 50 -52 50 -90zM144 358c-17 -11 -26 -24 -26 -37c0 -11 5 -22 14 -31
c10 -9 21 -16 33 -21c19 -7 45 -13 77 -20c5 11 8 24 8 39c0 24 -13 41 -38 52c-9 4 -16 7 -21 8s-12 3 -21 4c-8 1 -17 3 -26 6z" />
    <glyph glyph-name="dieresis" unicode="&#xa8;" horiz-adv-x="436" 
d="M123 524c-13 0 -23 4 -33 14c-8 8 -13 19 -13 32s5 24 13 33c10 9 20 13 33 13s23 -4 32 -13s13 -20 13 -33s-4 -24 -13 -33s-19 -13 -32 -13zM361 570c0 -13 -5 -24 -13 -32c-10 -10 -20 -14 -33 -14s-23 4 -33 13c-8 9 -13 20 -13 33s5 24 13 33c10 9 20 13 33 13
s23 -4 33 -13c8 -9 13 -20 13 -33z" />
    <glyph glyph-name="copyright" unicode="&#xa9;" horiz-adv-x="593" 
d="M43 269c0 77 27 141 79 195c54 52 118 79 195 79s142 -27 195 -79c53 -54 80 -118 80 -195c0 -76 -27 -141 -80 -195c-54 -53 -119 -80 -195 -80s-141 27 -194 80c-53 54 -80 119 -80 195zM547 269c0 64 -22 118 -67 163c-45 44 -99 66 -163 66c-63 0 -117 -22 -163 -67
c-44 -45 -67 -99 -67 -162s23 -117 67 -163c46 -44 100 -67 163 -67c65 0 119 22 163 67c45 44 67 98 67 163zM225 267c0 -36 9 -67 27 -91c17 -26 41 -38 72 -38s56 11 73 33l25 -35c-27 -27 -61 -40 -103 -40c-45 0 -80 16 -105 49s-37 74 -37 125c0 49 13 90 39 124
c27 34 62 51 106 51c39 0 67 -6 86 -17l-15 -40c-15 11 -38 16 -70 16c-31 0 -55 -13 -73 -40c-16 -27 -25 -59 -25 -97z" />
    <glyph glyph-name="ordfeminine" unicode="&#xaa;" horiz-adv-x="305" 
d="M35 408c0 33 13 58 39 75c27 17 59 26 98 26h30c-1 34 -19 51 -56 51c-30 0 -54 -8 -71 -25l-24 44c26 19 56 28 89 28c79 0 118 -36 118 -109v-92c0 -21 7 -35 21 -43v-27c-38 0 -61 10 -70 31c-20 -21 -49 -32 -88 -32c-23 0 -43 7 -61 21c-16 13 -25 31 -25 52z
M173 471c-22 0 -41 -5 -58 -15s-25 -24 -25 -42c0 -10 5 -18 14 -24c9 -7 21 -10 36 -10c25 0 46 9 63 28v63h-30z" />
    <glyph glyph-name="guillemotleft" unicode="&#xab;" horiz-adv-x="436" 
d="M197 121l-145 97v26l145 99v-51l-86 -64l86 -56v-51zM359 121l-144 97v26l144 99v-51l-86 -64l86 -56v-51z" />
    <glyph glyph-name="logicalnot" unicode="&#xac;" horiz-adv-x="436" 
d="M50 360h341v-197h-58v140h-283v57z" />
    <glyph glyph-name="uni00AD" unicode="&#xad;" horiz-adv-x="305" 
d="M239 206h-174v71h174v-71z" />
    <glyph glyph-name="registered" unicode="&#xae;" horiz-adv-x="593" 
d="M43 269c0 77 27 141 79 195c54 52 118 79 195 79s142 -27 195 -79c53 -54 80 -118 80 -195c0 -76 -27 -141 -80 -195c-54 -53 -119 -80 -195 -80s-141 27 -194 80c-53 54 -80 119 -80 195zM547 269c0 64 -22 118 -67 163c-45 44 -99 66 -163 66c-63 0 -117 -22 -163 -67
c-44 -45 -67 -99 -67 -162s23 -117 67 -163c46 -44 100 -67 163 -67c65 0 119 22 163 67c45 44 67 98 67 163zM455 103h-52l-86 146h-49v-146h-48v338h86c81 0 122 -31 122 -93c0 -43 -22 -74 -65 -92zM300 287c30 0 51 4 62 11c12 7 18 23 18 47c0 37 -25 55 -74 55h-38
v-112h11c7 -1 14 -1 21 -1z" />
    <glyph glyph-name="macron" unicode="&#xaf;" horiz-adv-x="436" 
d="M438 651h-441v52h441v-52z" />
    <glyph glyph-name="degree" unicode="&#xb0;" horiz-adv-x="436" 
d="M293 522c0 -23 -9 -44 -25 -60c-18 -18 -38 -26 -61 -26c-24 0 -45 8 -61 26c-18 16 -26 37 -26 60s9 43 26 60s38 25 61 25s43 -8 61 -25c16 -17 25 -37 25 -60zM263 522c0 15 -5 28 -17 40c-10 10 -24 16 -39 16s-29 -6 -40 -16c-11 -12 -17 -25 -17 -40s6 -29 17 -40
s25 -17 40 -17s29 6 39 17c12 11 17 25 17 40z" />
    <glyph glyph-name="plusminus" unicode="&#xb1;" horiz-adv-x="436" 
d="M249 427v-140h142v-57h-142v-140h-58v140h-141v57h141v140h58zM50 49h341v-57h-341v57z" />
    <glyph glyph-name="twosuperior" unicode="&#xb2;" horiz-adv-x="375" 
d="M66 536c7 19 19 36 38 50c18 13 38 20 60 20c71 0 107 -30 107 -91c0 -33 -13 -69 -38 -108l-74 -117h136v-48h-220v10l108 168c23 37 35 67 35 91c0 33 -17 50 -52 50c-29 0 -52 -17 -69 -51z" />
    <glyph glyph-name="threesuperior" unicode="&#xb3;" horiz-adv-x="377" 
d="M266 517c0 -19 -5 -37 -16 -52c-10 -15 -23 -26 -38 -32c45 -15 67 -45 67 -92c0 -69 -40 -103 -120 -103c-36 0 -64 10 -84 29l24 42c13 -15 33 -22 60 -22c45 0 67 19 67 58c0 20 -6 36 -19 48s-30 18 -52 18h-4v41h2c41 0 61 19 61 57c0 32 -19 48 -57 48
c-22 0 -39 -6 -50 -18l-22 37c15 20 40 30 76 30c29 0 54 -8 75 -24c20 -17 30 -38 30 -65z" />
    <glyph glyph-name="acute" unicode="&#xb4;" horiz-adv-x="436" 
d="M223 658h80l-92 -135h-57z" />
    <glyph glyph-name="uni00B5" unicode="&#xb5;" horiz-adv-x="455" 
d="M323 60c-9 -20 -24 -36 -45 -49s-44 -19 -71 -19c-30 0 -55 5 -75 15v-178h-77v607h77v-254c0 -82 32 -123 96 -123c22 0 42 6 60 17c17 12 29 27 35 44v316h78v-436h-78v60z" />
    <glyph glyph-name="paragraph" unicode="&#xb6;" horiz-adv-x="436" 
d="M48 438c0 47 11 86 32 119c22 33 53 49 93 49h206v-708h-62v658h-65v-658h-62v364c-95 0 -142 59 -142 176z" />
    <glyph glyph-name="periodcentered" unicode="&#xb7;" horiz-adv-x="305" 
d="M83 265c0 17 6 31 18 43s26 18 43 18s31 -6 43 -18s18 -26 18 -43s-6 -31 -18 -43c-12 -13 -26 -19 -43 -19s-31 6 -43 19c-12 12 -18 26 -18 43z" />
    <glyph glyph-name="cedilla" unicode="&#xb8;" horiz-adv-x="436" 
d="M172 -25c25 0 46 -7 62 -21c15 -14 23 -33 23 -57c0 -25 -10 -45 -30 -60s-48 -22 -83 -22l-9 40c21 0 39 4 53 11c14 8 21 18 21 31c0 20 -12 30 -37 30v48z" />
    <glyph glyph-name="onesuperior" unicode="&#xb9;" horiz-adv-x="375" 
d="M231 242h-52v274l-77 -45v46c55 28 94 56 115 84h14v-359z" />
    <glyph glyph-name="ordmasculine" unicode="&#xba;" horiz-adv-x="305" 
d="M154 335c-40 0 -71 13 -94 37c-22 26 -33 59 -33 100c0 40 11 72 35 98c22 24 53 37 92 37c41 0 72 -12 94 -37c22 -24 33 -57 33 -98s-11 -74 -33 -100c-23 -24 -54 -37 -94 -37zM84 472c0 -60 23 -90 70 -90s70 30 70 90c0 59 -23 88 -70 88s-70 -29 -70 -88z" />
    <glyph glyph-name="guillemotright" unicode="&#xbb;" horiz-adv-x="436" 
d="M213 244v-26l-144 -97v51l86 56l-86 64v51zM376 244v-26l-145 -97v51l86 56l-86 64v51z" />
    <glyph glyph-name="onequarter" unicode="&#xbc;" horiz-adv-x="678" 
d="M537 607l-395 -621h-52l396 621h51zM162 242h-57v270l-72 -41v46c55 28 94 56 115 84h14v-359zM606 85h-36v-85h-53v85h-165v28l200 246h18v-232h36v-42zM517 127v126l-103 -126h103z" />
    <glyph glyph-name="onehalf" unicode="&#xbd;" horiz-adv-x="678" 
d="M532 607l-395 -621h-52l396 621h51zM170 242h-52v274l-77 -45v46c55 28 94 56 115 84h14v-359zM408 294c7 19 19 36 37 50c18 13 38 20 60 20c72 0 108 -30 108 -91c0 -33 -13 -69 -38 -108l-75 -117h136v-48h-219v10l108 168c23 37 35 67 35 91c0 33 -17 50 -52 50
c-29 0 -52 -17 -69 -51z" />
    <glyph glyph-name="threequarters" unicode="&#xbe;" horiz-adv-x="678" 
d="M570 607l-395 -621h-53l397 621h51zM242 517c0 -19 -5 -37 -16 -52s-24 -26 -39 -32c45 -15 67 -45 67 -92c0 -69 -40 -103 -120 -103c-35 0 -63 10 -83 29l24 42c13 -15 33 -22 60 -22c44 0 66 19 66 58c0 20 -6 36 -19 48c-12 12 -29 18 -51 18h-4v41h2
c40 0 60 19 60 57c0 32 -19 48 -56 48c-23 0 -40 -6 -51 -18l-22 37c15 20 40 30 76 30c29 0 54 -8 75 -24c21 -17 31 -38 31 -65zM618 85h-36v-85h-53v85h-164v28l200 246h17v-232h36v-42zM529 127v126l-103 -126h103z" />
    <glyph glyph-name="questiondown" unicode="&#xbf;" horiz-adv-x="305" 
d="M226 382c0 -17 -6 -31 -18 -43s-26 -18 -43 -18s-31 6 -43 18s-18 26 -18 43s6 31 18 44c12 12 26 18 43 18s31 -6 43 -18c12 -13 18 -27 18 -44zM158 -171c-41 0 -74 11 -102 35c-26 22 -40 53 -40 92c0 40 14 75 43 106l59 64c24 29 36 62 36 98c0 5 -2 18 -6 37h54
c9 -27 14 -45 14 -56c0 -45 -20 -90 -60 -133c-25 -27 -42 -49 -51 -65c-9 -15 -13 -29 -13 -44c0 -48 29 -72 87 -72c27 0 51 10 72 30l30 -58c-28 -23 -69 -34 -123 -34z" />
    <glyph glyph-name="OE" unicode="&#x152;" horiz-adv-x="827" 
d="M798 523h-274v-166h197v-69h-197v-215h270v-73h-352v56c-44 -44 -102 -66 -175 -66c-41 0 -78 9 -110 28c-32 18 -57 42 -75 73c-19 31 -32 64 -42 99c-8 36 -13 74 -13 113c0 52 8 100 24 145c16 44 43 82 81 112c37 32 82 47 135 47c72 0 130 -21 175 -64v53h356v-73z
M267 533c-53 0 -92 -21 -117 -64s-37 -98 -37 -166c0 -42 5 -80 15 -115s27 -64 51 -88c24 -25 53 -37 88 -37c59 0 102 22 129 66c28 44 42 102 42 174c0 153 -57 230 -171 230z" />
    <glyph glyph-name="oe" unicode="&#x153;" horiz-adv-x="770" 
d="M25 219c0 65 18 119 53 161c35 43 83 64 144 64c73 0 127 -27 161 -81c40 54 93 81 158 81c59 0 107 -18 143 -53c37 -35 55 -83 55 -142c0 -13 -2 -26 -6 -39h-310c0 -45 12 -81 35 -110c24 -29 57 -43 98 -43c45 0 82 14 111 41l33 -62c-33 -29 -86 -44 -159 -44
c-69 0 -122 26 -161 78c-35 -52 -87 -78 -158 -78c-63 0 -111 21 -146 62c-34 42 -51 97 -51 165zM666 266c0 34 -12 61 -36 82c-23 21 -53 31 -89 31c-29 0 -55 -12 -81 -35c-24 -23 -37 -49 -37 -78h243zM222 61c39 0 68 15 87 44s29 67 29 114c0 104 -39 156 -116 156
c-37 0 -65 -14 -86 -41c-20 -27 -30 -66 -30 -115c0 -105 39 -158 116 -158z" />
    <glyph glyph-name="Scaron" unicode="&#x160;" horiz-adv-x="400" 
d="M269 781h80l-124 -136h-43l-121 137h70l72 -78zM203 537c-27 0 -48 -7 -65 -23c-16 -14 -24 -35 -24 -61c0 -31 11 -55 32 -73c7 -7 28 -18 63 -35l49 -24c38 -17 66 -39 84 -67c17 -26 26 -61 26 -103c0 -51 -20 -90 -60 -119c-39 -28 -85 -42 -138 -42
c-54 0 -99 12 -136 37l30 75c14 -10 32 -19 54 -27c23 -8 44 -12 63 -12c30 0 55 8 75 25c21 17 31 39 31 67c0 29 -8 51 -25 67c-16 16 -40 31 -72 46l-48 22c-37 17 -64 38 -82 62c-18 25 -27 58 -27 100c0 45 16 82 48 111s72 43 120 43c66 0 112 -11 137 -32l-24 -71
c-11 8 -28 16 -51 23s-43 11 -60 11z" />
    <glyph glyph-name="scaron" unicode="&#x161;" horiz-adv-x="337" 
d="M230 659h80l-124 -136h-44l-121 137h70l73 -78zM311 117c0 -41 -14 -72 -43 -93c-28 -21 -65 -32 -112 -32s-91 11 -130 34l28 73c43 -28 78 -42 104 -42c47 0 71 20 71 60c0 29 -23 53 -69 74c-21 9 -36 17 -48 23c-10 6 -24 15 -39 26c-15 12 -27 25 -33 40
c-8 15 -11 31 -11 50c0 37 13 65 39 84c27 20 61 30 102 30c32 0 72 -10 120 -30l-21 -72c-32 25 -63 37 -93 37c-17 0 -32 -4 -46 -13c-12 -8 -19 -19 -19 -33c0 -29 16 -50 47 -64l56 -25c34 -15 59 -33 74 -52c15 -20 23 -45 23 -75z" />
    <glyph glyph-name="Ydieresis" unicode="&#x178;" horiz-adv-x="475" 
d="M144 646c-13 0 -24 4 -32 14c-10 8 -14 19 -14 32s4 24 13 33s20 13 33 13s24 -4 33 -13s13 -20 13 -33s-4 -24 -13 -33s-20 -13 -33 -13zM382 692c0 -13 -4 -24 -14 -32c-8 -10 -19 -14 -32 -14s-24 4 -33 13s-13 20 -13 33s4 24 13 33s20 13 33 13s24 -4 33 -13
s13 -20 13 -33zM470 596l-191 -329v-267h-82v267l-192 329h84l149 -260l148 260h84z" />
    <glyph glyph-name="Zcaron" unicode="&#x17d;" horiz-adv-x="458" 
d="M285 781h80l-124 -136h-43l-122 137h70l73 -78zM418 0h-377v20l256 503h-252v73h364v-20l-257 -503h266v-73z" />
    <glyph glyph-name="zcaron" unicode="&#x17e;" horiz-adv-x="395" 
d="M257 659h80l-124 -136h-44l-121 137h70l72 -78zM377 414l-239 -345h241v-69h-363v20l248 347h-244v69h357v-22z" />
    <glyph glyph-name="florin" unicode="&#x192;" horiz-adv-x="323" 
d="M341 602l-15 -60c-19 7 -35 11 -48 11c-54 0 -86 -39 -96 -117h14c6 -1 11 -1 14 -1c26 0 51 1 74 4l-5 -47c-45 -7 -81 -11 -108 -12l-67 -410c-7 -38 -24 -69 -52 -93c-27 -24 -61 -38 -102 -43c-3 5 -6 13 -9 24l-7 23l-6 16c21 5 42 14 62 27c21 14 33 29 36 46
l68 407c-11 0 -32 -2 -61 -6l12 65h60c24 119 83 178 178 178c15 0 34 -4 58 -12z" />
    <glyph glyph-name="circumflex" unicode="&#x2c6;" horiz-adv-x="436" 
d="M358 523h-81l-66 77l-72 -77h-70l121 137h44z" />
    <glyph glyph-name="tilde" unicode="&#x2dc;" horiz-adv-x="436" 
d="M83 523c3 22 12 41 25 59c14 16 31 25 50 25c22 0 42 -5 61 -16c19 -10 34 -15 43 -15c23 0 37 10 44 31h36c-14 -56 -40 -84 -78 -84c-17 0 -36 5 -57 15c-19 11 -34 16 -43 16c-19 0 -34 -10 -44 -31h-37z" />
    <glyph glyph-name="endash" unicode="&#x2013;" horiz-adv-x="305" 
d="M250 216h-212v39h212v-39z" />
    <glyph glyph-name="emdash" unicode="&#x2014;" horiz-adv-x="611" 
d="M570 216h-532v39h532v-39z" />
    <glyph glyph-name="quoteleft" unicode="&#x2018;" horiz-adv-x="305" 
d="M198 614l27 -36l-31 -26c-15 -13 -22 -28 -22 -47c0 -10 7 -23 20 -38s20 -29 20 -41c0 -39 -20 -59 -59 -59c-42 0 -63 24 -63 72c0 71 36 130 108 175z" />
    <glyph glyph-name="quoteright" unicode="&#x2019;" horiz-adv-x="305" 
d="M216 542c0 -72 -36 -130 -108 -175l-27 36l30 26c15 13 23 29 23 47c0 10 -7 23 -20 38s-20 29 -20 41c0 39 20 59 59 59c42 0 63 -24 63 -72z" />
    <glyph glyph-name="quotesinglbase" unicode="&#x201a;" horiz-adv-x="305" 
d="M216 41c0 -73 -36 -131 -108 -176l-27 36l30 26c15 13 23 29 23 47c0 11 -7 24 -20 39s-20 29 -20 40c0 40 20 60 59 60c42 0 63 -24 63 -72z" />
    <glyph glyph-name="quotedblleft" unicode="&#x201c;" horiz-adv-x="436" 
d="M359 614l27 -36l-30 -26c-15 -13 -23 -29 -23 -47c0 -10 7 -23 20 -38s20 -29 20 -41c0 -39 -20 -59 -59 -59c-42 0 -63 24 -63 72c0 71 36 130 108 175zM176 614l27 -36l-31 -26c-15 -13 -22 -28 -22 -47c0 -10 7 -23 20 -38s20 -29 20 -41c0 -39 -20 -59 -59 -59
c-42 0 -63 24 -63 72c0 71 36 130 108 175z" />
    <glyph glyph-name="quotedblright" unicode="&#x201d;" horiz-adv-x="436" 
d="M389 542c0 -72 -36 -130 -108 -175l-28 36l31 26c15 13 22 28 22 47c0 10 -7 23 -20 38s-20 29 -20 41c0 39 20 59 59 59c43 0 64 -24 64 -72zM202 542c0 -72 -36 -130 -108 -175l-27 36l30 26c15 13 23 29 23 47c0 10 -7 23 -20 38s-20 29 -20 41c0 39 20 59 59 59
c42 0 63 -24 63 -72z" />
    <glyph glyph-name="quotedblbase" unicode="&#x201e;" horiz-adv-x="436" 
d="M389 41c0 -73 -36 -131 -108 -176l-28 36l31 26c15 13 22 28 22 47c0 11 -7 24 -20 39s-20 29 -20 40c0 40 20 60 59 60c43 0 64 -24 64 -72zM202 41c0 -73 -36 -131 -108 -176l-27 36l30 26c15 13 23 29 23 47c0 11 -7 24 -20 39s-20 29 -20 40c0 40 20 60 59 60
c42 0 63 -24 63 -72z" />
    <glyph glyph-name="dagger" unicode="&#x2020;" horiz-adv-x="382" 
d="M161 -102v481h-151v57h151v127h61v-127h150v-57h-150v-481l-30 -36z" />
    <glyph glyph-name="daggerdbl" unicode="&#x2021;" horiz-adv-x="382" 
d="M222 155h150v-57h-150v-200l-31 -38l-30 38v200h-151v57h151v224h-151v57h151v127h61v-127h150v-57h-150v-224z" />
    <glyph glyph-name="bullet" unicode="&#x2022;" horiz-adv-x="436" 
d="M103 234c0 32 12 60 35 82c23 24 51 35 83 35s59 -11 83 -35c22 -22 34 -50 34 -82s-12 -60 -34 -83c-24 -23 -51 -35 -83 -35c-33 0 -61 12 -83 34c-24 24 -35 51 -35 84z" />
    <glyph glyph-name="ellipsis" unicode="&#x2026;" horiz-adv-x="611" 
d="M102 114c17 0 31 -6 43 -18s18 -26 18 -43s-6 -31 -18 -43s-26 -18 -43 -18s-31 6 -43 18s-18 26 -18 43s6 31 18 43s26 18 43 18zM306 114c17 0 31 -6 43 -18s18 -26 18 -43s-6 -31 -18 -43s-26 -18 -43 -18s-31 6 -43 18s-18 26 -18 43s6 31 18 43s26 18 43 18z
M510 114c17 0 31 -6 43 -18s18 -26 18 -43s-6 -31 -18 -43s-26 -18 -43 -18s-31 6 -43 18s-18 26 -18 43s6 31 18 43s26 18 43 18z" />
    <glyph glyph-name="perthousand" unicode="&#x2030;" horiz-adv-x="760" 
d="M448 607l-359 -615h-52l359 615h52zM251 465c0 -40 -10 -73 -30 -99s-48 -39 -83 -39c-75 0 -113 49 -113 146c0 38 11 70 32 95c21 26 50 39 85 39c34 0 61 -12 80 -37s29 -60 29 -105zM76 469c0 -31 5 -56 16 -73c10 -18 24 -27 42 -27c44 0 66 33 66 99
c0 65 -20 97 -60 97c-19 0 -35 -9 -46 -26c-12 -17 -18 -41 -18 -70zM471 130c0 -40 -10 -73 -30 -99s-48 -39 -83 -39c-75 0 -113 49 -113 146c0 38 11 70 31 95c22 25 50 38 85 38c34 0 61 -12 81 -37c19 -25 29 -59 29 -104zM736 130c0 -40 -10 -73 -30 -99
c-21 -26 -49 -39 -84 -39c-75 0 -113 49 -113 146c0 38 11 70 32 95s50 38 85 38c34 0 61 -12 80 -37c20 -25 30 -59 30 -104zM296 133c0 -31 5 -56 16 -73c10 -18 24 -27 42 -27c44 0 66 33 66 100c0 65 -20 97 -60 97c-19 0 -35 -9 -46 -26c-12 -18 -18 -42 -18 -71z
M560 133c0 -31 5 -56 16 -73c10 -18 24 -27 42 -27c44 0 66 33 66 100c0 65 -20 97 -60 97c-19 0 -35 -9 -46 -26c-12 -18 -18 -42 -18 -71z" />
    <glyph glyph-name="guilsinglleft" unicode="&#x2039;" horiz-adv-x="305" 
d="M214 121l-144 97v26l144 99v-51l-86 -64l86 -56v-51z" />
    <glyph glyph-name="guilsinglright" unicode="&#x203a;" horiz-adv-x="305" 
d="M230 244v-26l-144 -97v51l86 56l-86 64v51z" />
    <glyph glyph-name="Euro" unicode="&#x20ac;" horiz-adv-x="436" 
d="M59 378c10 63 35 117 75 162c40 44 90 66 150 66c67 0 115 -13 144 -38l-36 -66c-27 21 -62 31 -106 31c-41 0 -73 -15 -98 -45c-25 -29 -40 -66 -47 -110h187l-24 -58h-169c-1 -7 -1 -16 -1 -29v-11c1 -6 1 -10 1 -13h141l-20 -57h-115c4 -36 19 -70 46 -100
c27 -32 57 -47 92 -47c26 0 52 6 79 17c26 12 46 26 61 41v-88c-37 -29 -87 -43 -148 -43c-57 0 -104 21 -141 64c-37 42 -60 94 -70 156h-47v57h39c-1 7 -1 18 -1 31v5l1 12v5h-39v58h46z" />
    <glyph glyph-name="trademark" unicode="&#x2122;" horiz-adv-x="528" 
d="M292 562h-89v-262h-41v262h-84v36h214v-36zM549 301h-39l-34 202l-59 -204h-24l-63 207l-32 -205h-38l45 297h31l68 -230l68 230h31z" />
    <glyph glyph-name="uniE600" unicode="&#xe600;" horiz-adv-x="708" 
d="M356 292h-50v374h50v-374zM479 -11c-20 40 -39 73 -56 99c-14 -29 -33 -52 -57 -70s-51 -27 -81 -27c-29 0 -53 8 -72 23s-28 37 -28 66c0 37 11 66 33 88c23 22 53 33 90 33c48 0 85 -11 111 -32c30 -25 65 -78 105 -158zM308 151c-25 0 -44 -7 -56 -21
c-11 -11 -17 -28 -17 -50c0 -14 3 -23 10 -28c9 -7 22 -11 40 -11c10 0 20 2 31 5c10 3 22 12 36 26c15 15 26 34 35 59c-17 13 -42 20 -77 20h-2z" />
    <glyph glyph-name="uniE601" unicode="&#xe601;" horiz-adv-x="833" 
d="M688 677c0 -14 -5 -26 -16 -37c-11 -10 -23 -15 -37 -15c-15 0 -27 5 -37 15s-15 22 -15 37s5 27 15 37s22 15 37 15c14 0 26 -5 37 -15c11 -11 16 -23 16 -37zM250 677c0 -15 -5 -27 -15 -37s-22 -15 -37 -15c-14 0 -26 5 -36 15c-11 10 -16 22 -16 37s5 27 16 37
c10 10 22 15 36 15c15 0 27 -5 37 -15s15 -22 15 -37zM708 481v-46h-111c7 -40 11 -80 11 -121h163v-45h-164c-2 -38 -9 -78 -20 -121h121v-46h-135c-16 -41 -37 -76 -63 -104c-26 -30 -57 -44 -93 -44s-67 14 -93 44c-27 28 -48 63 -64 104h-135v46h120
c-9 35 -16 76 -19 121h-163v45h162c0 41 4 81 11 121h-111v46h122c15 51 36 96 64 133c28 38 63 57 106 57c23 0 44 -6 63 -18s36 -28 49 -48s25 -40 33 -60c10 -20 17 -41 24 -64h122zM417 621c-27 0 -51 -15 -71 -45c-22 -31 -37 -62 -47 -95h235c-7 19 -14 39 -24 57
c-8 20 -22 38 -39 56s-35 27 -54 27zM275 314h283c0 43 -4 83 -12 121h-259c-8 -38 -12 -78 -12 -121zM297 148h239c11 37 18 77 21 121h-281c3 -44 10 -84 21 -121zM314 102c9 -24 23 -46 42 -67s39 -31 61 -31c21 0 41 10 59 30c17 20 32 43 43 68h-205z" />
    <glyph glyph-name="uniE602" unicode="&#xe602;" horiz-adv-x="833" 
d="M417 276l-274 -293l-36 34l275 295l-275 296l36 34l274 -293l273 293l37 -34l-276 -296l276 -295l-37 -34z" />
    <glyph glyph-name="uniE603" unicode="&#xe603;" horiz-adv-x="833" 
d="M785 323l-163 -164l-36 36l103 103h-144c-7 -96 -44 -177 -112 -244s-150 -100 -245 -100h-26v344h-121v50h121v344h26c95 0 176 -34 244 -100c69 -68 106 -149 113 -244h145l-104 103l36 35zM212 641v-293h283c-5 76 -35 142 -89 198c-53 57 -118 88 -194 95zM212 5
c76 7 141 38 194 94c54 56 84 122 89 199h-283v-293z" />
    <glyph glyph-name="uniE604" unicode="&#xe604;" horiz-adv-x="833" 
d="M625 37c-29 0 -54 6 -77 19c-23 12 -42 30 -60 56c-16 24 -30 46 -39 66c-9 18 -20 44 -32 75c-11 -29 -22 -54 -33 -75c-10 -21 -23 -43 -40 -67s-36 -42 -60 -55c-22 -13 -48 -19 -76 -19c-55 0 -102 30 -139 90c-35 55 -52 122 -52 199c0 57 10 109 30 156
c20 48 47 84 82 108c25 17 51 25 79 25s54 -6 76 -19c24 -12 43 -30 60 -54c17 -25 30 -47 40 -67s21 -45 33 -75c11 29 22 54 32 75s23 43 40 67c17 23 37 41 59 54c24 13 49 19 77 19c33 0 62 -10 87 -29c26 -19 46 -44 61 -74c15 -31 26 -62 33 -94s11 -63 11 -92
c0 -57 -10 -109 -31 -156c-20 -48 -47 -84 -82 -107c-25 -17 -52 -26 -79 -26zM443 326c29 -81 54 -137 73 -167c31 -48 67 -72 109 -72c37 0 69 22 97 66c29 47 44 104 44 173s-15 127 -44 174c-28 43 -60 65 -97 65c-42 0 -78 -24 -109 -71c-19 -29 -43 -85 -73 -168z
M208 565c-37 0 -69 -22 -97 -65c-29 -47 -44 -105 -44 -174s15 -126 44 -173c28 -44 60 -66 97 -66c41 0 78 24 109 72c19 30 44 86 73 167c-30 83 -54 139 -73 168c-31 47 -67 71 -109 71z" />
    <glyph glyph-name="uniE605" unicode="&#xe605;" horiz-adv-x="833" 
d="M754 142h-675v504h50v-454h575v454h50v-504zM469 31c0 -15 -5 -27 -15 -37s-22 -15 -37 -15s-27 5 -37 15s-15 22 -15 37c0 14 5 26 15 37c10 10 22 15 37 15s27 -5 37 -15c10 -11 15 -23 15 -37z" />
    <glyph glyph-name="uniE606" unicode="&#xe606;" horiz-adv-x="833" 
d="M417 345l-348 238l29 41l319 -219l319 219l28 -41zM736 0l-319 220l-319 -220l-29 41l348 239l347 -239z" />
    <glyph glyph-name="uniE607" unicode="&#xe607;" horiz-adv-x="833" 
d="M441 179v-200h-49v200l-287 411l41 28l271 -387l271 387l41 -28z" />
    <glyph glyph-name="uniE608" unicode="&#xe608;" horiz-adv-x="833" 
d="M771 -25h-143l-211 577l-212 -577h-142v50h107l247 672l246 -672h108v-50z" />
    <glyph glyph-name="uniE609" unicode="&#xe609;" horiz-adv-x="833" 
d="M101 -17l-35 34l315 317l-315 315l35 35l351 -350zM413 -17l-35 34l316 317l-316 315l35 35l351 -350z" />
    <glyph glyph-name="uniE60A" unicode="&#xe60a;" horiz-adv-x="833" 
d="M442 309v-288h-50v288h-309v50h309v287h50v-287h308v-50h-308z" />
    <glyph glyph-name="uniE60B" unicode="&#xe60b;" horiz-adv-x="833" 
d="M450 350c-3 -11 -9 -39 -17 -84c164 -40 278 -132 343 -277l-45 -20c-58 129 -161 212 -309 248c-8 -33 -15 -60 -20 -80c-6 -20 -15 -43 -28 -69c-12 -27 -26 -47 -40 -62c-16 -14 -35 -26 -60 -36c-25 -11 -53 -16 -86 -16c-44 0 -80 15 -108 44c-29 29 -43 66 -43 109
c0 56 21 100 64 131c43 32 93 48 152 48c48 0 92 -3 131 -10c1 7 4 20 8 40c3 19 6 34 9 45c-156 43 -269 135 -340 274l45 22c63 -126 165 -208 305 -247c9 41 17 74 27 100c8 26 22 53 38 80c18 27 40 48 68 61s62 20 102 20c42 0 77 -15 106 -45s43 -67 43 -111
c0 -57 -21 -100 -62 -131c-41 -30 -91 -45 -150 -45c-50 0 -94 4 -133 11zM745 515c0 30 -9 55 -27 75c-19 21 -43 31 -72 31c-63 0 -109 -24 -137 -73c-19 -33 -35 -82 -49 -148c41 -7 82 -11 123 -11c47 0 85 11 116 33s46 53 46 93zM87 107c0 -29 9 -54 29 -73
c18 -20 43 -30 72 -30c33 0 61 6 82 18s40 31 55 58c16 28 32 77 48 147c-37 6 -77 9 -120 9c-47 0 -87 -11 -119 -34c-31 -23 -47 -54 -47 -95z" />
    <glyph glyph-name="uniE60C" unicode="&#xe60c;" horiz-adv-x="833" 
d="M417 -46c-102 0 -189 36 -261 108s-108 159 -108 261c0 101 36 188 108 261c73 72 160 108 261 108s188 -36 260 -108c72 -73 108 -160 108 -261c0 -102 -36 -189 -107 -261c-72 -72 -159 -108 -261 -108zM417 642c-88 0 -163 -31 -225 -94c-63 -62 -94 -137 -94 -225
s31 -163 94 -225c62 -63 137 -94 225 -94s163 31 225 94c62 62 93 137 93 225s-31 163 -93 225c-62 63 -137 94 -225 94z" />
    <glyph glyph-name="uniE60D" unicode="&#xe60d;" horiz-adv-x="833" 
d="M795 104h-49c0 108 -32 200 -96 277c-65 77 -142 115 -233 115s-168 -38 -233 -115s-97 -169 -97 -277h-49c0 73 15 143 45 210s75 122 133 166c60 44 126 66 201 66c105 0 194 -44 269 -131c73 -85 109 -189 109 -311z" />
    <glyph glyph-name="uniE60E" unicode="&#xe60e;" horiz-adv-x="833" 
d="M441 142v-163h-49v163h-305v487h659v-487h-305zM136 579v-387h256v387h-256zM441 192h255v387h-255v-387z" />
    <glyph glyph-name="uniE60F" unicode="&#xe60f;" horiz-adv-x="833" 
d="M733 -25h-633v671h50v-621h533v621h50v-671zM469 344c0 -15 -5 -27 -15 -37s-22 -15 -37 -15s-27 5 -37 15s-15 22 -15 37c0 14 5 26 15 36c10 11 22 16 37 16s27 -5 37 -16c10 -10 15 -22 15 -36z" />
    <glyph glyph-name="uniE610" unicode="&#xe610;" horiz-adv-x="833" 
d="M456 692c41 0 73 -11 96 -34c22 -22 33 -54 33 -95v-8c28 -7 53 -15 77 -25c22 -10 44 -25 64 -46c19 -21 29 -44 30 -70c1 -5 2 -11 2 -17c0 -31 -14 -59 -41 -83l4 -4c23 -33 35 -72 35 -115c0 -59 -23 -103 -70 -130s-107 -41 -181 -41c-68 0 -139 10 -212 29
c-36 -35 -75 -66 -118 -94l-28 41c31 20 62 43 91 70c-94 36 -141 93 -141 172c0 25 6 53 19 86c12 33 24 59 34 78c12 20 27 46 47 77c-26 -10 -54 -22 -85 -36l-19 46c9 5 15 7 17 8c54 23 99 41 135 52c31 41 64 75 97 101c34 25 72 38 114 38zM536 565
c-1 27 -8 46 -20 59c-13 12 -33 18 -60 18c-45 0 -89 -24 -133 -73c30 3 61 5 94 5c41 0 81 -3 119 -9zM293 336c0 28 14 52 42 71s59 29 92 29c25 0 50 -2 75 -6c13 29 22 58 28 85c-36 6 -74 9 -113 9c-57 0 -105 -5 -142 -14c-85 -119 -128 -209 -128 -268
c0 -61 44 -106 132 -133c45 45 85 92 121 142c-30 5 -55 14 -76 29c-21 14 -31 33 -31 56zM579 505c-5 -25 -14 -54 -27 -87c53 -16 97 -38 131 -67c16 16 24 31 24 46c0 2 -1 6 -2 11l1 3c0 34 -30 61 -89 82c-8 3 -21 7 -38 12zM427 386c-17 0 -35 -5 -55 -14
c-19 -9 -29 -21 -29 -36c0 -13 10 -22 31 -27c20 -5 39 -9 58 -10c19 29 35 56 48 83c-24 3 -42 4 -53 4zM531 372c-13 -27 -27 -51 -40 -72c61 3 109 11 145 24c-27 20 -62 36 -105 48zM334 94c27 -6 50 -10 67 -11c33 -6 67 -9 102 -9c135 0 203 40 203 121
c0 35 -10 66 -31 92c-51 -25 -123 -37 -216 -38c-35 -51 -73 -99 -115 -144c-1 -1 -2 -2 -2 -3l-6 -5c0 -1 -1 -2 -2 -3z" />
    <glyph glyph-name="uniE611" unicode="&#xe611;" horiz-adv-x="833" 
d="M417 -4c-85 0 -159 27 -223 80l-114 -115l-35 36l113 113c-59 67 -89 145 -89 234c0 97 34 179 101 246c68 68 150 102 247 102s179 -34 246 -102c67 -67 101 -149 101 -246c0 -89 -30 -167 -89 -234l113 -113l-35 -36l-114 115c-65 -53 -139 -80 -222 -80zM417 642
c-83 0 -153 -29 -211 -87s-87 -128 -87 -211s29 -153 87 -211s128 -87 211 -87c82 0 152 29 210 88c58 58 87 128 87 210s-29 152 -87 210c-58 59 -128 88 -210 88z" />
    <glyph glyph-name="uniE612" unicode="&#xe612;" horiz-adv-x="833" 
d="M335 281c-27 13 -49 33 -68 58s-30 53 -34 84h-108v50h108c5 41 22 77 52 106s66 47 107 52v77h49v-77c41 -5 77 -23 107 -52s47 -65 52 -106h108v-50h-108c-4 -31 -16 -59 -35 -85c-19 -27 -42 -46 -69 -59l281 -304h-725zM417 583c-37 0 -69 -13 -96 -39
c-27 -27 -40 -59 -40 -96s13 -69 40 -96s59 -40 96 -40s69 13 95 40c27 27 40 59 40 96s-13 69 -40 96c-26 26 -58 39 -95 39zM443 264c-12 -1 -21 -2 -26 -2c-7 0 -17 1 -29 2l-221 -239h496z" />
    <glyph glyph-name="uniE613" unicode="&#xe613;" horiz-adv-x="833" 
d="M79 238c0 52 15 99 43 140c30 41 66 74 109 98c-4 15 -6 31 -6 48c0 55 20 102 60 138c40 38 88 56 143 56s103 -18 143 -56c40 -36 60 -83 60 -138s-20 -101 -61 -138c-40 -38 -87 -57 -142 -57c-35 0 -70 9 -102 27c-34 18 -59 42 -76 73c-35 -20 -64 -47 -86 -79
c-24 -34 -35 -71 -35 -112c0 -65 28 -120 85 -166c56 -45 124 -68 203 -68c71 0 135 18 191 55c55 37 87 85 94 144h-432v50h484v-25c0 -57 -17 -106 -52 -149s-77 -74 -127 -95c-50 -20 -103 -30 -158 -30s-107 11 -159 34c-50 23 -93 56 -128 100c-34 45 -51 95 -51 150z
M428 668c-42 0 -78 -14 -108 -42s-45 -62 -45 -102s15 -74 45 -102c30 -29 66 -43 108 -43s78 14 108 43c30 28 45 62 45 102s-15 74 -45 102s-66 42 -108 42z" />
    <glyph glyph-name="uniE614" unicode="&#xe614;" horiz-adv-x="833" 
d="M176 347c113 163 227 244 343 244c75 0 136 -17 184 -53c48 -34 81 -83 100 -145c9 -30 14 -60 14 -89c0 -87 -28 -156 -83 -208c-56 -53 -128 -79 -215 -79c-44 0 -84 6 -121 18c-36 12 -68 29 -96 53c-27 22 -51 46 -71 72c-20 24 -40 54 -59 88
c-20 -33 -39 -68 -56 -104c-18 -35 -31 -62 -39 -81s-12 -29 -12 -30l-47 18c35 88 77 171 126 248c-15 29 -36 72 -64 129c-26 58 -47 100 -61 127l44 23c14 -27 33 -66 57 -118c25 -51 43 -89 56 -113zM202 296c41 -76 86 -133 134 -172c47 -38 108 -57 183 -57
c73 0 133 21 179 65c45 42 68 100 68 172c0 73 -23 130 -68 173s-105 64 -179 64c-31 0 -63 -8 -95 -23s-62 -36 -90 -62c-27 -27 -52 -53 -72 -78c-22 -25 -41 -53 -60 -82z" />
    <glyph glyph-name="uniE615" unicode="&#xe615;" horiz-adv-x="833" 
d="M441 505h-49v183h49v-183zM664 400l-43 27l87 139l42 -26zM170 400l-87 140l42 26l87 -139zM417 -46c-95 0 -175 33 -240 98s-98 145 -98 240v25h675v-25c0 -95 -32 -175 -98 -240c-64 -65 -144 -98 -239 -98zM130 266c7 -75 37 -137 92 -187s120 -75 195 -75
s139 25 194 75s85 112 92 187h-573z" />
    <glyph glyph-name="uniE616" unicode="&#xe616;" horiz-adv-x="833" 
d="M226 -25h-163v50h127l221 662l353 -637l-171 -73l-20 46l121 51l-272 489z" />
    <glyph glyph-name="uniE617" unicode="&#xe617;" horiz-adv-x="833" 
d="M151 600c73 0 131 -19 174 -56c43 -38 74 -89 92 -153c29 95 78 157 148 186c3 2 17 7 42 15l11 3c19 5 40 7 63 7c36 0 75 -5 118 -15l18 -5l1 -18v-9v-8v-4l-1 -8v-4c-5 -62 -26 -111 -63 -145c-38 -36 -89 -53 -153 -53c-42 0 -91 8 -148 25c-9 -30 -13 -56 -13 -77
v-1l1 -301h-49l1 300c-3 31 -7 58 -13 79c-50 -16 -104 -24 -163 -24s-105 18 -139 54c-34 37 -54 84 -61 143v33l1 18l17 5c36 9 75 13 116 13zM768 541c-28 7 -66 11 -113 11c-5 0 -24 -4 -55 -11c-57 -20 -99 -61 -127 -124l-6 -16c45 -13 87 -20 128 -20c27 0 48 2 61 7
l6 2h1c1 1 1 1 2 1c61 18 95 67 102 147zM233 380c37 0 82 7 134 21c-19 47 -42 84 -71 111s-67 40 -114 40c-49 0 -87 -3 -115 -9c0 -50 15 -90 45 -119c31 -29 71 -44 121 -44z" />
    <glyph glyph-name="uniE618" unicode="&#xe618;" horiz-adv-x="833" 
d="M457 312c73 -25 134 -68 183 -129c48 -61 72 -129 72 -204h-50c0 59 -17 112 -52 161c-35 48 -79 85 -132 110s-109 38 -166 38h-120v-309h-50v667h50v-309h120c57 0 113 13 166 38s97 62 132 111c35 48 52 101 52 160h50c0 -73 -25 -142 -74 -204
c-49 -64 -110 -107 -181 -130z" />
    <glyph glyph-name="uniE619" unicode="&#xe619;" horiz-adv-x="833" 
d="M138 82c4 77 28 138 72 182s104 68 181 73v30h-274v304h599v-304h-275v-31c79 -5 141 -32 185 -78c44 -48 66 -112 66 -195v-84h-50v84c0 25 -3 49 -8 72c-6 23 -16 46 -31 71s-38 44 -70 60c-32 14 -71 22 -118 22s-86 -8 -118 -22c-32 -16 -55 -35 -70 -60
s-25 -48 -31 -71c-5 -23 -8 -47 -8 -72v-84h-20l-144 150l36 34zM666 417v204h-225v-204h225zM167 417h224v204h-224v-204z" />
    <glyph glyph-name="uniE61A" unicode="&#xe61a;" horiz-adv-x="833" 
d="M440 526v-35l23 26c28 30 67 45 117 45h9c27 0 54 -6 82 -19c71 -31 111 -97 122 -197v-21c0 -59 -9 -112 -27 -158c-21 -62 -58 -112 -110 -149c-52 -38 -116 -60 -191 -67c-12 -1 -21 -2 -26 -2h-29c-117 0 -210 36 -279 108c-29 31 -52 70 -69 117
c-17 48 -25 95 -25 140v21c0 59 19 111 55 155c38 43 85 67 143 71h31c41 -3 76 -17 106 -44l23 -20v47c0 66 15 118 45 156c1 3 5 7 10 12c1 3 5 7 11 13l36 -34c-38 -37 -57 -92 -57 -165zM411 0h25c80 0 148 22 205 66c35 28 61 65 81 110c18 46 28 93 28 140v27
c0 43 -15 81 -46 115c-30 32 -67 50 -110 53h-14c-21 0 -39 -4 -56 -12c-16 -8 -27 -15 -34 -22s-17 -20 -30 -39c-14 -20 -23 -32 -26 -36l-19 -24c-5 10 -9 18 -14 24c-4 5 -11 15 -19 28c-10 13 -17 24 -22 31c-6 7 -14 15 -24 25c-9 8 -20 15 -32 19c-13 4 -27 6 -42 6
h-20c-47 -5 -83 -22 -108 -53c-26 -30 -41 -69 -44 -118v-24c0 -25 3 -49 8 -74c15 -77 49 -137 102 -179s123 -63 211 -63z" />
    <glyph glyph-name="uniE61B" unicode="&#xe61b;" horiz-adv-x="833" 
d="M417 -57l-386 408l205 320h361l205 -320zM94 357l323 -342l322 342l-169 264h-306z" />
    <glyph glyph-name="uniE61C" unicode="&#xe61c;" horiz-adv-x="833" 
d="M415 712c47 0 86 -15 119 -46c32 -30 48 -68 48 -113c3 -9 9 -14 19 -14c9 2 19 3 32 3c43 -1 81 -17 113 -46c33 -30 49 -66 49 -108c0 -31 -10 -60 -29 -86c-20 -28 -45 -46 -74 -56c-6 -3 -9 -8 -9 -14c0 -5 2 -9 5 -12c22 -28 33 -58 33 -91c0 -45 -17 -81 -49 -111
c-34 -28 -72 -43 -117 -43c-48 0 -90 18 -126 54c-5 3 -9 5 -14 5s-9 -2 -14 -5h-1c-13 -16 -30 -29 -53 -39s-47 -15 -72 -15c-44 0 -83 15 -116 44s-50 66 -50 110c0 34 13 66 38 97c1 4 2 6 2 7c0 6 -6 12 -17 17c-27 12 -50 31 -67 56s-26 53 -26 82c0 43 17 80 51 110
c33 29 72 44 116 44l10 -1h5c17 0 26 5 26 16c0 44 17 81 49 111c34 29 73 44 119 44zM415 662c-33 0 -61 -10 -83 -30c-24 -20 -35 -45 -35 -75c0 -20 -7 -36 -21 -48c-15 -12 -33 -18 -55 -18c-3 1 -10 1 -20 1c-30 -1 -56 -12 -79 -32c-22 -19 -33 -43 -33 -72
c0 -21 7 -40 21 -57c13 -17 30 -30 50 -38c26 -11 39 -31 39 -60c0 -17 -4 -30 -13 -39c-18 -23 -27 -45 -27 -65c0 -29 11 -53 34 -73c23 -21 50 -31 82 -31c34 0 65 14 92 41c14 12 30 18 48 18c20 0 38 -8 55 -25c23 -23 51 -34 85 -34c32 0 59 10 82 31
c23 20 34 44 34 73c0 21 -8 42 -25 63c-9 11 -13 25 -13 41c0 29 12 49 37 58c21 9 39 22 54 39c14 17 21 37 21 58c0 29 -11 53 -34 72c-23 20 -49 31 -79 32c-4 0 -9 0 -16 -2c-7 0 -11 -1 -14 -1c-18 0 -34 6 -47 17s-21 26 -23 43v17c-2 27 -14 49 -37 68s-49 28 -80 28
z" />
    <glyph glyph-name="uniE61D" unicode="&#xe61d;" horiz-adv-x="833" 
d="M689 642c-49 0 -89 -13 -119 -40s-45 -64 -45 -112c0 -21 5 -40 14 -58s19 -32 27 -40c10 -10 24 -22 45 -39c22 -18 39 -33 50 -45c11 -11 23 -29 35 -53s18 -50 18 -78c0 -62 -20 -111 -60 -147c-40 -37 -91 -55 -154 -55v50c49 0 89 13 119 40s45 64 45 112
c0 21 -4 40 -14 57c-8 18 -18 32 -27 41s-24 22 -44 39c-17 14 -29 25 -37 33c-9 8 -19 20 -32 35c-12 15 -21 32 -26 50c-6 17 -9 37 -9 58c0 62 20 111 60 148c40 36 91 54 154 54v-50zM333 642c-49 0 -89 -13 -119 -40s-45 -64 -45 -112c0 -21 5 -40 14 -58
s19 -32 27 -40c10 -10 24 -22 45 -39c22 -18 39 -33 50 -45c11 -11 23 -29 35 -53s18 -50 18 -78c0 -62 -20 -111 -60 -147c-40 -37 -91 -55 -154 -55v50c49 0 89 13 119 40s45 64 45 112c0 21 -4 40 -14 57c-8 18 -18 32 -27 41s-24 22 -44 39c-17 14 -29 25 -37 33
c-9 8 -19 20 -32 35c-12 15 -21 32 -26 50c-6 17 -9 37 -9 58c0 62 20 111 60 148c40 36 91 54 154 54v-50z" />
    <glyph glyph-name="uniE61E" unicode="&#xe61e;" horiz-adv-x="833" 
d="M751 317v-51h-114l156 -291h-753l156 291h-114v51h141l194 361l193 -361h141zM417 572l-138 -255h274zM253 266l-130 -241h587l-130 241h-327z" />
    <glyph glyph-name="uniE61F" unicode="&#xe61f;" horiz-adv-x="833" 
d="M417 329c-47 0 -88 17 -121 51c-33 33 -50 73 -50 120s17 87 50 120c33 34 74 51 121 51s87 -17 120 -50s50 -74 50 -121s-17 -88 -50 -121s-73 -50 -120 -50zM417 621c-33 0 -62 -12 -85 -35c-24 -24 -36 -53 -36 -86s12 -62 36 -86c23 -23 52 -35 85 -35s62 12 85 35
c23 24 35 53 35 86s-12 62 -35 86c-23 23 -52 35 -85 35zM219 -4c-47 0 -88 17 -121 50s-50 74 -50 121s17 87 50 120s74 50 121 50s87 -17 121 -49c32 -34 49 -74 49 -121s-17 -88 -50 -121s-73 -50 -120 -50zM614 -4c-47 0 -87 17 -120 50s-50 74 -50 121s17 87 50 121
c33 32 73 49 120 49s88 -17 121 -50s50 -73 50 -120s-17 -88 -51 -121c-33 -33 -73 -50 -120 -50zM219 288c-33 0 -62 -12 -85 -36c-24 -23 -36 -52 -36 -85s12 -62 36 -85c23 -24 52 -36 85 -36s62 12 85 36c24 23 36 52 36 85s-12 61 -36 85s-52 36 -85 36zM614 288
c-33 0 -62 -12 -86 -36c-23 -24 -35 -52 -35 -85s12 -62 35 -85c24 -24 53 -36 86 -36s62 12 86 36c23 23 35 52 35 85s-12 62 -35 85c-24 24 -53 36 -86 36z" />
    <glyph glyph-name="uniE620" unicode="&#xe620;" horiz-adv-x="833" 
d="M396 692c114 0 199 -26 254 -76c55 -52 83 -132 83 -241c0 -55 -9 -104 -27 -149c-17 -44 -43 -83 -76 -116c-34 -33 -70 -62 -109 -86c-39 -23 -84 -46 -137 -68l-19 46c38 16 71 32 101 47c28 15 57 34 86 56c28 22 51 45 70 71c18 24 33 54 44 88s17 71 17 111
c0 96 -23 165 -68 205c-45 42 -118 62 -219 62c-87 0 -150 -24 -188 -72c-39 -49 -58 -121 -58 -216h-50c0 225 99 338 296 338zM329 226c41 43 62 96 62 159c0 23 -2 45 -7 68l49 10c5 -25 8 -51 8 -79c0 -77 -26 -142 -77 -193z" />
    <glyph glyph-name="uniE621" unicode="&#xe621;" horiz-adv-x="708" 
d="M513 323c0 88 -33 155 -98 201c-65 45 -150 68 -253 68v50c53 0 103 -6 150 -18c47 -13 89 -31 127 -56s68 -58 90 -100s33 -90 33 -145s-11 -104 -34 -146c-22 -42 -52 -75 -90 -100c-39 -25 -81 -43 -128 -55c-46 -12 -95 -18 -148 -18v51c45 0 88 5 128 15
c40 9 77 24 112 44c34 19 61 47 81 83s30 78 30 126z" />
    <glyph glyph-name="uniE622" unicode="&#xe622;" horiz-adv-x="833" 
d="M500 -4c-82 0 -150 31 -205 93s-85 135 -90 219h-160v50h160c5 84 35 157 91 220c54 62 123 93 204 93c86 0 157 -34 212 -103s83 -147 83 -235s-28 -166 -83 -235c-55 -68 -126 -102 -212 -102zM500 621c-67 0 -125 -28 -174 -85c-48 -56 -72 -124 -72 -203
s24 -146 72 -203c49 -56 107 -84 174 -84s125 28 173 84s72 124 72 203s-24 147 -72 203c-48 57 -106 85 -173 85z" />
    <glyph glyph-name="uniE623" unicode="&#xe623;" horiz-adv-x="833" 
d="M579 390c-42 0 -84 7 -127 22c0 -3 -1 -5 -2 -8l-3 -18c-1 -1 -1 -2 -1 -4c-1 -2 -1 -3 -1 -4l-3 -31v-1l-1 -2v-1l336 -368h-724l339 369c-1 16 -5 39 -10 68c-43 -15 -82 -22 -119 -22h-8l-14 1c-50 4 -89 23 -115 57c-28 35 -43 80 -48 135v3l-1 8v3v15l1 18l17 5
c25 7 48 11 69 13l17 1h18c105 0 178 -62 218 -185c17 57 44 102 81 135s83 50 138 50h18l35 -3c15 -1 32 -5 51 -11l17 -5l1 -18v-15c0 -55 -14 -102 -43 -140s-68 -60 -117 -65l-3 -1h-2zM464 456c37 -13 70 -19 100 -19h12l11 1h3l6 2h3c33 5 59 21 77 48
c19 26 29 59 31 99v5l-11 2l-15 3l-29 3h-15c-84 0 -142 -48 -173 -144zM370 456c-30 96 -87 144 -171 144h-16l-29 -3l-15 -3l-12 -2v-5c7 -76 36 -123 87 -142l21 -5l23 -3h12c29 0 62 6 100 19zM417 296l-250 -271h497z" />
    <glyph glyph-name="uniE624" unicode="&#xe624;" horiz-adv-x="833" 
d="M792 463v-50h-89c6 -29 9 -59 9 -90c0 -45 -7 -90 -22 -133c-15 -44 -35 -84 -62 -118c-27 -36 -60 -64 -100 -86c-41 -21 -85 -32 -132 -32c-63 0 -119 18 -168 55s-86 83 -112 139c-24 55 -37 114 -37 175c0 45 7 90 23 133c14 44 35 84 62 118c27 36 60 64 100 86
c41 21 85 32 132 32c66 0 126 -22 179 -66c53 -43 91 -98 114 -163h103zM396 642c-52 0 -99 -16 -142 -49s-75 -76 -98 -130h479c-22 54 -54 97 -97 130s-90 49 -142 49zM129 323c0 -88 26 -163 79 -225c52 -63 115 -94 188 -94s136 31 188 94c52 62 78 137 78 225
c0 31 -4 61 -11 90h-511c-7 -29 -11 -59 -11 -90z" />
    <glyph glyph-name="uniE625" unicode="&#xe625;" horiz-adv-x="833" 
d="M737 650v-671h-49v183h-247v-179h-49v179h-246v-183h-50v671h641zM146 600v-388h542v388h-542z" />
    <glyph glyph-name="uniE626" unicode="&#xe626;" horiz-adv-x="833" 
d="M417 292l-230 -307l-40 30l220 293h-305v50h305l-220 294l40 29l230 -306l229 306l40 -29l-220 -294h305v-50h-305l220 -293l-40 -30z" />
    <glyph glyph-name="uniE627" unicode="&#xe627;" horiz-adv-x="833" 
d="M245 -20l-31 40l391 314l-391 313l31 39l441 -352z" />
    <glyph glyph-name="uniE628" unicode="&#xe628;" horiz-adv-x="708" 
d="M355 101l-257 385l41 28l215 -323l215 323l42 -28z" />
    <glyph glyph-name="uniE629" unicode="&#xe629;" horiz-adv-x="833" 
d="M250 82c-35 0 -66 10 -92 32c-28 20 -48 46 -63 76c-15 31 -27 66 -36 106c-9 41 -15 77 -18 109s-4 64 -4 95h50c0 -23 1 -48 3 -76c2 -26 6 -58 14 -94c6 -37 16 -69 27 -97s27 -52 48 -71c21 -20 44 -30 71 -30c20 0 43 17 68 51c18 24 44 69 78 134s60 111 79 136
c35 48 71 72 108 72c31 0 58 -7 83 -21c24 -13 44 -32 58 -57c16 -25 28 -51 38 -79c10 -27 17 -58 22 -92s8 -64 10 -90c1 -25 2 -52 2 -79h-50c0 22 0 43 -2 64c0 21 -3 46 -6 77c-3 30 -9 57 -16 82c-8 25 -18 48 -29 72c-11 22 -27 40 -45 54c-20 12 -41 19 -65 19
c-20 0 -43 -17 -68 -51c-19 -25 -45 -70 -79 -136c-34 -65 -60 -110 -78 -135c-35 -47 -71 -71 -108 -71z" />
    <glyph glyph-name="uniE62A" unicode="&#xe62a;" horiz-adv-x="833" 
d="M712 -25h-591v675h591v-675zM171 25h491v575h-491v-575z" />
    <glyph glyph-name="uniE62B" unicode="&#xe62b;" horiz-adv-x="833" 
d="M692 604c0 -75 -18 -143 -54 -202c-36 -60 -83 -101 -142 -122l281 -305h-725l283 306c-58 23 -105 64 -140 123c-35 58 -53 125 -53 200v25h550v-25zM641 579h-449c4 -68 26 -129 67 -182s93 -80 158 -80c64 0 116 27 157 81c41 53 63 114 67 181zM417 266
c-5 0 -14 1 -26 2l-224 -243h496l-224 242c-5 -1 -12 -1 -22 -1z" />
    <glyph glyph-name="uniE62C" unicode="&#xe62c;" horiz-adv-x="833" 
d="M469 448c0 -15 -5 -27 -15 -37s-22 -15 -37 -15s-27 5 -37 15s-15 22 -15 37c0 14 5 26 15 36c10 11 22 16 37 16s27 -5 37 -16c10 -10 15 -22 15 -36zM771 162h-708v50h708v-50z" />
    <glyph glyph-name="uniE62D" unicode="&#xe62d;" horiz-adv-x="833" 
d="M254 -21h-18l-212 212l35 35l145 -145v242c0 56 11 110 32 162c22 52 55 96 100 132s96 54 153 54s108 -18 153 -54s78 -80 100 -132s33 -106 33 -162v-344h-50v344c0 82 -23 152 -69 211c-47 58 -102 87 -167 87s-120 -29 -166 -87c-46 -59 -69 -129 -69 -211v-344z" />
    <glyph glyph-name="uniE62E" unicode="&#xe62e;" horiz-adv-x="833" 
d="M417 37c-58 0 -115 11 -170 34s-102 57 -141 103c-39 47 -58 100 -58 159c0 37 7 71 22 103c15 33 34 60 59 84c25 22 53 42 85 59s65 29 100 37c35 9 69 13 103 13c58 0 115 -11 170 -34s102 -57 141 -103c38 -47 57 -100 57 -159c0 -45 -11 -87 -33 -126
c-23 -39 -52 -70 -88 -94s-75 -43 -118 -56s-86 -20 -129 -20zM417 579c-88 0 -163 -24 -225 -73c-63 -48 -94 -106 -94 -173s31 -125 94 -173c62 -49 137 -73 225 -73s163 24 225 73c62 48 93 106 93 173s-31 125 -93 173c-62 49 -137 73 -225 73zM469 333
c0 -14 -5 -26 -15 -37c-10 -10 -22 -15 -37 -15s-27 5 -37 15c-10 11 -15 23 -15 37c0 15 5 27 15 37s22 15 37 15s27 -5 37 -15s15 -22 15 -37z" />
    <glyph glyph-name="uniE62F" unicode="&#xe62f;" horiz-adv-x="833" 
d="M79 650h50v-333c0 -79 28 -147 85 -203c56 -57 124 -85 203 -85s146 28 203 85c56 56 84 124 84 203v333h50v-333c0 -93 -33 -173 -99 -239s-145 -99 -238 -99s-173 33 -239 99s-99 146 -99 239v333z" />
    <glyph glyph-name="uniE630" unicode="&#xe630;" horiz-adv-x="833" 
d="M417 -46c-102 0 -189 36 -261 108s-108 159 -108 261c0 101 36 188 108 261c73 72 160 108 261 108s188 -36 260 -108c72 -73 108 -160 108 -261c0 -102 -36 -189 -107 -261c-72 -72 -159 -108 -261 -108zM392 640c-76 -6 -142 -35 -196 -88c-56 -53 -87 -117 -96 -193
h292v281zM733 359c-9 76 -40 140 -95 193s-120 82 -196 88v-281h291zM98 309c4 -81 34 -150 90 -207c55 -58 123 -90 204 -97v304h-294zM442 5c80 7 148 39 204 97c57 58 86 127 89 207h-293v-304z" />
    <glyph glyph-name="uniE631" unicode="&#xe631;" horiz-adv-x="833" 
d="M417 -46c-46 0 -90 12 -131 38c-41 24 -62 59 -62 102c0 29 11 55 34 79c-51 22 -94 55 -128 99s-51 92 -51 145c0 42 10 81 31 117c20 35 46 64 80 86c32 23 69 40 108 53c40 13 80 19 119 19c40 0 80 -6 119 -19s75 -30 108 -53s59 -52 80 -88c20 -35 30 -74 30 -115
c0 -54 -17 -103 -50 -146c-34 -43 -77 -76 -129 -98c23 -24 34 -50 34 -79c0 -43 -20 -78 -61 -102c-41 -26 -84 -38 -131 -38zM417 642c-79 0 -147 -22 -203 -66c-57 -44 -85 -97 -85 -159s28 -115 85 -159c56 -44 124 -66 203 -66s147 22 203 66s84 97 84 159
s-28 115 -84 159s-124 66 -203 66zM417 4c35 0 67 8 97 24c30 17 45 39 45 66c0 23 -13 43 -39 61c-32 -9 -66 -13 -103 -13s-72 4 -104 13c-26 -18 -39 -38 -39 -61c0 -27 15 -48 46 -65c30 -17 62 -25 97 -25z" />
    <glyph glyph-name="uniE632" unicode="&#xe632;" horiz-adv-x="833" 
d="M693 485c41 -57 61 -122 61 -193c0 -93 -33 -173 -99 -239s-145 -99 -238 -99s-173 33 -239 99s-99 146 -99 239c0 71 20 136 61 193c-69 59 -103 127 -103 203h50c0 -63 28 -117 84 -164l2 2l3 3l2 1c66 66 146 99 239 99s172 -33 238 -99l7 -6c56 47 84 101 84 164h50
c0 -78 -34 -146 -103 -203zM417 579c-79 0 -147 -28 -203 -84c-57 -56 -85 -124 -85 -203c0 -80 28 -148 84 -204s124 -84 204 -84c79 0 147 28 203 84c56 57 84 125 84 204s-28 146 -84 202c-56 57 -124 85 -203 85z" />
    <glyph glyph-name="uniE633" unicode="&#xe633;" horiz-adv-x="833" 
d="M775 -21h-50v333c0 81 -31 150 -92 205s-133 83 -216 83s-155 -28 -217 -82c-61 -56 -92 -124 -92 -206v-333h-50v333c0 96 36 176 107 241s155 97 252 97s181 -32 251 -98c72 -64 107 -145 107 -240v-333zM417 37c-67 0 -125 24 -173 71c-47 48 -71 106 -71 173
c0 68 24 126 71 173s105 71 173 71c67 0 125 -24 172 -71c47 -48 71 -106 71 -173s-24 -125 -72 -173c-47 -47 -104 -71 -171 -71zM417 475c-54 0 -100 -19 -137 -57c-38 -37 -57 -83 -57 -137s19 -100 57 -137c37 -38 83 -57 137 -57s100 19 137 57c37 37 56 83 56 137
s-19 100 -56 137c-37 38 -83 57 -137 57z" />
    <glyph glyph-name="uniE634" unicode="&#xe634;" horiz-adv-x="833" 
d="M431 79c-57 0 -108 13 -153 39c-44 25 -80 59 -107 100v-239h-50v417c3 83 34 153 95 210s132 86 215 86c85 0 157 -30 219 -90c60 -59 91 -131 91 -216s-31 -157 -91 -217c-62 -60 -134 -90 -219 -90zM431 642c-69 0 -130 -24 -181 -74c-52 -48 -78 -108 -79 -177v-5
c0 -71 25 -131 77 -182c50 -50 112 -75 183 -75s133 25 183 75c52 51 77 111 77 182s-26 131 -77 181s-112 75 -183 75z" />
    <glyph glyph-name="uniE635" unicode="&#xe635;" horiz-adv-x="833" 
d="M417 17c-74 0 -139 21 -196 62h-134v-100h-50v150h128c-57 63 -86 138 -86 225c0 93 33 173 99 239s146 99 239 99s172 -33 238 -99s99 -146 99 -239c0 -87 -29 -162 -86 -225h128v-150h-50v100h-133c-58 -41 -123 -62 -196 -62zM417 642c-79 0 -147 -28 -203 -84
c-57 -57 -85 -125 -85 -204c0 -80 28 -148 84 -204c56 -55 124 -83 204 -83c79 0 147 28 203 84s84 124 84 203s-28 147 -84 204c-57 56 -124 84 -203 84z" />
    <glyph glyph-name="uniE636" unicode="&#xe636;" horiz-adv-x="833" 
d="M692 629c0 -68 -15 -130 -45 -187c-30 -56 -70 -97 -119 -122c109 -39 164 -124 164 -257v-84h-50v84c0 25 -3 49 -8 72c-6 23 -16 46 -31 71s-38 44 -70 60c-32 14 -71 22 -118 22s-86 -8 -118 -22c-32 -16 -55 -35 -70 -60s-25 -48 -31 -71c-5 -23 -8 -47 -8 -72v-84
h-20l-144 150l36 34l78 -81c7 124 62 204 165 239c-49 26 -88 67 -117 123s-44 118 -44 185v25h550v-25zM417 342c64 0 116 27 157 80c41 54 63 115 67 182h-449c4 -68 26 -129 67 -182s93 -80 158 -80z" />
    <glyph glyph-name="uniE637" unicode="&#xe637;" horiz-adv-x="833" 
d="M417 -46c-102 0 -189 36 -261 108s-108 159 -108 261c0 101 36 188 108 261c73 72 160 108 261 108s188 -36 260 -108c72 -73 108 -160 108 -261c0 -102 -36 -189 -107 -261c-72 -72 -159 -108 -261 -108zM417 642c-88 0 -163 -31 -225 -94c-63 -62 -94 -137 -94 -225
s31 -163 94 -225c62 -63 137 -94 225 -94s163 31 225 94c62 62 93 137 93 225s-31 163 -93 225c-62 63 -137 94 -225 94zM546 293l-81 -100l-39 31l88 109l-88 110l39 31l81 -101l80 101l39 -31l-87 -110l87 -109l-39 -31zM287 293l-80 -100l-39 31l87 109l-87 110l39 31
l80 -101l81 101l39 -31l-88 -110l88 -109l-39 -31z" />
    <glyph glyph-name="uniE638" unicode="&#xe638;" horiz-adv-x="833" 
d="M729 -25h-379v675h379v-50h-329v-575h329v-50zM229 312c0 -15 -5 -27 -15 -37s-22 -15 -37 -15c-14 0 -26 5 -37 15c-10 10 -15 22 -15 37s5 27 15 38c11 10 23 15 37 15c15 0 27 -5 37 -15c10 -11 15 -23 15 -38z" />
    <glyph glyph-name="uniE639" unicode="&#xe639;" horiz-adv-x="833" 
d="M417 -46c-83 0 -155 29 -216 87s-91 128 -91 211c0 43 8 82 25 118c-29 12 -53 31 -71 57s-27 55 -27 87c0 43 16 80 47 110c32 32 70 47 114 47c39 0 74 -12 103 -37c29 -24 48 -54 55 -91c20 4 40 6 61 6c20 0 40 -2 60 -6c7 37 26 67 55 91c29 25 64 37 103 37
c44 0 82 -15 113 -47c32 -30 48 -67 48 -110c0 -32 -9 -61 -28 -87c-18 -26 -42 -45 -71 -57c17 -38 26 -77 26 -118c0 -83 -30 -154 -91 -212c-60 -57 -132 -86 -215 -86zM198 621c-31 0 -57 -11 -78 -31c-22 -22 -33 -47 -33 -76s11 -54 33 -75c21 -21 47 -31 78 -31
s57 10 78 31s32 46 32 75s-11 54 -32 76c-21 20 -47 31 -78 31zM635 621c-31 0 -57 -11 -78 -31c-21 -22 -32 -47 -32 -76s11 -54 32 -75s47 -31 78 -31s57 10 79 31c21 21 32 46 32 75s-11 54 -32 76c-22 20 -48 31 -79 31zM198 358h-13c-17 -35 -25 -70 -25 -106
c0 -69 25 -128 76 -176s111 -72 181 -72s130 24 181 72c50 48 75 107 75 176c0 36 -8 71 -25 106h-13c-40 0 -75 13 -105 38c-31 26 -49 58 -54 96c-19 5 -38 7 -59 7s-41 -2 -60 -7c-5 -38 -23 -70 -53 -96c-31 -25 -66 -38 -106 -38zM469 135c0 -15 -5 -27 -15 -37
s-22 -15 -37 -15s-27 5 -37 15s-15 22 -15 37c0 14 5 26 15 37c11 11 23 16 37 16s26 -5 37 -16c10 -11 15 -23 15 -37z" />
    <glyph glyph-name="uniE63A" unicode="&#xe63a;" horiz-adv-x="833" 
d="M301 -25c-65 0 -127 11 -185 33c-11 4 -16 12 -16 23c0 6 2 11 6 17c3 4 8 7 13 8c69 16 129 48 180 95s76 105 76 172s-25 124 -76 171c-51 48 -111 80 -180 96c-13 3 -19 11 -19 24c0 12 5 20 16 24c58 22 120 33 185 33c69 0 135 -13 200 -39s119 -66 165 -121
c44 -55 67 -117 67 -188c0 -96 -43 -179 -128 -248c-84 -67 -185 -100 -304 -100zM210 33c26 -5 56 -8 91 -8c105 0 195 29 270 87c75 59 112 129 112 211s-37 152 -112 211c-75 58 -165 87 -270 87c-31 0 -62 -3 -91 -9c62 -27 113 -66 154 -117s61 -109 61 -172
c0 -65 -20 -123 -59 -172c-40 -49 -92 -89 -156 -118z" />
    <glyph glyph-name="uniE63B" unicode="&#xe63b;" horiz-adv-x="833" 
d="M625 338c-47 0 -88 16 -121 48c-33 33 -50 72 -50 118s17 85 50 118s74 49 121 49s88 -16 121 -49s50 -72 50 -118c0 -31 -8 -60 -26 -87c-16 -27 -39 -47 -67 -61c13 -34 20 -69 20 -104c0 -83 -30 -154 -91 -212c-60 -57 -132 -86 -215 -86s-155 29 -216 87
s-91 128 -91 211c0 35 7 70 20 104c-28 14 -50 34 -68 61c-16 27 -25 56 -25 87c0 46 17 85 50 118s74 49 121 49s88 -16 121 -49s50 -72 50 -118s-17 -85 -50 -118c-33 -32 -74 -48 -121 -48c-11 0 -21 1 -31 3c-11 -29 -17 -58 -17 -89c0 -69 25 -128 76 -176
s111 -72 181 -72s130 24 181 72c50 48 75 107 75 176c0 31 -6 60 -17 89c-10 -2 -20 -3 -31 -3zM625 621c-33 0 -62 -11 -85 -35c-24 -22 -36 -50 -36 -82s12 -59 36 -82c23 -23 52 -34 85 -34s62 11 85 34c24 23 36 50 36 82s-12 60 -36 82c-23 24 -52 35 -85 35zM208 621
c-33 0 -62 -11 -86 -35c-23 -22 -35 -50 -35 -82s12 -59 35 -82c24 -23 53 -34 86 -34s62 11 86 34c23 23 35 50 35 82s-12 60 -35 82c-24 24 -53 35 -86 35z" />
    <glyph glyph-name="uniE63C" unicode="&#xe63c;" horiz-adv-x="833" 
d="M441 -21h-49v667h49v-667zM692 -21h-50v667h50v-667zM192 -21h-50v667h50v-667z" />
    <glyph glyph-name="uniE63D" unicode="&#xe63d;" horiz-adv-x="833" 
d="M771 212v-50h-184v-183h-50v183h-241v-183h-50v183h-183v50h183v221h-183v50h183v163h50v-163h241v163h50v-163h184v-50h-184v-221h184zM296 433v-221h241v221h-241z" />
    <glyph glyph-name="uniE63E" unicode="&#xe63e;" horiz-adv-x="833" 
d="M753 607c0 -7 -3 -13 -7 -18c-6 -5 -11 -7 -18 -7c-4 0 -8 1 -12 3c-72 38 -164 57 -277 57c-92 0 -172 -30 -239 -92c-68 -60 -102 -136 -102 -227s34 -167 102 -227c67 -62 147 -92 239 -92c79 0 146 23 202 69s84 102 84 167s-28 120 -83 166c-56 46 -124 69 -203 69
c-51 0 -94 -15 -129 -45c-36 -29 -54 -65 -54 -107s18 -78 54 -107c35 -30 78 -45 129 -45c24 0 44 8 61 23s25 34 25 56s-8 41 -25 56s-37 23 -61 23c-7 0 -13 3 -17 7c-6 6 -8 11 -8 18s2 12 8 18c4 4 10 7 17 7c37 0 69 -13 96 -37c27 -26 40 -56 40 -92
c0 -35 -13 -66 -40 -91s-59 -38 -96 -38c-61 0 -115 19 -162 57s-71 86 -71 145s24 107 72 145c47 38 101 57 161 57c55 0 108 -11 159 -33c51 -23 93 -56 126 -100c34 -45 51 -95 51 -152c0 -43 -10 -82 -29 -119c-20 -37 -46 -67 -78 -91s-68 -43 -108 -56
s-80 -20 -121 -20c-69 0 -133 16 -193 47c-59 31 -107 75 -144 133c-36 56 -54 120 -54 189c0 52 11 101 32 147s50 85 86 118c36 32 78 57 125 76s97 28 148 28c121 0 221 -21 300 -63c9 -4 14 -11 14 -22z" />
    <glyph glyph-name="uniE63F" unicode="&#xe63f;" horiz-adv-x="833" 
d="M704 248l-34 -36l-229 211v-423h-49v423l-229 -211l-34 36l263 243v174h49v-174z" />
    <glyph glyph-name="uniE640" unicode="&#xe640;" horiz-adv-x="833" 
d="M754 0h-50v333c0 79 -28 147 -84 203c-56 57 -124 85 -203 85c-80 0 -148 -28 -204 -84s-84 -124 -84 -204v-333h-50v333c0 93 33 173 99 239s146 99 239 99s172 -33 238 -99s99 -146 99 -239v-333z" />
    <glyph glyph-name="uniE641" unicode="&#xe641;" horiz-adv-x="833" 
d="M725 231l-308 -264l-308 264l32 38l251 -215v611h49v-611l251 215z" />
    <glyph glyph-name="uniE642" unicode="&#xe642;" horiz-adv-x="833" 
d="M677 100h-521c-30 0 -56 10 -76 32c-22 20 -32 46 -32 76v209c0 30 10 55 32 77c20 20 46 31 76 31h521c30 0 55 -11 77 -31c20 -22 31 -47 31 -77v-209c0 -30 -11 -56 -31 -76c-22 -22 -47 -32 -77 -32zM156 475c-16 0 -30 -6 -41 -17s-17 -25 -17 -41v-209
c0 -16 6 -30 17 -41s25 -17 41 -17h521c16 0 30 6 41 17s17 25 17 41v209c0 16 -6 30 -17 41s-25 17 -41 17h-521z" />
    <glyph glyph-name="uniE643" unicode="&#xe643;" horiz-adv-x="833" 
d="M796 167c0 -63 -19 -110 -57 -143s-90 -49 -156 -49h-504v691h50v-641h454c109 0 163 47 163 142c0 57 -19 102 -56 136s-85 51 -143 51h-93v312h50v-262h43c72 0 131 -22 179 -66c46 -44 70 -101 70 -171z" />
    <glyph glyph-name="uniE644" unicode="&#xe644;" horiz-adv-x="708" 
d="M379 292h-50v374h50v-374zM354 -25c-33 0 -60 11 -84 35c-22 22 -34 51 -34 84s11 61 34 84s51 34 84 34s62 -12 84 -34c24 -24 35 -51 35 -84s-11 -62 -35 -84c-22 -24 -51 -35 -84 -35zM354 162c-19 0 -36 -7 -49 -20s-20 -29 -20 -48s7 -35 21 -48
c13 -14 29 -21 48 -21s35 7 48 21c14 13 21 29 21 48s-7 35 -20 48s-30 20 -49 20z" />
    <glyph glyph-name="uniE645" unicode="&#xe645;" horiz-adv-x="833" 
d="M743 502v-15c0 -15 -4 -33 -13 -52s-19 -36 -31 -49c-2 -3 -5 -6 -8 -8c34 -27 51 -75 51 -144c0 -31 -11 -62 -34 -94c-22 -30 -51 -58 -86 -82c-36 -24 -70 -44 -102 -60s-64 -30 -95 -42l-8 -4c-209 79 -319 170 -328 273v16c0 55 20 99 59 131c-34 34 -53 70 -57 107
v3c-1 1 -1 7 -1 18c1 48 17 88 48 122c31 32 70 49 117 49c37 0 69 -7 95 -21c25 -15 48 -38 67 -70c17 27 37 48 59 64c21 14 50 23 85 26h31c33 -2 60 -8 81 -19l10 -7c40 -25 60 -73 60 -142zM279 620h-15c-38 0 -68 -11 -90 -32s-34 -51 -35 -89v-13
c7 -33 23 -63 49 -89c19 9 39 14 60 15h15c40 -3 71 -11 91 -24c22 -13 42 -35 63 -67c21 33 44 57 67 71c23 13 54 20 93 20c29 0 53 -3 73 -10c27 27 41 54 44 83v16c-1 41 -10 72 -28 91c-16 19 -45 29 -85 29h-25c-21 -2 -39 -9 -56 -21c-17 -11 -28 -21 -34 -30
c-6 -8 -16 -23 -31 -46l-18 -27l-19 27c-3 3 -10 13 -22 30c-11 17 -20 28 -25 34c-5 5 -15 12 -28 19s-28 12 -44 13zM696 247c0 67 -26 104 -78 111c-11 3 -26 4 -44 4c-11 0 -22 -1 -32 -2c-9 -2 -18 -5 -26 -10c-8 -4 -15 -8 -20 -11c-6 -3 -12 -9 -18 -17
c-7 -7 -12 -13 -14 -16c-4 -4 -8 -11 -15 -21s-11 -17 -14 -20l-19 -27l-18 27c-4 5 -10 14 -20 27c-8 13 -16 23 -20 28c-6 5 -13 12 -22 20c-10 9 -21 14 -32 18c-12 2 -26 4 -42 4h-12c-33 -2 -58 -14 -78 -34c-18 -22 -29 -49 -32 -83v-6v-13c4 -24 16 -48 35 -70
c19 -24 43 -44 73 -63c28 -19 55 -34 79 -47c24 -12 49 -23 74 -34h1l2 -1l13 -5c5 2 11 5 21 8c8 4 14 6 17 7c41 17 85 41 132 71c35 25 62 48 81 71s28 51 28 84z" />
    <glyph glyph-name="uniE646" unicode="&#xe646;" horiz-adv-x="833" 
d="M458 654c90 0 165 -32 226 -98c61 -64 91 -142 91 -233c0 -90 -31 -168 -91 -233c-62 -65 -137 -98 -226 -98h-375v50h208c-48 31 -85 71 -111 120c-25 50 -38 104 -38 161c0 90 30 168 91 233s136 98 225 98zM458 42c75 0 138 28 190 84c51 56 77 122 77 197
s-26 141 -77 197c-52 56 -115 84 -190 84s-138 -28 -190 -84c-50 -55 -76 -121 -76 -197s26 -142 76 -197c52 -56 115 -84 190 -84z" />
    <glyph glyph-name="uniE647" unicode="&#xe647;" horiz-adv-x="833" 
d="M712 646v-671h-591v671h50v-371h491v371h50zM171 25h491v200h-491v-200z" />
    <glyph glyph-name="uniE648" unicode="&#xe648;" horiz-adv-x="833" 
d="M712 650v-675h-591v675h591zM171 600v-575h191l142 285h-252l165 290h-246zM413 25h249v575h-192l-139 -244h248z" />
    <glyph glyph-name="uniE649" unicode="&#xe649;" horiz-adv-x="833" 
d="M537 317c103 -40 155 -125 155 -254v-84h-50v84c0 25 -3 49 -8 72c-6 23 -16 46 -31 71s-38 44 -70 60c-32 14 -71 22 -118 22s-86 -8 -118 -22c-32 -16 -55 -35 -70 -60s-25 -48 -31 -71c-5 -23 -8 -47 -8 -72v-84h-20l-144 150l36 34l78 -81c7 119 59 198 157 235
c-33 17 -59 41 -81 69c-20 30 -31 64 -31 103c0 59 24 108 71 146c48 38 102 57 163 57c60 0 114 -19 161 -58c48 -38 72 -86 72 -145c0 -39 -11 -74 -32 -103c-21 -30 -48 -53 -81 -69zM233 489c0 -42 18 -78 54 -107c36 -30 79 -45 130 -45s94 15 129 45
c36 29 54 65 54 107s-18 78 -54 108c-35 30 -78 45 -129 45s-94 -15 -130 -45s-54 -66 -54 -108z" />
    <glyph glyph-name="uniE64A" unicode="&#xe64a;" horiz-adv-x="833" 
d="M417 671c61 0 115 -21 161 -61c45 -42 68 -89 68 -144v-304c0 -57 -24 -106 -72 -146c-47 -42 -100 -62 -157 -62c-58 0 -111 20 -158 61s-71 90 -71 147v304c0 55 23 102 68 144c46 40 100 61 161 61zM417 621c-44 0 -85 -15 -123 -45c-37 -30 -56 -67 -56 -110v-304
c0 -44 19 -81 56 -112s78 -46 123 -46c44 0 85 16 123 47c37 31 56 68 56 111v304c0 43 -19 79 -57 110c-38 30 -79 45 -122 45z" />
    <glyph glyph-name="uniE64B" unicode="&#xe64b;" horiz-adv-x="833" 
d="M435 441l-18 -18l-17 18c-36 35 -74 68 -116 99c-40 30 -72 51 -94 64c-21 13 -33 19 -35 19l22 45c6 0 33 -16 81 -48c53 -35 106 -77 159 -127c53 50 105 92 158 127c48 32 75 48 81 48l22 -45c-2 0 -14 -6 -36 -19c-21 -13 -52 -34 -93 -64c-41 -31 -79 -64 -114 -99z
M435 212l-18 -18l-17 18c-17 16 -34 32 -52 48c-17 15 -34 29 -50 40c-15 12 -30 23 -45 34c-15 10 -28 19 -39 26c-12 7 -22 14 -31 18c-9 6 -16 9 -21 12l-7 4l22 45l10 -5c7 -3 17 -9 30 -17s27 -17 41 -26c53 -35 106 -77 159 -127c53 50 105 92 158 127
c14 9 28 18 41 26s23 14 30 17l10 5l22 -45l-4 -2c-3 -2 -8 -4 -13 -8c-5 -2 -12 -6 -19 -11c-8 -5 -17 -10 -26 -16c-10 -6 -20 -13 -30 -20c-11 -7 -22 -16 -34 -25c-13 -9 -25 -19 -38 -29s-26 -21 -40 -33c-13 -13 -26 -25 -39 -38zM417 -35l-17 17
c-17 16 -34 32 -52 48c-17 15 -34 29 -50 40c-15 12 -30 23 -45 34s-28 20 -39 26c-12 8 -22 14 -31 19s-16 9 -21 12l-7 4l22 45l10 -5c7 -3 17 -9 30 -17s27 -17 41 -26c53 -35 106 -77 159 -127c53 50 105 92 158 127c14 9 28 18 41 26s23 14 30 17l10 5l22 -45l-4 -3
c-3 -1 -8 -4 -13 -6c-5 -4 -12 -7 -19 -12c-8 -5 -17 -10 -26 -16c-10 -6 -20 -13 -30 -20c-11 -7 -22 -16 -34 -25c-13 -9 -25 -19 -38 -29s-26 -21 -40 -34c-13 -12 -26 -24 -39 -37z" />
    <glyph glyph-name="uniE64C" unicode="&#xe64c;" horiz-adv-x="833" 
d="M441 500h-49v188h49v-188zM624 422l-40 30l104 140l40 -30zM209 422l-104 140l40 30l104 -140zM417 371c-67 0 -122 -18 -163 -54s-62 -86 -62 -150v-188h-19l-149 149l35 36l83 -83v86c0 77 26 139 76 185c52 46 118 69 199 69s147 -23 199 -69c50 -46 76 -108 76 -185
v-188h-50v188c0 64 -21 114 -62 150s-96 54 -163 54z" />
    <glyph glyph-name="uniE64D" unicode="&#xe64d;" horiz-adv-x="833" 
d="M750 -25h-567v671h50v-621h517v-50z" />
    <glyph glyph-name="uniE64E" unicode="&#xe64e;" horiz-adv-x="833" 
d="M443 -14l-26 -14l-11 5c-5 3 -15 8 -30 16s-27 14 -35 19c-193 111 -295 232 -304 365v25c0 61 15 116 45 164c29 47 72 75 129 83h5h2l3 1h1h10c49 0 87 -12 114 -38c27 -24 51 -59 71 -104c17 41 38 73 61 96c24 24 57 39 98 44h4l7 2h4h26c113 -6 171 -80 176 -222
v-38c0 -35 -8 -70 -23 -106c-15 -34 -35 -66 -58 -94c-24 -27 -52 -54 -85 -82c-33 -26 -63 -49 -93 -68c-28 -19 -59 -37 -91 -54zM88 400v-18c1 -1 1 -1 1 -2v-4c3 -36 16 -72 39 -109s51 -70 85 -100s68 -57 102 -79c34 -24 68 -43 102 -60c64 35 117 69 160 100
c43 32 82 71 117 116c11 17 20 31 26 42c7 11 13 26 19 45s9 39 9 59v18c-2 29 -5 52 -8 71s-9 37 -16 56c-8 19 -20 33 -35 43c-15 11 -34 17 -57 20c-8 1 -14 2 -17 2h-25c-31 -4 -55 -13 -72 -26s-33 -33 -47 -59c-5 -7 -11 -19 -19 -34c-7 -15 -13 -26 -17 -33l-20 -34
l-17 34c-5 8 -12 22 -22 41c-9 19 -17 34 -24 43s-16 20 -27 33s-25 22 -40 27s-33 8 -54 8h-11h-1l-1 -1c-42 -5 -74 -27 -96 -66s-33 -81 -33 -127l-1 -4v-2z" />
    <glyph glyph-name="uniE64F" unicode="&#xe64f;" horiz-adv-x="833" 
d="M417 678l376 -703h-753zM417 572l-103 -190l103 -141l101 141zM573 25h137l-168 312l-97 -135zM290 337l-167 -312h137l128 177zM417 163l-100 -138h199z" />
    <glyph glyph-name="uniE650" unicode="&#xe650;" horiz-adv-x="833" 
d="M666 23v-46h-499v46h227v558h-227v46h499v-46h-227v-558h227z" />
    <glyph glyph-name="uniE651" unicode="&#xe651;" horiz-adv-x="833" 
d="M708 314v-45h-267v-121h267v-46h-267v-123h-49v123h-267v46h267v121h-267v45h267v121h-267v46h267v207h49v-207h267v-46h-267v-121h267zM271 635c0 -15 -5 -27 -15 -37c-11 -10 -23 -15 -37 -15c-15 0 -27 5 -37 15s-15 22 -15 37c0 14 5 26 15 37c11 11 23 16 37 16
s26 -5 37 -16c10 -11 15 -23 15 -37zM666 635c0 -15 -5 -27 -15 -37s-22 -15 -37 -15c-14 0 -26 5 -36 15c-11 10 -16 22 -16 37c0 14 5 26 16 37c10 11 22 16 36 16s26 -5 36 -16c11 -11 16 -23 16 -37z" />
    <glyph glyph-name="uniE652" unicode="&#xe652;" horiz-adv-x="833" 
d="M646 37h-571v546h50v-496h471v496h50v-546zM796 333c0 -14 -5 -26 -16 -37c-10 -10 -22 -15 -36 -15c-15 0 -27 5 -37 15c-10 11 -15 23 -15 37c0 15 5 27 15 37s22 15 37 15c14 0 26 -5 36 -15c11 -10 16 -22 16 -37z" />
    <glyph glyph-name="uniE653" unicode="&#xe653;" horiz-adv-x="833" 
d="M712 -25h-591v671h50v-621h491v621h50v-671z" />
    <glyph glyph-name="uniE654" unicode="&#xe654;" horiz-adv-x="833" 
d="M417 79c-75 0 -141 22 -201 66c-58 44 -103 99 -133 166s-45 137 -45 210h49c0 -108 32 -200 97 -277s142 -115 233 -115s168 38 233 115c64 77 96 169 96 277h49c0 -122 -36 -226 -109 -311c-75 -87 -164 -131 -269 -131z" />
    <glyph glyph-name="uniE655" unicode="&#xe655;" horiz-adv-x="833" 
d="M733 671v-696h-633v696h633zM150 621v-596h533v596h-533zM437 596v-93h-41v93h41zM629 513l-62 -62l-30 29l62 62zM295 480l-29 -29l-62 62l30 29zM417 471c53 0 98 -19 136 -57c38 -39 57 -84 57 -137s-19 -99 -56 -137c-38 -38 -84 -57 -137 -57c-54 0 -100 19 -137 57
c-38 37 -57 83 -57 137s19 100 57 137c37 38 83 57 137 57zM417 429c-42 0 -78 -15 -108 -45c-30 -29 -45 -65 -45 -107s15 -78 45 -107c30 -30 66 -45 108 -45s78 15 107 45c30 29 45 65 45 107s-15 78 -45 107c-29 30 -65 45 -107 45zM536 289c0 -32 -12 -60 -36 -83
c-23 -24 -51 -36 -83 -36c-33 0 -61 12 -85 36c-23 23 -35 51 -35 83h41c0 -21 8 -39 24 -54c15 -15 34 -23 55 -23s39 8 54 23s23 33 23 54h42z" />
    <glyph glyph-name="uniE656" unicode="&#xe656;" horiz-adv-x="833" 
d="M698 454h-563v50h563v-50zM708 142h-583v50h583v-50z" />
    <glyph glyph-name="uniE657" unicode="&#xe657;" horiz-adv-x="833" 
d="M441 231h-49v477h49v-477zM585 155l-45 23l209 390l44 -23zM249 155l-209 390l45 23l208 -390zM469 31c0 -15 -5 -27 -15 -37s-22 -15 -37 -15s-27 5 -37 15s-15 22 -15 37c0 14 5 26 15 37c10 10 22 15 37 15s27 -5 37 -15c10 -11 15 -23 15 -37z" />
    <glyph glyph-name="uniE658" unicode="&#xe658;" horiz-adv-x="833" 
d="M571 562l5 -521h-52l-3 521h-209l-3 -521h-52l5 521h-109v-541h-53l11 591h609l13 -591h-52l-3 541h-107z" />
    <glyph glyph-name="uniE659" unicode="&#xe659;" horiz-adv-x="833" 
d="M183 325c-74 39 -111 88 -111 147c0 57 36 105 107 145c66 36 145 54 238 54c67 0 129 -10 185 -31c58 -20 100 -48 129 -85c21 -27 31 -54 31 -83c0 -27 -8 -51 -23 -74c-15 -22 -35 -40 -60 -55s-49 -27 -75 -36c-24 -9 -50 -17 -75 -22l-2 -1c-25 -5 -46 -14 -62 -24
c-16 -12 -24 -23 -24 -35v-79h-49v79c0 28 13 51 38 71c25 18 55 31 89 38h3c17 3 36 9 56 16s40 16 62 28c20 10 38 24 52 41c13 17 20 34 20 53c0 17 -7 35 -20 52c-26 33 -66 58 -118 74c-54 15 -106 23 -157 23c-85 0 -156 -16 -215 -48c-21 -11 -40 -26 -56 -43
c-16 -18 -24 -37 -24 -58s8 -41 26 -59c16 -18 37 -33 60 -44h1zM469 31c0 -15 -5 -27 -15 -37s-22 -15 -37 -15s-27 5 -37 15s-15 22 -15 37c0 14 5 26 15 37c10 10 22 15 37 15s27 -5 37 -15c10 -11 15 -23 15 -37z" />
    <glyph glyph-name="uniE65A" unicode="&#xe65a;" horiz-adv-x="833" 
d="M754 666v-687h-50v687h50zM70 41c11 -9 20 -14 28 -14c6 0 12 1 17 3c5 3 10 7 15 12c4 6 7 11 10 14c2 3 5 10 8 20c3 9 5 15 6 16c1 2 2 8 5 18c8 34 12 57 13 68l2 23c3 33 5 65 5 95h46l1 -47c3 -83 9 -143 20 -180c3 -10 6 -17 8 -22s6 -9 12 -15c6 -4 13 -7 22 -7
c17 1 29 9 37 23s15 33 20 56c4 18 7 39 9 62c3 23 4 44 5 61s1 41 3 71c0 30 1 52 2 67v15h46c0 -93 4 -173 12 -240c8 -51 17 -84 28 -98c3 -5 6 -8 10 -11c5 -4 14 -6 25 -6c26 3 44 26 53 67c11 39 17 98 18 176c1 53 2 94 2 121v122h50v-183l-1 -62
c-2 -47 -4 -80 -5 -99s-6 -45 -13 -77s-17 -57 -30 -75c-16 -23 -39 -36 -70 -39l-3 -1h-1h-15c-42 5 -70 36 -84 93c-13 -47 -37 -76 -70 -89c-9 -3 -19 -4 -32 -4c-23 0 -41 7 -54 21c-13 15 -23 34 -31 58l-3 9c-21 -57 -54 -85 -101 -85c-18 0 -37 10 -57 30z" />
    <glyph glyph-name="uniE65B" unicode="&#xe65b;" horiz-adv-x="833" 
d="M441 562v-521h-49v521h-246v-541h-53l11 591h625l11 -591h-52v541h-247z" />
    <glyph glyph-name="uniE65C" unicode="&#xe65c;" horiz-adv-x="833" 
d="M417 692c101 0 188 -36 260 -108c72 -73 108 -160 108 -261c0 -102 -36 -189 -107 -261c-72 -72 -159 -108 -261 -108s-189 36 -261 108s-108 159 -108 261c0 101 36 188 108 261c73 72 160 108 261 108zM417 4c88 0 163 31 225 94c62 62 93 137 93 225s-31 163 -93 225
c-62 63 -137 94 -225 94s-163 -31 -225 -94c-63 -62 -94 -137 -94 -225s31 -163 94 -225c62 -63 137 -94 225 -94zM417 504c50 0 93 -18 128 -53s53 -78 53 -128s-18 -93 -53 -128s-78 -53 -128 -53c-51 0 -94 17 -129 52s-52 78 -52 129s18 93 52 129c36 34 78 52 129 52z
M417 192c36 0 67 13 93 38c25 26 38 57 38 93s-13 67 -38 93c-26 25 -57 38 -93 38s-67 -13 -93 -38c-26 -26 -39 -57 -39 -93s13 -67 39 -93c26 -25 57 -38 93 -38z" />
    <glyph glyph-name="uniE65D" unicode="&#xe65d;" horiz-adv-x="833" 
d="M441 292h-49v270h49v-270zM312 121h-249v50h249v-50zM771 121h-250v50h250v-50z" />
    <glyph glyph-name="uniE65E" unicode="&#xe65e;" horiz-adv-x="833" 
d="M171 427c27 41 63 75 107 101c45 25 96 38 153 38c85 0 158 -30 219 -89s91 -132 91 -217s-31 -157 -91 -216c-62 -60 -134 -90 -219 -90c-83 0 -154 29 -215 86s-92 127 -95 210v416h50v-239zM431 516c-71 0 -131 -24 -183 -73c-50 -49 -76 -108 -77 -178v-5
c0 -71 25 -132 77 -182c50 -49 112 -74 183 -74s133 25 183 74c52 50 77 111 77 182s-25 132 -77 182c-50 49 -112 74 -183 74z" />
    <glyph glyph-name="uniE65F" unicode="&#xe65f;" horiz-adv-x="833" 
d="M483 -25h-379v50h329v575h-329v50h379v-675zM604 312c0 15 5 27 15 38c10 10 22 15 37 15s27 -5 37 -15c10 -11 15 -23 15 -38s-5 -27 -15 -37s-22 -15 -37 -15s-27 5 -37 15s-15 22 -15 37z" />
    <glyph glyph-name="uniE660" unicode="&#xe660;" horiz-adv-x="833" 
d="M712 -25h-591v675h591v-675zM171 25h491v575h-491v-575zM312 323c0 -15 -5 -27 -15 -37s-22 -15 -37 -15s-27 5 -37 15s-15 22 -15 37c0 14 5 26 15 37c10 10 22 15 37 15s27 -5 37 -15c10 -11 15 -23 15 -37zM625 323c0 -15 -5 -27 -15 -37s-22 -15 -37 -15
s-27 5 -37 15s-15 22 -15 37c0 14 5 26 15 37c10 10 22 15 37 15s27 -5 37 -15c10 -11 15 -23 15 -37zM469 323c0 -15 -5 -27 -15 -37s-22 -15 -37 -15s-27 5 -37 15s-15 22 -15 37c0 14 5 26 15 37c10 10 22 15 37 15s27 -5 37 -15c10 -11 15 -23 15 -37z" />
    <glyph glyph-name="uniE661" unicode="&#xe661;" horiz-adv-x="833" 
d="M441 625h-49v125h49v-125zM664 566l-36 35l104 104l36 -35zM170 566l-104 104l35 35l104 -104zM692 -25h-550v529h550v-529zM192 25h450v429h-450v-429z" />
    <glyph glyph-name="uniE662" unicode="&#xe662;" horiz-adv-x="833" 
d="M775 417c0 -73 -21 -135 -63 -187c-43 -52 -98 -81 -166 -87v-164h-50v213h25c61 0 111 22 148 66c37 43 56 96 56 159c0 61 -22 111 -66 148s-97 56 -159 56h-354v50h354c76 0 141 -24 194 -71c54 -48 81 -109 81 -183zM521 458c0 -14 -5 -26 -15 -36
c-10 -11 -22 -16 -37 -16s-27 5 -37 16c-10 10 -15 22 -15 36c0 15 5 27 15 37s22 15 37 15s27 -5 37 -15s15 -22 15 -37zM666 458c0 -14 -5 -26 -15 -36c-10 -11 -22 -16 -37 -16c-14 0 -26 5 -36 16c-11 10 -16 22 -16 36c0 15 5 27 16 37c10 10 22 15 36 15
c15 0 27 -5 37 -15s15 -22 15 -37zM407 -21h-50v209h50v-209zM268 -21h-50v209h50v-209zM129 -21h-50v209h50v-209z" />
    <glyph glyph-name="uniE663" unicode="&#xe663;" horiz-adv-x="833" 
d="M417 -49l-24 84c0 1 -2 9 -7 22c-4 13 -12 35 -24 65c-12 31 -26 62 -41 95c-67 144 -152 282 -257 413l39 31c138 -173 243 -354 314 -543c75 196 179 377 313 543l39 -31c-103 -129 -189 -267 -256 -414c-15 -32 -29 -63 -41 -94c-12 -30 -20 -52 -24 -66l-7 -21z" />
    <glyph glyph-name="uniE664" unicode="&#xe664;" horiz-adv-x="833" 
d="M771 341v-50h-91c-7 -63 -32 -117 -77 -162s-99 -70 -162 -77v-93h-49v93c-63 7 -117 32 -162 77s-70 99 -77 162h-90v50h90c7 64 32 118 77 162c44 44 98 69 162 76v87h49v-87c64 -7 118 -32 163 -76c44 -44 69 -98 76 -162h91zM417 531c-59 0 -109 -21 -151 -63
c-43 -43 -64 -93 -64 -152s21 -110 63 -152s93 -63 152 -63s109 21 151 63s63 93 63 152s-21 109 -63 152c-42 42 -92 63 -151 63z" />
    <glyph glyph-name="uniE665" unicode="&#xe665;" horiz-adv-x="833" 
d="M655 454l14 -329h-50l-14 329h-377l-14 -329h-50l14 329h-115v50h708v-50h-116z" />
    <glyph glyph-name="uniE666" unicode="&#xe666;" horiz-adv-x="833" 
d="M310 284l-102 222l-102 -222l-45 21l147 320l148 -320zM727 284l-102 222l-102 -222l-46 21l148 320l148 -320zM469 76c0 -14 -5 -26 -15 -36c-10 -11 -22 -16 -37 -16s-27 5 -37 16c-10 10 -15 22 -15 36c0 15 5 27 15 37s22 15 37 15s27 -5 37 -15s15 -22 15 -37z" />
    <glyph glyph-name="uniE667" unicode="&#xe667;" horiz-adv-x="833" 
d="M746 91l-10 -28l-46 18c1 3 4 11 8 25c6 13 9 23 10 30l3 13c1 3 3 9 3 19c2 8 3 15 5 19c0 1 1 9 3 23l1 8v2l1 5v2l1 19v44c0 5 -1 13 -3 24c-1 11 -2 18 -2 23l-5 22c-17 75 -51 130 -104 165l-9 6c-3 3 -9 6 -20 11l-12 5c-19 7 -42 12 -70 13h-11
c-33 0 -67 -8 -103 -25c-90 -41 -160 -119 -211 -233l161 26l8 -50c-7 -1 -17 -2 -30 -4s-23 -3 -30 -4l-119 -16c-7 -1 -17 -2 -30 -4s-23 -3 -30 -4c-5 23 -14 59 -26 107c-12 50 -21 87 -27 113l49 11l33 -154c0 1 1 3 2 4l4 10l1 2l3 6c1 1 1 1 1 2l12 23
c77 141 183 220 316 237h4l6 1h4h15c39 -2 72 -9 97 -22c0 -1 2 -2 7 -4c4 -2 8 -4 13 -6s7 -3 8 -4c34 -20 63 -48 87 -83c23 -35 39 -75 48 -118l3 -12c5 -23 7 -39 7 -48l1 -11v-3l1 -6v-3v-43l-1 -21c0 -1 0 -3 -1 -5v-5l-1 -9c0 -5 0 -9 -1 -10l-1 -8c0 -1 0 -3 -1 -5
s-1 -3 -1 -4c-7 -33 -14 -62 -21 -86z" />
    <glyph glyph-name="uniE668" unicode="&#xe668;" horiz-adv-x="833" 
d="M604 688v-709h-50v330h-396v50h396v329h50z" />
    <glyph glyph-name="uniE669" unicode="&#xe669;" horiz-adv-x="833" 
d="M771 -25h-164l-196 588l-271 -489l120 -51l-20 -46l-171 73l353 637l221 -662h128v-50z" />
    <glyph glyph-name="uniE66A" unicode="&#xe66a;" horiz-adv-x="833" 
d="M775 587c0 -74 -18 -136 -53 -185c-36 -49 -86 -74 -149 -74c-17 0 -34 3 -50 8c-16 6 -29 12 -40 19s-22 17 -35 31c-12 13 -21 24 -27 32c-6 9 -14 21 -25 38c-13 19 -22 33 -29 42s-16 20 -28 32s-24 20 -37 26c-13 4 -27 7 -42 7c-49 0 -87 -20 -113 -61
c-26 -40 -39 -90 -39 -149v-20h-50v20c0 75 18 137 54 186c35 49 85 74 148 74c22 0 42 -3 60 -11c17 -6 34 -18 49 -32c15 -16 27 -28 35 -39s19 -26 33 -47c17 -25 30 -43 39 -55s23 -23 40 -35c17 -10 36 -16 57 -16c49 0 87 20 113 60s39 90 39 149v20h50v-20zM775 272
c0 -74 -18 -136 -53 -186c-36 -49 -86 -74 -149 -74c-22 0 -42 4 -59 10c-18 8 -35 18 -50 34c-15 14 -27 27 -35 38s-19 26 -33 47c-17 25 -30 43 -39 55s-23 24 -40 34c-17 12 -36 17 -57 17c-49 0 -87 -20 -113 -61c-26 -40 -39 -90 -39 -149v-20h-50v20
c0 74 18 136 54 185c35 50 85 75 148 75c22 0 42 -3 60 -11c17 -6 34 -18 49 -32c15 -16 27 -28 35 -39s19 -26 33 -47c17 -25 30 -43 39 -55s23 -23 40 -35c17 -10 36 -16 57 -16c49 0 87 20 113 60c26 41 39 91 39 150v20h50v-20z" />
    <glyph glyph-name="uniE66B" unicode="&#xe66b;" horiz-adv-x="833" 
d="M417 -46c-102 0 -189 36 -261 108s-108 159 -108 261c0 101 36 188 108 261c73 72 160 108 261 108s188 -36 260 -108c72 -73 108 -160 108 -261c0 -102 -36 -189 -107 -261c-72 -72 -159 -108 -261 -108zM417 642c-88 0 -163 -31 -225 -94c-63 -62 -94 -137 -94 -225
s31 -163 94 -225c62 -63 137 -94 225 -94s163 31 225 94c62 62 93 137 93 225s-31 163 -93 225c-62 63 -137 94 -225 94zM625 266h-233v275h49v-224h184v-51z" />
    <glyph glyph-name="uniE66C" unicode="&#xe66c;" horiz-adv-x="833" 
d="M441 625h-49v125h49v-125zM664 545l-36 35l104 104l36 -35zM170 545l-104 104l35 35l104 -104zM417 -46c-87 0 -162 31 -224 93s-93 137 -93 224c0 88 31 163 92 224c62 61 137 92 225 92c87 0 162 -31 223 -93c62 -61 93 -136 93 -223s-31 -162 -93 -224
s-136 -93 -223 -93zM417 537c-73 0 -136 -26 -189 -78c-52 -52 -78 -115 -78 -188c0 -74 26 -137 78 -189s115 -78 189 -78s137 26 189 78c51 52 77 115 77 189c0 73 -26 136 -78 188s-115 78 -188 78z" />
    <glyph glyph-name="uniE66D" unicode="&#xe66d;" horiz-adv-x="833" 
d="M775 -25h-717v390l359 336l358 -336v-390zM108 25h617v318l-308 289l-309 -289v-318z" />
    <glyph glyph-name="uniE66E" unicode="&#xe66e;" horiz-adv-x="833" 
d="M296 -21h-50v667h50v-667zM587 -21h-50v667h50v-667z" />
    <glyph glyph-name="uniE66F" unicode="&#xe66f;" horiz-adv-x="833" 
d="M608 240c0 -48 -7 -93 -21 -136s-36 -78 -65 -107c-30 -29 -64 -43 -103 -43c-44 0 -81 16 -112 48c-31 33 -52 70 -64 110c-12 42 -18 83 -18 126v13c-56 27 -101 61 -135 102c-35 41 -52 90 -52 146c0 52 17 95 50 129c34 34 77 51 128 51c65 0 132 -31 201 -93
c71 62 138 93 201 93c51 0 93 -17 126 -52c34 -35 51 -77 51 -128c0 -56 -17 -105 -52 -147s-80 -76 -135 -103v-9zM216 629c-38 0 -69 -12 -92 -37c-24 -24 -36 -55 -36 -92c0 -81 49 -147 146 -198c11 49 28 92 52 130c23 37 55 77 95 119c-60 52 -115 78 -165 78z
M454 551c89 -93 139 -175 150 -248c94 51 141 116 141 197c0 37 -12 68 -36 92c-24 25 -54 37 -91 37c-48 0 -103 -26 -164 -78zM280 282c51 -19 96 -28 137 -28c45 0 91 9 140 27c-10 71 -57 149 -140 236c-74 -74 -120 -152 -137 -235zM275 230c1 -32 6 -64 15 -96
c8 -32 23 -62 46 -89s50 -41 83 -41c31 0 57 14 79 42c22 27 37 57 46 89c8 32 13 63 14 93c-50 -16 -97 -24 -141 -24c-46 0 -93 9 -142 26z" />
    <glyph glyph-name="uniE670" unicode="&#xe670;" horiz-adv-x="833" 
d="M417 162c-73 0 -139 20 -197 61c-60 41 -105 93 -136 157s-47 132 -47 203v25h758v-25c0 -71 -15 -139 -47 -203c-30 -64 -75 -116 -134 -157s-124 -61 -197 -61zM88 558c5 -95 39 -177 102 -244c63 -68 138 -102 227 -102s164 34 225 101c62 67 96 149 103 245h-657z
M469 31c0 -15 -5 -27 -15 -37s-22 -15 -37 -15s-27 5 -37 15s-15 22 -15 37c0 14 5 26 15 37c10 10 22 15 37 15s27 -5 37 -15c10 -11 15 -23 15 -37z" />
    <glyph glyph-name="uniE671" unicode="&#xe671;" horiz-adv-x="833" 
d="M417 282l-235 -309l-142 308l45 21l108 -233l192 254l-217 287l39 30l210 -276l209 276l40 -30l-218 -287l192 -254l108 233l45 -21l-142 -308z" />
    <glyph glyph-name="uniE672" unicode="&#xe672;" horiz-adv-x="833" 
d="M601 333l192 -358h-753l192 359l-145 126l34 38l135 -119l161 299l160 -300l135 120l34 -37zM417 572l-294 -547h587z" />
    <glyph glyph-name="uniE673" unicode="&#xe673;" horiz-adv-x="833" 
d="M525 -21h-50v579l-253 -163l-27 43l330 212v-671z" />
    <glyph glyph-name="uniE674" unicode="&#xe674;" horiz-adv-x="833" 
d="M254 -21h-50v170l400 20l-272 485l44 25l311 -556l-433 -22v-122zM312 302c0 -14 -5 -26 -15 -36c-10 -11 -22 -16 -37 -16s-27 5 -37 16c-10 10 -15 22 -15 36c0 15 5 27 15 37s22 15 37 15s27 -5 37 -15s15 -22 15 -37zM458 302c0 -14 -5 -26 -15 -36
c-10 -11 -22 -16 -37 -16c-14 0 -26 5 -36 16c-11 10 -16 22 -16 36c0 15 5 27 16 37c10 10 22 15 36 15c15 0 27 -5 37 -15s15 -22 15 -37z" />
    <glyph glyph-name="uniE675" unicode="&#xe675;" horiz-adv-x="833" 
d="M712 129l-49 6l62 535l50 -6zM121 129l-62 535l49 6l62 -535zM417 -25c-49 0 -93 17 -129 53c-38 34 -64 76 -80 122c-17 48 -25 95 -25 142s8 94 25 142c17 46 44 87 80 122c38 35 80 52 129 52s91 -18 129 -52c36 -36 63 -76 80 -123c16 -47 24 -94 24 -141
s-8 -94 -24 -142c-17 -46 -44 -88 -80 -122c-38 -36 -80 -53 -129 -53zM417 558c-48 0 -90 -25 -127 -75c-38 -54 -57 -118 -57 -191c0 -74 19 -138 57 -192c37 -50 79 -75 127 -75s90 25 127 75c37 53 56 117 56 192s-19 138 -56 191c-37 50 -79 75 -127 75z" />
    <glyph glyph-name="uniE676" unicode="&#xe676;" horiz-adv-x="833" 
d="M153 625l180 -223l-35 -35l-184 227zM719 594l-184 -227l-35 35l181 223zM500 223l35 35l184 -227l-38 -31zM114 31l184 227l35 -35l-180 -223z" />
    <glyph glyph-name="uniE677" unicode="&#xe677;" horiz-adv-x="833" 
d="M562 67c36 0 67 13 92 39s44 58 54 95c12 37 17 78 17 122c0 58 -5 108 -15 149s-31 80 -62 115l37 34c36 -41 60 -84 72 -131c12 -46 18 -102 18 -167c0 -28 -2 -56 -7 -83c-4 -27 -11 -55 -22 -82s-24 -51 -40 -72c-15 -20 -36 -36 -60 -50c-26 -12 -53 -19 -84 -19
c-67 0 -116 37 -145 112c-29 -75 -78 -112 -146 -112c-38 0 -71 10 -100 29s-51 44 -67 76c-15 30 -27 63 -34 97c-8 34 -12 69 -12 104c0 65 6 121 18 167c12 47 36 90 72 131l37 -34c-31 -35 -52 -74 -62 -115s-15 -91 -15 -149c0 -44 6 -85 16 -122c12 -37 30 -69 55 -95
s56 -39 92 -39c24 0 45 7 61 23c18 14 30 34 38 58s14 47 17 70c3 22 5 44 5 67h49c0 -23 2 -45 5 -67c3 -23 9 -46 17 -70s21 -44 37 -58c18 -16 38 -23 62 -23z" />
    <glyph glyph-name="uniE679" unicode="&#xe679;" horiz-adv-x="447" 
 />
    <glyph glyph-name="uniE680" unicode="&#xe680;" horiz-adv-x="650" 
d="M152 113c15 0 29 -7 40 -21c12 -13 18 -28 18 -44c0 -43 -10 -79 -29 -108s-49 -58 -90 -88l-21 30c47 38 70 70 70 97c0 12 -4 24 -12 36c-23 11 -35 27 -35 48c0 15 5 27 17 36c10 9 25 14 42 14z" />
    <glyph glyph-name="uniE681" unicode="&#xe681;" horiz-adv-x="650" 
d="M83 53c0 17 6 31 18 43s26 18 43 18s31 -6 43 -18s18 -26 18 -43s-6 -31 -18 -43s-26 -18 -43 -18s-31 6 -43 18s-18 26 -18 43z" />
    <glyph glyph-name="uniE682" unicode="&#xe682;" horiz-adv-x="650" 
d="M83 383c0 17 6 31 18 43s26 18 43 18s31 -6 43 -18s18 -26 18 -43s-6 -31 -18 -43c-12 -13 -26 -19 -43 -19s-31 6 -43 19c-12 12 -18 26 -18 43zM83 53c0 17 6 31 18 43s26 18 43 18s31 -6 43 -18s18 -26 18 -43s-6 -31 -18 -43s-26 -18 -43 -18s-31 6 -43 18
s-18 26 -18 43z" />
    <glyph glyph-name="uniE683" unicode="&#xe683;" horiz-adv-x="671" 
d="M184 155h-29c-21 134 -31 229 -31 285v167h92v-167c0 -50 -11 -145 -32 -285zM111 53c0 17 6 31 18 43s26 18 43 18s31 -6 43 -18s18 -26 18 -43s-6 -31 -18 -43s-26 -18 -43 -18s-31 6 -43 18s-18 26 -18 43z" />
    <glyph glyph-name="uniE685" unicode="&#xe685;" horiz-adv-x="691" 
d="M189 607c41 0 75 -12 101 -35c28 -23 41 -54 41 -92c0 -41 -14 -77 -42 -107l-60 -63c-23 -28 -35 -61 -35 -98c0 -9 2 -21 5 -37h-53c-9 27 -14 45 -14 55c0 27 5 50 14 69s24 41 45 64c43 46 64 83 64 110c0 47 -29 71 -86 71c-29 0 -53 -10 -73 -29l-29 58
c28 23 69 34 122 34zM121 53c0 17 6 31 18 43s26 18 43 18s31 -6 43 -18s18 -26 18 -43s-6 -31 -18 -43s-26 -18 -43 -18s-31 6 -43 18s-18 26 -18 43z" />
    <glyph glyph-name="uniE686" unicode="&#xe686;" horiz-adv-x="1057" 
d="M356 292h-50v374h50v-374zM479 -11c-20 40 -39 73 -56 99c-14 -29 -33 -52 -57 -70s-51 -27 -81 -27c-29 0 -53 8 -72 23s-28 37 -28 66c0 37 11 66 33 88c23 22 53 33 90 33c48 0 85 -11 111 -32c30 -25 65 -78 105 -158zM308 151c-25 0 -44 -7 -56 -21
c-11 -11 -17 -28 -17 -50c0 -14 3 -23 10 -28c9 -7 22 -11 40 -11c10 0 20 2 31 5c10 3 22 12 36 26c15 15 26 34 35 59c-17 13 -42 20 -77 20h-2z" />
    <glyph glyph-name="uniE687" unicode="&#xe687;" horiz-adv-x="1057" 
d="M379 292h-50v374h50v-374zM354 -25c-33 0 -60 11 -84 35c-22 22 -34 51 -34 84s11 61 34 84s51 34 84 34s62 -12 84 -34c24 -24 35 -51 35 -84s-11 -62 -35 -84c-22 -24 -51 -35 -84 -35zM354 162c-19 0 -36 -7 -49 -20s-20 -29 -20 -48s7 -35 21 -48
c13 -14 29 -21 48 -21s35 7 48 21c14 13 21 29 21 48s-7 35 -20 48s-30 20 -49 20z" />
    <glyph glyph-name="uniE688" unicode="&#xe688;" horiz-adv-x="1057" 
d="M379 666v-374h-50v374h50zM331 208h46c0 -7 -1 -18 -2 -33s-2 -27 -2 -35c1 0 1 0 1 1h1c5 4 13 10 24 17c11 8 20 14 25 19c1 1 3 2 4 3l3 3l25 -39c-5 -2 -14 -7 -29 -16c-17 -11 -30 -19 -38 -23v-1h1c0 -1 0 -1 1 -1l4 -3l2 -2c27 -18 47 -29 59 -34l-25 -38
c-11 8 -29 22 -56 41h-1l-1 1c0 -27 1 -46 3 -59v-5c1 -2 1 -3 1 -4h-46c0 1 0 2 1 4v5c2 13 3 32 3 59c-3 -3 -23 -17 -58 -42l-25 38c17 7 39 20 68 40c-31 21 -53 35 -68 40l25 39c16 -13 34 -27 55 -41c1 -1 2 -2 3 -2c0 21 -1 41 -3 59v5c-1 2 -1 3 -1 4z" />
    <glyph glyph-name="uniE689" unicode="&#xe689;" horiz-adv-x="1220" 
d="M183 325c-74 39 -111 88 -111 147c0 57 36 105 107 145c66 36 145 54 238 54c67 0 129 -10 185 -31c58 -20 100 -48 129 -85c21 -27 31 -54 31 -83c0 -27 -8 -51 -23 -74c-15 -22 -35 -40 -60 -55s-49 -27 -75 -36c-24 -9 -50 -17 -75 -22l-2 -1c-25 -5 -46 -14 -62 -24
c-16 -12 -24 -23 -24 -35v-79h-49v79c0 28 13 51 38 71c25 18 55 31 89 38h3c17 3 36 9 56 16s40 16 62 28c20 10 38 24 52 41c13 17 20 34 20 53c0 17 -7 35 -20 52c-26 33 -66 58 -118 74c-54 15 -106 23 -157 23c-85 0 -156 -16 -215 -48c-21 -11 -40 -26 -56 -43
c-16 -18 -24 -37 -24 -58s8 -41 26 -59c16 -18 37 -33 60 -44h1zM469 31c0 -15 -5 -27 -15 -37s-22 -15 -37 -15s-27 5 -37 15s-15 22 -15 37c0 14 5 26 15 37c10 10 22 15 37 15s27 -5 37 -15c10 -11 15 -23 15 -37z" />
    <glyph glyph-name="uniE690" unicode="&#xe690;" horiz-adv-x="708" 
d="M379 666v-374h-50v374h50zM331 208h46c0 -7 -1 -18 -2 -33s-2 -27 -2 -35c1 0 1 0 1 1h1c5 4 13 10 24 17c11 8 20 14 25 19c1 1 3 2 4 3l3 3l25 -39c-5 -2 -14 -7 -29 -16c-17 -11 -30 -19 -38 -23v-1h1c0 -1 0 -1 1 -1l4 -3l2 -2c27 -18 47 -29 59 -34l-25 -38
c-11 8 -29 22 -56 41h-1l-1 1c0 -27 1 -46 3 -59v-5c1 -2 1 -3 1 -4h-46c0 1 0 2 1 4v5c2 13 3 32 3 59c-3 -3 -23 -17 -58 -42l-25 38c17 7 39 20 68 40c-31 21 -53 35 -68 40l25 39c16 -13 34 -27 55 -41c1 -1 2 -2 3 -2c0 21 -1 41 -3 59v5c-1 2 -1 3 -1 4z" />
    <glyph glyph-name="uniE691" unicode="&#xe691;" horiz-adv-x="833" 
d="M213 95l-35 35l442 442l35 -35zM260 542c14 0 26 -5 36 -16c11 -10 16 -22 16 -36s-5 -26 -16 -36c-10 -11 -22 -16 -36 -16s-26 5 -36 16c-11 10 -16 22 -16 36s5 26 16 36c10 11 22 16 36 16zM573 229c14 0 26 -5 37 -15c10 -11 15 -23 15 -37s-5 -26 -15 -37
c-11 -10 -23 -15 -37 -15s-26 5 -37 15c-10 11 -15 23 -15 37s5 26 15 37c11 10 23 15 37 15z" />
    <glyph glyph-name="uniE692" unicode="&#xe692;" horiz-adv-x="833" 
d="M754 -25h-675v675h675v-675zM129 25h575v575h-575v-575zM585 144h-337v337h337v-337zM294 190h245v245h-245v-245z" />
    <glyph glyph-name="uniE693" unicode="&#xe693;" horiz-adv-x="833" 
d="M417 92l-105 292l-81 -222l-87 196l-59 -119l-45 22l107 214l80 -179l86 236l104 -291l103 291l87 -236l79 179l107 -214l-44 -22l-60 119l-87 -196l-81 222z" />
    <glyph glyph-name="uniE694" unicode="&#xe694;" horiz-adv-x="833" 
d="M441 646v-229h-49v229h49zM312 337v-49h-249v49h249zM771 337v-49h-250v49h250zM441 208v-208h-49v208h49z" />
    <glyph glyph-name="uniE695" unicode="&#xe695;" horiz-adv-x="833" 
d="M570 592c66 -73 99 -160 99 -260c0 -97 -33 -184 -99 -259c11 -23 19 -46 26 -70l-48 -14c-27 95 -79 171 -156 231c-77 58 -170 88 -280 88v50c110 0 203 30 280 89s129 136 156 231l48 -14c-8 -29 -17 -53 -26 -72zM279 333c118 -38 208 -110 269 -215
c23 29 42 61 55 98c-28 5 -51 19 -69 41c-19 22 -28 47 -28 76s9 54 27 76s41 36 69 41c-14 38 -32 71 -55 98c-63 -106 -152 -178 -268 -215zM623 332c0 24 -3 49 -8 74c-18 -3 -33 -11 -45 -25s-18 -30 -18 -48c0 -19 6 -35 18 -49c13 -13 28 -21 46 -24c5 23 7 47 7 72z
" />
    <glyph glyph-name="uniE696" unicode="&#xe696;" horiz-adv-x="833" 
d="M771 650v-50h-330v-621h-49v621h-324v50h703z" />
    <glyph glyph-name="uniE718" unicode="&#xe718;" horiz-adv-x="833" 
d="M746 337v-258h-305v-100h-49v100h-305v258h659zM136 129h256v159h-256v-159zM696 129v159h-255v-159h255z" />
    <glyph glyph-name="uniE719" unicode="&#xe719;" 
d="M-270 646l-261 -261l-33 32l262 262zM-466 620c0 -11 -4 -20 -12 -27c-7 -7 -16 -11 -27 -11s-20 4 -27 11s-11 16 -11 27s4 20 11 28c7 7 16 11 27 11s20 -4 27 -11c8 -8 12 -17 12 -28zM-367 444c0 11 4 20 11 28c7 7 16 11 27 11s20 -4 27 -11c8 -8 12 -17 12 -28
s-4 -20 -12 -27c-7 -7 -16 -11 -27 -11s-20 4 -27 11s-11 16 -11 27z" />
    <glyph glyph-name="uniE720" unicode="&#xe720;" 
d="M-203 531c0 -43 -14 -81 -43 -113c-29 -31 -63 -47 -104 -47c-37 0 -70 13 -97 39c-27 27 -44 59 -50 96h-129v50h129c6 37 23 68 51 96c27 26 59 40 96 40c41 0 75 -16 104 -48s43 -70 43 -113zM-350 642c-27 0 -50 -11 -69 -32c-19 -22 -29 -48 -29 -79s10 -57 28 -78
c20 -21 43 -32 70 -32s50 11 68 32c20 21 29 47 29 78s-9 57 -29 79c-18 21 -41 32 -68 32z" />
    <glyph glyph-name="uniE721" unicode="&#xe721;" 
d="M-417 365c-55 0 -103 15 -145 47c-43 30 -68 70 -77 118c-21 7 -38 20 -51 38c-13 19 -20 39 -20 61c0 29 10 53 32 73c20 21 46 31 75 31s55 -10 75 -31c22 -20 32 -44 32 -73c0 -26 -9 -49 -26 -69c-17 -19 -39 -31 -64 -35c10 -32 31 -58 62 -79s67 -31 107 -31
s76 11 107 31c32 22 53 48 62 80c-25 5 -46 17 -62 36c-17 19 -25 42 -25 67c0 29 11 53 31 73c22 21 47 31 76 31s54 -10 76 -31c20 -20 31 -44 31 -73c0 -23 -7 -43 -21 -62s-32 -31 -53 -38c-9 -48 -34 -87 -77 -118s-91 -46 -145 -46zM-603 683c-15 0 -29 -5 -40 -16
s-17 -23 -17 -38s6 -27 17 -39c11 -10 25 -16 40 -16c16 0 30 5 41 16s17 24 17 39s-6 27 -17 38s-25 16 -41 16zM-228 683c-15 0 -29 -5 -40 -16s-17 -23 -17 -38s6 -27 17 -39c11 -10 25 -16 40 -16s29 6 40 16c11 12 17 24 17 39s-6 27 -17 38s-25 16 -40 16z" />
    <glyph glyph-name="uniE722" unicode="&#xe722;" 
d="M-187 650v-50h-100v-117h100v-50h-100v-58h-50v58h-159v-58h-49v58h-100v50h100v117h-100v50h100v77h49v-77h159v77h50v-77h100zM-496 600v-117h159v117h-159z" />
    <glyph glyph-name="uniE723" unicode="&#xe723;" 
d="M-204 708v-316h-425v316h50v-121h325v121h50zM-579 441h325v96h-325v-96z" />
    <glyph glyph-name="uniE724" unicode="&#xe724;" 
d="M-392 697c36 -5 68 -18 95 -39s44 -48 51 -79h79v-50h-79c-7 -31 -24 -58 -52 -80c-27 -22 -59 -35 -94 -39v-35h-49v35c-35 4 -67 17 -95 39c-27 22 -44 49 -51 80h-79v50h79c7 31 24 57 51 79c27 21 59 34 95 39v53h49v-53zM-294 554c0 27 -12 50 -38 68
c-24 17 -53 26 -84 26s-60 -9 -85 -26c-25 -18 -38 -41 -38 -68s13 -50 38 -68s54 -27 85 -27s60 9 84 27c26 17 38 40 38 68z" />
    <glyph glyph-name="uniE725" unicode="&#xe725;" 
d="M-390 750v-88h-50v88h50zM-200 672l-51 -63l-39 32l52 62zM-533 641l-38 -32l-52 63l39 31zM-415 371c-43 0 -84 11 -121 34s-56 54 -56 95s19 72 56 95s78 34 121 34s83 -11 121 -35c37 -22 56 -54 56 -94s-19 -72 -57 -94c-38 -24 -78 -35 -120 -35zM-415 579
c-35 0 -65 -8 -89 -23c-26 -16 -38 -35 -38 -56s12 -40 38 -56c24 -15 54 -23 89 -23s65 8 89 23c26 16 38 35 38 56s-12 40 -38 56c-24 15 -54 23 -89 23z" />
    <glyph glyph-name="uniE726" unicode="&#xe726;" horiz-adv-x="833" 
d="M417 -46c-63 0 -123 11 -177 32c-56 21 -96 51 -123 88c-18 25 -27 52 -27 81c0 55 33 103 100 144c63 37 139 56 227 56c63 0 122 -11 177 -31c55 -22 95 -51 122 -88c19 -27 28 -54 28 -81c0 -57 -33 -105 -100 -144c-65 -38 -140 -57 -227 -57zM214 261
c-53 -31 -79 -66 -79 -106c0 -41 26 -76 79 -107c56 -32 124 -48 203 -48s147 16 203 48c52 30 78 66 78 107s-26 76 -78 106c-56 32 -124 48 -203 48s-147 -16 -203 -48zM417 107c-13 0 -24 5 -33 15c-10 9 -15 20 -15 33s5 24 15 33c9 10 20 15 33 15s24 -5 33 -15
c10 -9 15 -20 15 -33s-5 -24 -15 -33c-9 -10 -20 -15 -33 -15z" />
    <glyph glyph-name="uniE727" unicode="&#xe727;" 
d="M-416 373c-37 0 -74 6 -111 19c-37 12 -70 32 -99 60c-29 29 -43 62 -43 100s14 71 43 100c29 28 62 48 99 60c37 13 74 19 111 19c49 0 95 -9 136 -29c42 -18 73 -44 94 -77c15 -24 22 -48 22 -73c0 -39 -14 -72 -42 -100c-29 -29 -62 -49 -98 -61
c-38 -12 -75 -18 -112 -18zM-416 685c-51 0 -98 -12 -142 -37c-43 -24 -65 -56 -65 -96s22 -72 65 -96c44 -25 91 -37 142 -37s98 12 141 37c43 24 65 56 65 96s-22 72 -65 96c-43 25 -90 37 -141 37zM-532 480l-34 24l37 53l-37 54l34 24l29 -41l28 41l34 -24l-37 -54
l37 -53l-34 -24l-28 41zM-358 480l-34 24l37 53l-37 54l34 24l29 -41l28 41l34 -24l-37 -54l37 -53l-34 -24l-28 41z" />
    <glyph glyph-name="uniE728" unicode="&#xe728;" 
d="M-580 533h-20v34h10h2l6 1h2c35 4 60 9 75 14c17 4 33 12 50 23c12 6 21 12 28 19c8 6 16 14 25 24h2c15 16 30 41 43 75l4 9l39 -13l-13 -32c37 -39 56 -85 56 -138s-18 -98 -55 -137c0 -1 0 -2 1 -2c1 -2 1 -2 1 -3l4 -10c0 -1 0 -1 1 -3c1 0 1 -1 1 -2l4 -10l-39 -14
c-1 1 -1 2 -1 2c0 2 0 2 -1 3l-3 9c-1 3 -2 4 -2 5l-4 9c-10 19 -19 34 -28 45c0 1 0 1 -1 1l-1 2l-6 6c-1 1 -2 2 -2 3c-8 9 -19 18 -33 29c-7 7 -23 16 -47 27c-4 1 -11 4 -22 8s-19 7 -26 8c-1 0 -2 0 -2 1h-5c-1 1 -1 1 -2 1c-25 4 -38 6 -41 6zM-422 581
c-34 -18 -56 -28 -66 -31c13 -3 35 -13 66 -30c27 -18 51 -41 72 -68v-1c10 10 18 21 24 34c-15 5 -28 13 -38 25c-9 11 -14 25 -14 40s5 28 14 40c10 12 22 20 37 25c-7 14 -14 26 -22 35c-9 -19 -34 -42 -73 -69zM-315 580c-17 -5 -25 -15 -25 -30s8 -25 25 -30
c2 10 3 20 3 29c0 11 -1 21 -3 31z" />
    <glyph glyph-name="uniE730" unicode="&#xe730;" horiz-adv-x="148" 
d="M982 -145h-932v812h49v-763h883v-49z" />
    <glyph glyph-name="uniE731" unicode="&#xe731;" 
d="M-576 522l188 -188l-188 -189l-30 30l159 159c-3 3 -7 7 -13 12c-5 5 -10 10 -14 15l-13 13l-79 78l-40 40zM-419 522l47 -47l142 -141l-189 -189l-30 30l159 159l-12 12c-6 5 -11 10 -16 15c-4 5 -8 9 -12 13l-79 78l-40 40z" />
    <glyph glyph-name="uniE732" unicode="&#xe732;" 
d="M-319 334c-5 5 -13 11 -25 20c-10 9 -19 15 -24 19l-97 77c-11 9 -28 22 -49 39l26 33c7 -5 16 -13 30 -24c12 -10 22 -18 29 -23l178 -141l-237 -190l-26 33c21 17 38 30 49 39l97 79c5 5 14 11 24 20c12 9 20 15 25 19z" />
    <glyph glyph-name="uniE800" unicode="&#xe800;" 
d="M-322 210l-105 129l39 32l66 -82l65 81l39 -31z" />
    <glyph glyph-name="uniE801" unicode="&#xe801;" 
d="M-455 277h-9v51c21 0 51 -1 91 -4h11c-1 1 -4 5 -8 11c-21 29 -40 56 -59 79l38 26l4 -6c2 -1 4 -5 7 -10s5 -9 6 -11c6 -10 16 -24 29 -43s21 -30 23 -33c3 4 5 7 6 10l8 11c11 15 29 43 54 83l38 -27c-6 -7 -28 -37 -67 -90h11c27 2 54 3 81 3h10v-50c-9 0 -24 1 -45 1
c-20 2 -35 2 -46 2h-11l67 -90l-38 -26l-4 6c-2 2 -4 6 -7 10c-3 6 -5 9 -6 11l-44 66c-3 4 -5 8 -7 11c-4 -6 -11 -16 -20 -29c-10 -13 -18 -25 -26 -36c-6 -11 -13 -21 -18 -31c0 -1 0 -1 -1 -2l-5 -6l-37 26l4 6c1 1 9 12 26 35l14 18c1 1 2 2 3 4s2 3 3 4l11 15
c1 1 2 3 3 4c1 2 2 3 3 4h-11c-9 0 -23 0 -41 -2c-19 0 -32 -1 -41 -1z" />
    <glyph glyph-name="uniE805" unicode="&#xe805;" horiz-adv-x="833" 
d="M601 76c-43 0 -93 8 -148 24c-9 -33 -13 -58 -13 -73v-5l1 -43h-49l1 43c-2 30 -6 56 -13 78c-55 -16 -101 -24 -139 -24h-24h-4l-8 2h-4c-109 13 -170 78 -184 196v33l1 18l17 4c44 11 80 16 109 16c13 0 27 -1 40 -3h3c62 -11 112 -33 149 -68s64 -82 81 -141
c33 113 97 181 190 202c1 0 2 0 3 1h5c1 1 2 1 3 1c21 5 43 8 65 8c38 0 77 -5 116 -16l18 -4l1 -18v-9v-8v-4l-1 -8v-4c-5 -61 -26 -109 -64 -144c-38 -36 -89 -54 -152 -54zM241 123h19c25 1 60 8 107 21c-30 73 -74 119 -133 140c-20 7 -37 10 -52 10c-11 1 -18 2 -23 2
l-4 -1h-3l-29 -1c-17 -2 -36 -5 -56 -9v-7c9 -103 67 -155 174 -155zM593 123c107 0 165 52 174 157l1 3c-28 8 -56 12 -85 12h-10c-99 0 -167 -50 -206 -151c49 -14 91 -21 126 -21z" />
    <glyph glyph-name="uniE812" unicode="&#xe812;" 
d="M-417 400c29 0 54 -12 75 -36c21 -23 32 -50 32 -79v-152c0 -30 -11 -57 -32 -81c-21 -23 -46 -35 -74 -35s-53 12 -74 35c-22 24 -33 51 -33 81v152c0 29 10 56 31 79c21 24 46 36 75 36zM-416 350c-15 0 -28 -7 -40 -20c-11 -13 -17 -28 -17 -45v-152
c0 -16 6 -31 17 -45s25 -21 40 -21s28 7 39 21c11 15 17 30 17 45v152c0 17 -6 32 -17 45s-24 20 -39 20z" />
    <glyph glyph-name="uniE813" unicode="&#xe813;" 
d="M-567 428l116 -187l-45 -15l-71 115l-72 -115l-43 15zM-381 241l115 187l116 -187l-44 -15l-72 115l-71 -115zM-416 158c13 0 25 -5 34 -14s14 -21 14 -34s-5 -24 -14 -33s-21 -14 -34 -14s-25 5 -34 14s-14 20 -14 33s5 25 14 34s21 14 34 14z" />
    <glyph glyph-name="uniE818" unicode="&#xe818;" 
d="M-175 410c0 -40 -13 -70 -37 -90c-26 -20 -60 -30 -103 -30h-9c-26 0 -48 4 -67 11c-3 -13 -5 -21 -5 -23l2 -147h-46l2 146c-1 11 -3 19 -4 24c-6 -1 -17 -4 -34 -7h-2l-5 -1h-2c-9 -2 -18 -3 -29 -3h-22c-37 0 -67 10 -89 32c-22 20 -33 50 -33 89l2 17l17 4
c21 4 42 6 61 6c39 0 72 -8 100 -23c29 -15 49 -38 61 -67c30 60 84 90 163 90c19 0 39 -2 61 -6l17 -4v-18h1zM-287 335c16 0 31 6 44 17c13 12 20 25 20 39c-2 0 -4 0 -5 1h-9c-2 1 -10 2 -24 2c-53 0 -91 -17 -112 -51v-1c0 -5 19 -7 57 -7h29zM-504 334c21 0 36 2 44 7
v1c-23 34 -60 51 -113 51c-16 0 -28 -1 -37 -2c8 -38 43 -57 106 -57z" />
    <glyph glyph-name="uniE819" unicode="&#xe819;" 
d="M-239 312h-54l80 -134h-407l80 134h-53v42h78l99 164l98 -164h79v-42zM-465 354h97l-48 81zM-546 219h259l-56 93h-147z" />
    <glyph glyph-name="uniE820" unicode="&#xe820;" 
d="M-215 370c0 -17 -7 -35 -22 -53c14 -22 21 -47 21 -75c0 -38 -14 -66 -41 -86c-27 -18 -63 -28 -108 -28c-32 0 -55 2 -68 6c-13 2 -30 6 -51 11c-26 -26 -48 -45 -65 -58l-25 34c15 11 30 25 46 40c-51 25 -77 62 -77 110c0 26 8 57 25 92c3 6 8 15 13 26s9 19 12 24
c-1 -1 -2 -1 -4 -2s-3 -1 -4 -1l-15 -9c-4 -1 -7 -2 -8 -3l-18 37c54 25 82 37 85 38c41 59 82 89 125 89c26 0 46 -8 60 -23s21 -37 21 -65c65 -16 98 -51 98 -104zM-416 487c23 0 43 -1 61 -4c0 25 -13 38 -39 38c-9 0 -17 -2 -26 -7c-9 -4 -15 -8 -18 -11
c-4 -3 -10 -9 -18 -17c8 1 21 1 40 1zM-493 331c0 19 9 35 25 49c18 13 37 20 58 20c12 0 25 -1 38 -3c4 11 8 25 13 44c-20 3 -39 5 -57 5c-32 0 -57 -3 -76 -8c-47 -75 -71 -130 -71 -167c0 -35 22 -61 66 -78c21 23 41 50 62 81c-17 3 -31 10 -41 20
c-12 10 -17 22 -17 37zM-318 432c-1 -13 -6 -29 -13 -46c27 -9 49 -22 66 -37c5 7 8 14 8 22v3l-1 3v2c0 19 -16 35 -47 48c-5 3 -10 4 -13 5zM-410 358c-11 0 -21 -3 -29 -9s-12 -12 -12 -18c0 -9 13 -15 39 -18c3 5 7 13 12 23c5 11 9 18 11 21c-5 1 -12 1 -21 1z
M-347 347c-3 -7 -9 -18 -17 -33c29 3 50 6 62 11c-9 8 -24 15 -45 22zM-367 169c73 0 109 24 109 73c0 19 -4 36 -13 51c-27 -13 -66 -21 -117 -22c-19 -30 -40 -60 -64 -89v-1c30 -8 58 -12 85 -12z" />
    <glyph glyph-name="uniE823" unicode="&#xe823;" 
d="M-394 307h-45v255h45v-255zM-519 259l-106 177l39 24l107 -178zM-314 259l-39 23l106 178l39 -24zM-376 175c0 -11 -4 -21 -12 -29c-8 -7 -17 -11 -28 -11s-20 4 -28 11c-8 8 -12 18 -12 29s4 21 12 29c8 7 17 11 28 11s20 -4 28 -11c8 -8 12 -18 12 -29z" />
    <glyph glyph-name="uniE824" unicode="&#xe824;" 
d="M-571 308c0 -41 16 -77 47 -106s69 -44 114 -44c37 0 68 11 94 32s39 47 39 76c0 30 -13 56 -39 76c-26 22 -57 32 -94 32c-23 0 -42 -6 -58 -19s-24 -28 -24 -47s8 -35 24 -48s35 -20 58 -20c9 0 17 3 24 9s10 13 10 22s-3 16 -10 22s-15 9 -24 9c-5 0 -10 2 -14 6
c-5 5 -7 10 -7 15s2 10 7 15c4 4 9 6 14 6c21 0 38 -7 53 -22c15 -14 22 -31 22 -51s-7 -37 -22 -51s-32 -21 -53 -21c-33 0 -62 10 -86 31c-26 20 -38 46 -38 78c0 31 13 57 38 78c25 20 54 30 86 30c45 0 86 -14 121 -42s53 -64 53 -108s-18 -80 -53 -108
c-35 -27 -76 -41 -121 -41c-55 0 -103 18 -142 55c-40 37 -60 82 -60 136s20 99 60 136c40 36 87 54 142 54c61 0 112 -11 152 -32c7 -4 11 -10 11 -18c0 -6 -2 -11 -6 -15s-9 -6 -14 -6c-3 0 -7 1 -10 3c-33 18 -78 27 -133 27c-45 0 -83 -15 -114 -43
c-31 -30 -47 -65 -47 -106z" />
    <glyph glyph-name="uniE825" unicode="&#xe825;" 
d="M-239 402l-73 -57l99 -167h-407l100 167l-74 57l29 30l66 -51l83 137l82 -138l66 52zM-546 219h259l-129 216z" />
    <glyph glyph-name="uniE826" unicode="&#xe826;" 
d="M-313 376c-6 -29 -23 -51 -50 -66l149 -185h-405l150 185c-27 15 -43 37 -49 66h-49v42h49c4 19 14 36 28 51c16 15 33 24 54 28v44h41v-44c20 -4 37 -13 53 -27c14 -15 24 -32 29 -52h49v-42h-49zM-416 457c-17 0 -32 -6 -44 -17c-12 -12 -18 -26 -18 -43s6 -31 18 -43
c12 -11 27 -17 44 -17s32 6 44 17c13 12 19 26 19 43s-6 31 -19 43c-12 11 -27 17 -44 17zM-301 167l-105 129h-21l-105 -129h231z" />
    <glyph glyph-name="uniE827" unicode="&#xe827;" 
d="M-393 354l-3 -19l179 -210h-402l182 210c-1 2 -1 5 -2 9c-1 5 -1 8 -1 10h-2c-10 -3 -24 -5 -41 -8h-4l-6 -1h-4h-2l-4 1h-2h-3c-25 0 -46 10 -62 30c-16 19 -25 43 -27 71l-1 3v2v9l1 15l15 3c20 5 38 7 53 7c53 0 90 -25 112 -76c26 51 64 76 114 76c8 0 14 0 18 -1h9
c3 -1 8 -2 14 -3c7 -2 11 -3 12 -3l14 -3l1 -16v-15c0 -7 -1 -13 -3 -19l-2 -7v-2c-1 -1 -1 -1 -1 -2c-6 -19 -16 -36 -31 -49s-32 -20 -53 -20h-4h-2l-3 -1h-2c-12 0 -31 3 -56 9h-1zM-286 444c-1 1 -7 1 -17 1c-37 0 -64 -18 -79 -54l29 -6h24h1l1 1c27 3 44 21 49 53l1 3
v1h-5h-1l-2 1h-1zM-556 443c0 -15 5 -28 14 -39s21 -17 36 -18l1 -1h1h24l28 6h1c-18 36 -44 54 -79 54c-2 0 -6 0 -12 -1c-6 0 -11 0 -14 -1zM-527 167h220l-110 128z" />
    <glyph glyph-name="uniE828" unicode="&#xe828;" 
d="M-265 466c0 -39 -9 -74 -27 -104c-17 -32 -40 -54 -69 -68l144 -169h-402l146 169c-1 0 -1 0 -1 1h-2c-28 15 -50 37 -67 69c-17 30 -25 65 -25 102v19h303v-19zM-528 446c3 -33 15 -62 36 -88c21 -24 46 -37 76 -37s55 13 76 37c20 26 32 55 35 88h-223zM-307 167
l-99 115h-22l-99 -115h220z" />
    <glyph glyph-name="uniE829" unicode="&#xe829;" 
d="M-622 181l206 343l205 -343h-411zM-379 380l-37 63l-38 -63l38 -47zM-477 341l-71 -118h43l62 76zM-327 223h42l-71 118l-34 -42zM-416 266l-36 -43h71z" />
    <glyph glyph-name="uniE830" unicode="&#xe830;" horiz-adv-x="833" 
d="M240 642c-39 0 -68 -14 -89 -43s-31 -65 -31 -109c0 -21 4 -41 10 -60c8 -18 15 -32 22 -41s19 -22 34 -39c17 -18 29 -33 38 -44s18 -29 27 -52c9 -24 14 -50 14 -77c0 -58 -15 -106 -45 -145c-31 -38 -72 -57 -125 -57h-12v50h12c39 0 68 14 89 43s31 65 31 109
c0 21 -3 41 -11 59c-6 19 -14 33 -21 42s-19 22 -34 39c-17 18 -29 33 -38 44s-18 29 -27 53c-9 23 -14 49 -14 76c0 57 15 105 46 144s72 58 124 58h12v-50h-12zM738 642c-39 0 -68 -14 -89 -43s-31 -65 -31 -109c0 -21 4 -41 10 -60c8 -18 15 -32 22 -41s19 -22 34 -39
c17 -18 29 -33 38 -44s18 -29 27 -52c9 -24 14 -50 14 -77c0 -57 -15 -105 -46 -144s-72 -58 -124 -58h-12v50h12c39 0 68 14 89 43s31 65 31 109c0 21 -3 41 -11 59c-6 19 -14 33 -21 42s-19 22 -34 39c-17 18 -29 33 -38 44s-18 29 -27 53c-9 23 -14 49 -14 76
c0 58 15 106 46 144c30 39 71 58 124 58h12v-50h-12z" />
    <glyph glyph-name="uniE831" unicode="&#xe831;" horiz-adv-x="833" 
d="M677 66h-521c-30 0 -56 10 -76 32c-22 20 -32 46 -32 76v277c0 30 10 55 32 77c20 20 46 31 76 31h521c30 0 55 -11 77 -31c20 -22 31 -47 31 -77v-277c0 -30 -11 -56 -31 -76c-22 -22 -47 -32 -77 -32zM156 509c-16 0 -30 -6 -41 -17s-17 -25 -17 -41v-277
c0 -16 6 -30 17 -41s25 -17 41 -17h521c16 0 30 6 41 17s17 25 17 41v277c0 16 -6 30 -17 41s-25 17 -41 17h-521z" />
    <glyph glyph-name="uniE835" unicode="&#xe835;" 
d="M-416 608c52 0 97 -19 134 -56c38 -38 57 -83 57 -135c0 -46 -14 -86 -43 -121l53 -53l-33 -32l-53 53c-33 -25 -72 -38 -115 -38c-44 0 -83 13 -116 38l-53 -53l-32 32l53 53c-29 35 -44 76 -44 121c0 52 19 97 57 135c38 37 83 56 135 56zM-416 272c40 0 74 14 102 42
c29 29 43 63 43 103s-14 74 -43 103c-28 29 -62 43 -102 43s-74 -14 -103 -43s-43 -63 -43 -103s14 -74 43 -103c29 -28 63 -42 103 -42z" />
    <glyph glyph-name="uniE836" unicode="&#xe836;" 
d="M-420 615c40 0 77 -12 112 -35s60 -54 75 -91h56v-41h-43c3 -19 4 -33 4 -42c0 -57 -20 -106 -60 -146c-39 -42 -87 -62 -144 -62s-105 20 -145 61s-60 90 -60 147s20 106 60 147s88 62 145 62zM-420 573c-29 0 -57 -8 -82 -23s-45 -36 -59 -61h282c-14 25 -34 46 -59 61
s-53 23 -82 23zM-258 406c0 13 -2 27 -5 42h-315c-3 -15 -5 -29 -5 -42c0 -46 16 -85 47 -118c32 -32 71 -48 116 -48s83 16 114 48c32 33 48 72 48 118z" />
    <glyph glyph-name="uniE837" unicode="&#xe837;" 
d="M-392 560c-33 0 -60 -15 -81 -46c-21 -30 -32 -64 -32 -101v-197h-39l-104 105l36 35l56 -57v114c0 51 15 96 46 137c30 40 69 60 118 60s88 -20 118 -61s45 -86 45 -136v-197h-50v197c0 38 -11 72 -32 102s-48 45 -81 45z" />
    <glyph glyph-name="uniE838" unicode="&#xe838;" 
d="M-346 469c41 0 76 -13 103 -38s41 -59 41 -101c0 -37 -11 -66 -33 -85s-52 -29 -91 -29h-285v396h44v-351h241c53 0 80 23 80 69c0 29 -9 52 -28 68c-19 18 -43 26 -72 26h-59v188h44v-143h15z" />
    <glyph glyph-name="uniE840" unicode="&#xe840;" 
d="M-441 421v141h49v-141h-49zM-621 305v50h134v-50h-134zM-346 305v50h134v-50h-134z" />
    <glyph glyph-name="uniE842" unicode="&#xe842;" horiz-adv-x="831" 
d="M250 20c-33 0 -63 9 -90 27c-26 18 -46 40 -62 67c-14 27 -27 58 -36 93c-10 35 -17 68 -20 99c-3 30 -5 60 -5 90h50c0 -31 2 -62 7 -94c4 -33 11 -68 22 -105s28 -68 50 -91c24 -24 51 -36 84 -36c21 0 44 15 69 45c19 22 45 62 79 121s60 99 78 121
c36 43 72 64 107 64s67 -9 93 -27c28 -17 48 -39 63 -65s27 -57 35 -93c10 -36 15 -69 18 -98c3 -30 4 -61 4 -94h-50c0 34 -2 66 -5 97s-10 65 -20 103c-10 39 -27 70 -51 92c-23 24 -52 35 -87 35c-19 0 -42 -15 -68 -46c-19 -22 -45 -62 -79 -121
c-35 -59 -61 -99 -79 -121c-35 -42 -71 -63 -107 -63z" />
    <glyph glyph-name="uniE843" unicode="&#xe843;" 
d="M-414 504c49 0 91 16 126 47c36 31 54 69 54 113h50c0 -60 -23 -110 -70 -150c-46 -40 -99 -60 -160 -60s-115 20 -162 60c-46 40 -69 90 -69 150h50c0 -44 18 -82 54 -113s78 -47 127 -47z" />
    <glyph glyph-name="uniE850" unicode="&#xe850;" horiz-adv-x="833" 
d="M452 337c87 0 154 -24 204 -72c48 -48 73 -115 73 -202v-84h-50v84c0 19 -1 38 -5 56c-2 18 -9 38 -18 59c-10 21 -23 40 -38 56c-16 15 -38 28 -66 38c-29 11 -62 16 -100 16c-47 0 -86 -8 -118 -22c-32 -16 -55 -35 -70 -60s-25 -48 -30 -71c-6 -23 -9 -47 -9 -72v-84
h-20l-144 150l36 34l79 -81c3 81 29 143 78 188s115 67 198 67z" />
    <glyph glyph-name="uniE851" unicode="&#xe851;" 
d="M-381 691c87 0 155 -24 203 -72c50 -48 74 -116 74 -203v-84h-21v1h-29v83c0 19 -2 38 -4 56c-4 18 -10 38 -20 59c-9 21 -22 40 -38 55c-15 16 -37 29 -66 40c-28 10 -61 15 -99 15c-47 0 -86 -7 -118 -23c-32 -14 -55 -34 -70 -59s-25 -48 -31 -71
c-5 -23 -8 -47 -8 -72v-83h-20l-144 149l36 35l79 -82c3 81 29 143 78 189c49 44 115 67 198 67z" />
    <glyph glyph-name="uniE864" unicode="&#xe864;" horiz-adv-x="833" 
d="M417 692c57 0 112 -12 165 -35c52 -23 95 -58 130 -104s52 -98 52 -157c0 -55 -15 -104 -46 -148s-71 -79 -121 -105c8 -15 12 -32 12 -49c0 -43 -20 -78 -61 -102c-41 -26 -84 -38 -131 -38c-46 0 -90 12 -131 38c-41 24 -62 59 -62 102c0 17 4 34 12 49
c-50 27 -90 62 -121 107c-31 44 -46 93 -46 146c0 59 17 111 53 158c34 46 78 80 130 104c53 22 108 34 165 34zM417 150c82 0 152 24 210 72c58 49 87 107 87 174s-29 125 -87 174c-58 48 -128 72 -210 72s-152 -24 -211 -72c-58 -49 -87 -107 -87 -174s29 -125 87 -174
c59 -48 129 -72 211 -72zM417 4c35 0 67 8 97 24c30 17 45 39 45 66c0 10 -3 20 -8 29c-43 -15 -87 -23 -134 -23s-92 8 -135 23c-5 -9 -8 -19 -8 -29c0 -27 15 -48 46 -65c30 -17 62 -25 97 -25z" />
    <glyph glyph-name="uniE865" unicode="&#xe865;" 
d="M-416 605c53 0 101 -15 146 -44s67 -69 67 -118c0 -33 -10 -61 -30 -85c-20 -23 -45 -42 -75 -56c7 -11 11 -23 11 -36c0 -23 -11 -43 -35 -59c-22 -16 -51 -24 -84 -24s-62 8 -85 24s-35 36 -35 59c0 13 4 25 11 36c-30 14 -55 33 -75 58s-30 52 -30 83
c0 49 23 89 68 118s94 44 146 44zM-416 326c42 0 80 11 115 32c35 22 52 50 52 85s-17 63 -52 85c-35 21 -73 32 -115 32s-80 -11 -116 -32c-34 -22 -52 -50 -52 -85s18 -63 52 -85c36 -21 74 -32 116 -32zM-416 225c18 0 36 4 52 11c18 7 26 17 26 30c0 7 -4 15 -13 22
c-23 -5 -44 -8 -65 -8s-43 3 -66 8c-9 -7 -13 -15 -13 -22c0 -13 9 -23 25 -30c18 -7 35 -11 54 -11z" />
    <glyph glyph-name="uniE866" unicode="&#xe866;" 
d="M-416 616c41 0 80 -10 114 -30c36 -20 62 -46 80 -78c16 -29 24 -67 24 -116c0 -52 -8 -101 -23 -147l-43 17c14 36 21 80 21 131c0 32 -4 58 -12 79c-8 20 -22 39 -43 56c-33 28 -73 42 -118 42c-43 0 -81 -13 -115 -38c-34 -26 -53 -58 -56 -95c-1 -10 -2 -25 -2 -44
c0 -11 0 -21 1 -31c1 -11 2 -20 3 -28c1 -9 3 -17 4 -24c1 -8 3 -15 4 -21s3 -11 4 -15s2 -7 3 -10l1 -3l-43 -16c-15 46 -23 95 -23 147c0 50 8 89 24 116c17 31 43 57 79 78c36 20 75 30 116 30zM-416 541c38 0 70 -14 98 -41c26 -28 40 -62 40 -101s-14 -72 -40 -99
c-28 -28 -60 -42 -98 -42s-70 14 -98 42c-26 27 -40 60 -40 99s14 73 40 101c28 27 60 41 98 41zM-416 299c27 0 49 10 68 29c19 20 28 44 28 71s-9 51 -28 71c-19 19 -41 29 -68 29s-50 -10 -68 -29c-20 -20 -29 -44 -29 -71s9 -51 29 -71c18 -19 41 -29 68 -29z" />
    <glyph glyph-name="uniE867" unicode="&#xe867;" 
d="M-256 444c0 -35 -10 -66 -30 -93l79 -6l-10 -97l-41 4l5 55l-72 5c-27 -19 -57 -28 -91 -28c-33 0 -64 10 -92 29l-73 -6l6 -55l-41 -4l-11 97l80 6c-20 27 -30 58 -30 93c0 45 16 83 47 114c32 31 70 47 114 47s82 -16 113 -47s47 -69 47 -114zM-531 444
c0 -31 11 -58 34 -80c23 -23 50 -34 81 -34s58 11 80 34c23 22 34 49 34 80s-11 58 -34 81c-22 23 -49 34 -80 34s-58 -11 -81 -34s-34 -50 -34 -81z" />
    <glyph glyph-name="uniE870" unicode="&#xe870;" horiz-adv-x="833" 
d="M775 -21h-50v333c0 81 -31 150 -92 205s-133 83 -216 83s-155 -28 -217 -82c-61 -56 -92 -124 -92 -206v-333h-50v333c0 96 36 176 107 241s155 97 252 97s181 -32 251 -98c72 -64 107 -145 107 -240v-333zM417 17c-73 0 -136 26 -187 77c-52 51 -78 114 -78 187
s26 136 78 187c51 52 114 78 187 78s135 -26 187 -78c51 -51 77 -114 77 -187s-26 -136 -77 -187s-114 -77 -187 -77zM417 496c-59 0 -110 -21 -152 -63s-63 -93 -63 -152s21 -110 63 -151c42 -42 93 -63 152 -63s110 21 151 63c42 41 63 92 63 151s-21 110 -63 152
s-92 63 -151 63z" />
    <glyph glyph-name="uniE871" unicode="&#xe871;" 
d="M-274 317h-285v45h285v-45zM-269 200h-295v46h295v-46z" />
    <glyph glyph-name="uniE872" unicode="&#xe872;" 
d="M-416 95c-28 0 -50 13 -68 39c-16 27 -25 57 -25 92c-53 27 -80 64 -80 113c0 25 8 45 25 63c16 16 36 25 61 25c27 0 56 -12 87 -37c31 25 59 37 86 37c24 0 44 -9 62 -26c16 -17 25 -38 25 -62c0 -49 -27 -87 -81 -114c-1 -34 -9 -64 -26 -91c-17 -26 -39 -39 -66 -39z
M-503 385c-14 0 -25 -4 -33 -12c-7 -8 -11 -19 -11 -33c0 -29 15 -52 46 -70c10 35 28 65 54 91c-20 16 -39 24 -56 24zM-285 340c0 13 -4 24 -12 32c-8 9 -19 13 -33 13c-17 0 -35 -8 -55 -24c30 -35 49 -65 56 -90c29 19 44 42 44 69zM-463 252c17 -5 33 -8 47 -8
c15 0 31 3 48 8c-5 21 -21 48 -48 80c-23 -23 -39 -50 -47 -80zM-466 210c2 -20 8 -37 16 -52c10 -14 21 -21 34 -21c14 0 25 8 34 23c8 16 13 32 15 49c-20 -5 -36 -7 -49 -7c-11 0 -27 3 -50 8z" />
    <glyph glyph-name="uniE896" unicode="&#xe896;" 
d="M-611 97v386h389v-386h-389zM-432 443h-135v-306h116l73 145h-140l89 156zM-317 320l-91 -183h142v306h-117l-70 -123h136z" />
    <glyph glyph-name="uniE913" unicode="&#xe913;" horiz-adv-x="833" 
d="M417 -46c-102 0 -189 36 -261 108s-108 159 -108 261c0 101 36 188 108 261c73 72 160 108 261 108s188 -36 260 -108c72 -73 108 -160 108 -261c0 -102 -36 -189 -107 -261c-72 -72 -159 -108 -261 -108zM417 642c-88 0 -163 -31 -225 -94c-63 -62 -94 -137 -94 -225
s31 -163 94 -225c62 -63 137 -94 225 -94s163 31 225 94c62 62 93 137 93 225s-31 163 -93 225c-62 63 -137 94 -225 94zM417 100c-62 0 -115 22 -158 65s-65 96 -65 158c0 61 22 114 66 157c43 44 96 66 157 66s113 -22 157 -66s66 -96 66 -157s-22 -114 -66 -157
c-43 -44 -96 -66 -157 -66zM417 496c-47 0 -88 -17 -122 -51s-51 -75 -51 -122c0 -48 17 -89 51 -123c34 -33 75 -50 122 -50s88 17 122 50c34 34 51 75 51 123c0 47 -17 88 -51 122s-75 51 -122 51z" />
    <glyph glyph-name="uniE915" unicode="&#xe915;" 
d="M-216 58h-95l-101 244l-124 -179l48 -16l-16 -47l-110 38l213 308l123 -298h62v-50z" />
    <glyph glyph-name="uniE917" unicode="&#xe917;" 
d="M-289 393l34 -36l-125 -117l125 -118l-34 -36l-127 119l-128 -119l-34 36l125 118l-125 117l34 36l128 -119z" />
    <glyph glyph-name="uniE919" unicode="&#xe919;" 
d="M-609 155c18 45 43 84 76 115s72 47 117 47s84 -16 116 -47c33 -31 58 -70 76 -115l-46 -18c-15 40 -36 71 -62 95c-27 22 -55 34 -84 34c-30 0 -58 -12 -84 -34c-27 -24 -48 -55 -63 -95z" />
    <glyph glyph-name="uniE921" unicode="&#xe921;" 
d="M-321 408v-73h92v-45h-92v-100h92v-46h-92v-73h-45v73h-100v-73h-46v73h-92v46h92v100h-92v45h92v73h46v-73h100v73h45zM-366 190v100h-100v-100h100z" />
    <glyph glyph-name="uniE923" unicode="&#xe923;" 
d="M-575 83v315h317v-315h-46v269h-90v-256h-46v256h-89v-269h-46z" />
    <glyph glyph-name="uniE925" unicode="&#xe925;" 
d="M-416 56c-51 0 -94 18 -130 54s-54 79 -54 130s18 94 54 130c36 35 79 53 130 53c50 0 93 -18 129 -54s54 -79 54 -129c0 -51 -18 -94 -53 -130c-36 -36 -79 -54 -130 -54zM-416 377c-38 0 -70 -13 -98 -40c-26 -27 -40 -59 -40 -97s14 -70 40 -98c28 -26 60 -40 98 -40
s70 14 98 40c26 28 40 60 40 98s-14 70 -40 97c-28 27 -60 40 -98 40zM-319 204h-118v138h41v-96h77v-42z" />
    <glyph glyph-name="uniE930" unicode="&#xe930;" 
d="M-314 147l44 92l41 -20l-75 -158l-112 141l-113 -141l-75 158l42 20l43 -92l73 92l-113 143l36 28l107 -134l107 134l35 -28l-113 -143z" />
    <glyph glyph-name="uniE941" unicode="&#xe941;" horiz-adv-x="833" 
d="M441 262v-226h-49v226h-246v-247h-53l11 297h625l11 -297h-52v247h-247z" />
    <glyph glyph-name="uniE942" unicode="&#xe942;" horiz-adv-x="833" 
d="M720 312l13 -297h-52l-3 247h-107l5 -226h-52l-3 226h-209l-3 -226h-52l5 226h-109v-247h-53l11 297h609z" />
    <glyph glyph-name="uniE943" unicode="&#xe943;" 
d="M-569 451v-84h-43v315h392v-315h-43v84h-132v-82h-43v82h-131zM-569 639v-145h306v145h-306z" />
    <glyph glyph-name="uniE944" unicode="&#xe944;" 
d="M-208 562c0 24 -9 44 -27 60s-40 24 -65 24h-161v42h161c37 0 68 -12 94 -36s39 -54 39 -90c0 -34 -10 -63 -29 -88c-19 -24 -44 -39 -74 -44v-62h-42v101h21c24 0 44 9 59 28c16 19 24 40 24 65zM-388 606c10 0 18 -3 25 -10s10 -15 10 -25s-3 -19 -10 -25
c-7 -8 -15 -11 -25 -11s-18 3 -25 11c-7 6 -10 15 -10 25s3 18 10 25s15 10 25 10zM-256 571c0 -10 -4 -19 -10 -25c-8 -8 -16 -11 -25 -11c-10 0 -18 3 -25 11c-7 6 -10 15 -10 25s3 18 10 25s15 10 25 10c9 0 17 -3 25 -10c6 -7 10 -15 10 -25zM-403 368v100h42v-100h-42z
M-451 468v-100h-42v100h42zM-541 468v-100h-42v100h42z" />
    <glyph glyph-name="uniE945" unicode="&#xe945;" horiz-adv-x="833" 
d="M771 271v-50h-115l13 -242h-50l-13 242h-379l-13 -242h-50l13 242h-114v50h708z" />
    <glyph glyph-name="uniE946" unicode="&#xe946;" 
d="M-419 310c-51 0 -94 18 -129 55s-53 80 -53 131s18 94 53 130c35 37 78 55 129 55c36 0 69 -10 99 -29c29 -20 51 -46 66 -79h93v-46h-79c2 -10 3 -20 3 -31c0 -50 -18 -94 -53 -130c-36 -38 -79 -56 -129 -56zM-419 635c-50 0 -88 -21 -114 -62h227
c-26 41 -64 62 -113 62zM-552 527c-3 -13 -4 -24 -4 -31c0 -39 14 -72 40 -99c28 -27 60 -41 97 -41s69 14 96 41s40 60 40 99c0 7 -1 18 -4 31h-265z" />
    <glyph glyph-name="uniE947" unicode="&#xe947;" 
d="M-324 502c54 -26 81 -74 81 -145v-55h-44v55c0 38 -10 67 -31 87s-50 30 -88 30s-67 -10 -88 -30c-21 -21 -31 -50 -31 -87v-55h-22l-89 92l32 31l37 -39c7 57 33 95 80 116c-25 17 -44 41 -59 72c-14 30 -21 63 -21 99v23h324v-23c0 -36 -7 -69 -22 -100
s-34 -54 -59 -71zM-521 651c4 -35 17 -65 37 -91c22 -26 48 -39 79 -39s57 13 79 39c20 26 33 56 37 91h-232z" />
    <glyph glyph-name="uniE948" unicode="&#xe948;" 
d="M-187 358v-50h-254v362h254v-50h-205v-262h205zM-552 437c-14 0 -26 5 -36 15c-11 10 -16 22 -16 37c0 14 5 26 16 37c10 10 22 15 36 15c15 0 27 -5 37 -15c10 -11 15 -23 15 -37c0 -15 -5 -27 -15 -37s-22 -15 -37 -15z" />
    <glyph glyph-name="uniE949" unicode="&#xe949;" 
d="M-325 493c49 -26 73 -71 73 -136v-53h-43v53c0 35 -10 63 -29 82c-20 19 -48 29 -83 29c-37 0 -65 -10 -84 -28c-19 -20 -29 -47 -29 -83v-53h-23l-85 88l32 30l34 -36c7 50 31 86 72 107c-33 25 -49 56 -49 91c0 33 13 61 41 83c26 22 57 33 91 33s65 -11 92 -33
s41 -50 41 -83c0 -38 -17 -68 -51 -91zM-496 584c0 -20 9 -37 26 -52c17 -14 38 -21 63 -21s46 7 63 21c17 15 26 32 26 52s-9 37 -26 52c-17 14 -38 21 -63 21s-46 -7 -63 -21c-17 -15 -26 -32 -26 -52z" />
    <glyph glyph-name="uniE94A" unicode="&#xe94a;" 
d="M-645 358h205v262h-205v50h254v-362h-254v50zM-280 437c-15 0 -27 5 -37 15s-15 22 -15 37c0 14 5 26 15 37c10 10 22 15 37 15c14 0 26 -5 36 -15c11 -11 16 -23 16 -37c0 -15 -5 -27 -16 -37c-10 -10 -22 -15 -36 -15z" />
    <glyph glyph-name="uniE950" unicode="&#xe950;" 
d="M-416 310c-57 0 -106 20 -146 60c-39 39 -59 87 -59 144v174h47v-174c0 -44 15 -81 46 -112c31 -30 68 -45 112 -45c43 0 80 15 111 46s46 68 46 111v174h48v-174c0 -57 -20 -106 -60 -145s-88 -59 -145 -59z" />
    <glyph glyph-name="uniE955" unicode="&#xe955;" horiz-adv-x="833" 
d="M573 535c45 0 81 10 109 31c29 21 43 50 43 89v11h50v-11c0 -53 -19 -94 -57 -125c-39 -30 -87 -45 -145 -45c-27 0 -53 5 -77 14c-23 9 -41 18 -52 27s-26 21 -44 38c-16 15 -29 26 -39 34c-10 7 -24 14 -42 21s-38 10 -59 10c-45 0 -81 -10 -110 -31
c-28 -20 -42 -49 -42 -88v-12h-50v12c0 53 19 94 58 124c38 30 86 45 144 45c27 0 53 -5 76 -13c24 -10 42 -18 54 -28c11 -8 26 -21 44 -38c17 -15 30 -27 39 -34s23 -14 41 -21s38 -10 59 -10zM573 37c44 0 80 10 109 31s43 50 43 89v12h50v-12c0 -53 -19 -94 -57 -125
c-39 -30 -87 -45 -145 -45c-27 0 -53 5 -77 14c-23 9 -41 18 -52 27s-26 21 -44 38c-17 15 -30 27 -40 34c-9 7 -23 14 -41 22c-18 6 -38 10 -59 10c-44 0 -80 -10 -109 -31s-43 -50 -43 -89v-12h-50v12c0 53 19 94 58 124c38 31 86 46 144 46c27 0 53 -4 76 -14
c24 -8 42 -18 54 -26c11 -10 26 -22 44 -39c17 -15 30 -27 39 -34s23 -15 41 -21c18 -8 38 -11 59 -11z" />
    <glyph glyph-name="uniE961" unicode="&#xe961;" 
d="M-394 398h-45v89h45v-89zM-313 367l-31 34l58 53l31 -33zM-520 367l-58 54l31 33l59 -53zM-286 81h-261v251h261v-251zM-501 127h169v159h-169v-159z" />
    <glyph glyph-name="uniE990" unicode="&#xe990;" horiz-adv-x="924" 
d="M146 -21h-50v667h50v-667zM375 -21h-50v667h50v-667zM604 -21h-50v667h50v-667zM833 -21h-50v667h50v-667z" />
    <glyph glyph-name="uniE991" unicode="&#xe991;" horiz-adv-x="833" 
d="M754 -21h-50v579l-149 -95l-27 41l226 146v-671zM133 -21h-50v667h50v-667zM404 -21h-50v667h50v-667z" />
    <glyph glyph-name="uniE996" unicode="&#xe996;" horiz-adv-x="833" 
d="M275 -21h-50v579l-149 -95l-27 41l226 146v-671zM529 -21h-50v667h50v-667zM771 -21h-50v667h50v-667z" />
    <glyph glyph-name="uniF004" unicode="&#xf004;" 
d="M-171 186l-52 88c-3 -5 -8 -17 -16 -37l-33 -75c-2 -5 -5 -11 -8 -19c-4 -8 -7 -14 -8 -19c-22 65 -41 120 -58 166c-31 -93 -54 -163 -70 -210c-16 47 -39 117 -70 210c-27 -73 -46 -129 -59 -166c-5 12 -11 25 -16 38l-33 75c-2 4 -5 10 -8 19c-4 8 -7 14 -8 18
l-52 -88v73c2 3 4 8 8 14l6 13l28 55c1 3 4 8 6 14c4 6 6 10 8 13c1 -4 4 -10 6 -17c4 -7 6 -13 8 -16l29 -64c3 -7 7 -18 14 -33c28 80 49 140 64 180l69 -206c2 7 5 16 9 28l8 24l34 102l8 24c4 12 7 21 9 28c15 -40 36 -100 64 -180c1 4 4 10 6 17c4 7 6 13 8 16l29 64
c3 7 7 18 14 33c2 -3 5 -7 7 -13c4 -6 6 -11 7 -14l28 -55c1 -3 4 -8 7 -14s6 -10 7 -13v-73z" />
    <glyph glyph-name="uniF010" unicode="&#xf010;" horiz-adv-x="833" 
d="M712 -25h-591v675h591v-675zM171 25h491v575h-491v-575zM469 510c0 -14 -5 -26 -15 -36c-10 -11 -22 -16 -37 -16s-27 5 -37 16c-10 10 -15 22 -15 36c0 15 5 27 15 37s22 15 37 15s27 -5 37 -15s15 -22 15 -37zM312 489c0 -14 -5 -26 -15 -37c-10 -10 -22 -15 -37 -15
s-27 5 -37 15c-10 11 -15 23 -15 37c0 15 5 27 15 37s22 15 37 15s27 -5 37 -15s15 -22 15 -37zM625 489c0 -14 -5 -26 -15 -37c-10 -10 -22 -15 -37 -15s-27 5 -37 15c-10 11 -15 23 -15 37c0 15 5 27 15 37s22 15 37 15s27 -5 37 -15s15 -22 15 -37z" />
    <glyph glyph-name="uniF011" unicode="&#xf011;" 
d="M-224 303c-18 -45 -43 -83 -76 -115c-32 -30 -71 -46 -116 -46s-84 16 -118 47c-32 31 -58 69 -75 114l46 18c15 -40 36 -71 63 -95c26 -22 54 -34 84 -34c29 0 57 12 84 34c26 24 47 55 62 95z" />
    <glyph glyph-name="uniF012" unicode="&#xf012;" 
d="M-237 240c0 -49 -18 -91 -53 -126c-35 -36 -77 -54 -126 -54s-92 18 -127 53s-53 78 -53 127s18 91 53 126s78 53 127 53s92 -17 126 -53c36 -34 53 -77 53 -126zM-286 267c-5 27 -18 49 -38 68c-19 19 -42 31 -69 36v-104h107zM-439 371c-27 -5 -50 -17 -70 -35
c-20 -20 -33 -42 -38 -69h108v104zM-549 222c4 -29 16 -54 37 -74c20 -22 44 -35 73 -40v114h-110zM-393 108c29 5 53 18 73 40c20 20 32 45 36 74h-109v-114z" />
    <glyph glyph-name="uniF013" unicode="&#xf013;" 
d="M-202 63h-429v333h429v-333zM-589 104h346v250h-346v-250zM-521 200c-10 0 -18 4 -25 10c-7 8 -10 16 -10 26c0 9 3 18 10 24c7 8 15 11 25 11s19 -3 25 -11c8 -6 11 -15 11 -24c0 -10 -3 -18 -11 -26c-6 -6 -15 -10 -25 -10zM-312 200c-10 0 -18 4 -26 10
c-6 8 -10 16 -10 26c0 9 4 18 10 24c8 8 16 11 26 11s18 -3 25 -11c7 -6 10 -15 10 -24c0 -10 -3 -18 -10 -26c-7 -6 -15 -10 -25 -10zM-416 200c-10 0 -18 4 -26 10c-6 8 -10 16 -10 26c0 9 4 18 10 24c8 8 16 11 26 11s18 -3 25 -11c7 -6 10 -15 10 -24
c0 -10 -3 -18 -10 -26c-7 -6 -15 -10 -25 -10z" />
    <glyph glyph-name="uniF014" unicode="&#xf014;" 
d="M-394 353h-45v84h45v-84zM-290 303l-37 27l47 65l37 -27zM-543 303l-47 65l37 27l47 -65zM-416 60c-39 0 -72 13 -99 40c-27 26 -41 57 -41 94s14 68 41 94s60 39 99 39s72 -13 98 -39c28 -26 41 -57 41 -94s-13 -69 -41 -95c-26 -26 -59 -39 -98 -39zM-416 281
c-26 0 -48 -9 -66 -25c-19 -18 -28 -38 -28 -62s9 -45 28 -62c18 -17 40 -26 66 -26s48 9 66 26s27 38 27 62s-9 44 -27 62c-18 16 -40 25 -66 25z" />
    <glyph glyph-name="uniF015" unicode="&#xf015;" 
d="M-303 186v331h42v-331h-42zM-574 230c2 -2 5 -3 8 -3c4 2 9 12 16 31c5 19 8 45 8 76v15h40v-13c0 -45 3 -78 10 -97c3 -9 6 -13 11 -13c3 1 6 4 9 7s5 8 6 13c1 6 2 12 4 17c0 5 1 12 2 20s1 15 1 19c0 6 0 12 1 20v14v22c1 8 1 15 1 20v9h39v-37c0 -3 0 -11 1 -26
c1 -14 1 -24 1 -30c1 -5 2 -13 3 -24c1 -10 3 -18 5 -25s5 -13 8 -18l2 -1h4c4 1 7 3 10 6s5 8 6 16c1 6 2 12 3 16c1 3 1 10 2 20c1 9 1 15 1 16c1 16 2 43 2 80v66h42v-92v-22c-1 -12 -1 -19 -2 -24v-21c-1 -9 -2 -17 -2 -21c-2 -6 -3 -12 -4 -20c-1 -7 -3 -13 -5 -18
s-5 -10 -7 -15c-4 -5 -7 -10 -11 -14c-10 -10 -23 -15 -38 -15h-4c-16 2 -28 11 -37 27c-11 -18 -26 -27 -45 -27c-16 4 -26 7 -29 10s-8 8 -13 16c-13 -16 -28 -24 -46 -24c-10 1 -20 6 -31 15l-7 8l26 27z" />
    <glyph glyph-name="uniF020" unicode="&#xf020;" horiz-adv-x="833" 
d="M417 358c63 0 122 -10 176 -31s94 -50 121 -87c19 -25 28 -53 28 -84c0 -58 -33 -107 -100 -147c-64 -37 -139 -55 -225 -55c-63 0 -122 10 -177 32c-54 20 -94 50 -121 87c-19 25 -28 53 -28 83c0 58 33 107 100 147c64 37 139 55 226 55zM686 187c-7 20 -20 38 -40 53
c-18 16 -40 28 -65 38c-25 8 -49 16 -72 20c-23 6 -46 9 -67 10v-121h244zM392 308c-49 -2 -98 -13 -148 -34c-51 -20 -83 -49 -97 -87h245v121zM143 137c5 -22 17 -42 36 -59s42 -31 67 -40c26 -10 51 -18 76 -23s48 -9 70 -10v132h-249zM442 5c22 1 45 5 70 10
s50 13 76 23c25 9 48 23 66 40c20 17 31 37 36 59h-248v-132z" />
    <glyph glyph-name="uniF021" unicode="&#xf021;" 
d="M-287 460c-27 0 -59 6 -96 18c-7 -37 -10 -60 -10 -69v-6l2 -54h-50l2 54c-2 28 -5 53 -10 75c-37 -12 -73 -18 -107 -18c-49 0 -87 18 -116 52c-28 36 -42 79 -42 131v13l1 18l18 4c29 9 60 13 91 13c93 -3 156 -55 188 -154c33 99 97 151 190 154c31 0 61 -4 90 -13
l17 -4l2 -18v-14c-6 -58 -22 -103 -48 -134c-26 -32 -67 -48 -122 -48zM-461 522c-26 80 -73 120 -141 120h-16c-7 0 -16 -1 -28 -4c-11 -2 -17 -3 -18 -3l1 -1c5 -85 45 -127 119 -127c23 0 50 5 83 15zM-289 507c39 0 69 11 89 35c22 22 32 54 32 93c-20 5 -39 7 -57 7
c-69 0 -118 -40 -146 -120c34 -10 61 -15 82 -15z" />
    <glyph glyph-name="uniF022" unicode="&#xf022;" 
d="M-218 536v-150h-395v150l197 178zM-568 428h305v88l-153 140l-152 -140v-88z" />
    <glyph glyph-name="uniF024" unicode="&#xf024;" horiz-adv-x="832" 
d="M417 -46c-91 0 -169 20 -236 61c-65 41 -98 89 -98 144s33 103 98 144c63 40 141 60 236 60c92 0 170 -20 235 -60s98 -88 98 -144c0 -55 -33 -103 -98 -144c-67 -41 -145 -61 -235 -61zM417 313c-78 0 -145 -15 -201 -45c-55 -30 -83 -66 -83 -109s28 -79 83 -109
c57 -31 124 -46 201 -46c76 0 143 15 200 46c55 30 83 66 83 109s-28 79 -83 109c-56 30 -123 45 -200 45zM603 120h-211v149h49v-99h162v-50z" />
    <glyph glyph-name="uniF025" unicode="&#xf025;" horiz-adv-x="833" 
d="M733 2c-6 -2 -18 -5 -37 -10l-75 -21c-5 -1 -11 -2 -19 -5c-9 -3 -15 -4 -19 -5l-3 12l-7 24l-3 12c2 1 5 1 10 3c4 0 7 1 9 2l36 10c2 1 5 2 9 2c5 2 8 2 10 3l-223 261l-172 -336h-129v50h98l193 375c21 -24 47 -55 80 -94l162 -189c9 -11 23 -27 41 -48s31 -36 39 -46
z" />
    <glyph glyph-name="uniF026" unicode="&#xf026;" horiz-adv-x="833" 
d="M264 9c-2 -5 -4 -13 -7 -24l-6 -24c-4 1 -10 2 -19 5c-8 2 -14 4 -18 5l-75 21c-5 1 -11 3 -19 6c-9 2 -15 3 -19 4c5 7 14 17 26 30c188 220 287 336 296 347c3 -7 9 -18 17 -33c39 -76 97 -190 176 -342h98v-50h-129l-172 336l-223 -261c2 -1 5 -1 10 -3c4 0 7 -1 9 -2
l36 -10c2 -1 5 -2 9 -2c5 -2 8 -2 10 -3z" />
    <glyph glyph-name="uniF027" unicode="&#xf027;" horiz-adv-x="833" 
d="M105 -46v50h81l231 372c25 -41 45 -72 58 -93l114 -186c13 -21 33 -52 58 -93h81v-50h-108c-5 9 -14 23 -25 41s-20 32 -26 41l-101 164c-5 9 -14 22 -25 40c-11 19 -20 33 -26 42c-5 -9 -14 -22 -25 -40c-11 -19 -20 -33 -26 -42l-101 -164c-6 -9 -15 -23 -26 -41
s-20 -32 -25 -41h-109z" />
    <glyph glyph-name="uniF028" unicode="&#xf028;" horiz-adv-x="833" 
d="M469 240c0 -15 -5 -27 -15 -37s-22 -15 -37 -15s-27 5 -37 15s-15 22 -15 37c0 14 5 26 15 36c10 11 22 16 37 16s27 -5 37 -16c10 -10 15 -22 15 -36zM771 -46h-708v50h708v-50z" />
    <glyph glyph-name="uniF029" unicode="&#xf029;" horiz-adv-x="833" 
d="M708 54h-583v50h583v-50zM708 -46h-583v50h583v-50z" />
    <glyph glyph-name="uniF02A" unicode="&#xf02a;" horiz-adv-x="833" 
d="M666 23v-46h-499v46h227v204h-227v46h499v-46h-227v-204h227z" />
    <glyph glyph-name="uniF036" unicode="&#xf036;" 
d="M-452 193c-32 0 -64 6 -97 18c-9 3 -13 9 -13 19c0 12 5 19 16 21c33 8 62 23 86 45c25 23 37 50 37 82s-12 59 -37 82c-24 22 -53 37 -86 45c-11 2 -16 9 -16 20c0 9 4 16 13 20c31 11 63 17 97 17c58 0 110 -17 157 -50c47 -34 70 -79 70 -134s-23 -100 -71 -134
c-46 -34 -99 -51 -156 -51zM-471 236c4 -1 10 -1 19 -1c51 0 95 14 131 42s54 62 54 101c0 45 -20 80 -59 105c-40 25 -84 38 -131 38l-9 -1h-5c27 -16 48 -36 65 -62c17 -24 25 -51 25 -80s-8 -56 -25 -80c-17 -26 -38 -46 -65 -62z" />
    <glyph glyph-name="uniF038" unicode="&#xf038;" 
d="M-392 535c39 -5 74 -23 102 -51c30 -30 47 -64 52 -103h51v-50h-51c-5 -39 -22 -73 -52 -102c-28 -29 -63 -46 -102 -51v-53h-49v53c-39 5 -73 22 -103 51c-28 29 -46 63 -51 102h-50v50h50c5 39 23 73 51 103c30 28 64 46 103 51v48h49v-48zM-416 226c36 0 66 13 92 38
c24 25 37 56 37 92s-13 67 -37 92c-26 25 -56 38 -92 38s-67 -13 -92 -38s-38 -56 -38 -92s13 -67 38 -92s56 -38 92 -38z" />
    <glyph glyph-name="uniF062" unicode="&#xf062;" horiz-adv-x="833" 
d="M795 83h-50c0 51 -18 97 -54 135c-36 40 -78 68 -127 85s-98 26 -147 26s-99 -9 -147 -26c-50 -17 -92 -45 -128 -85c-37 -38 -55 -84 -55 -135h-50c0 83 38 154 114 212c72 56 161 84 266 84c59 0 116 -11 173 -33s105 -56 145 -103s60 -100 60 -160z" />
    <glyph glyph-name="uniF064" unicode="&#xf064;" 
d="M-543 478l-26 43l104 63l-104 64l26 42l127 -76l125 76l26 -42l-103 -64l103 -63l-26 -43l-125 77z" />
    <glyph glyph-name="uniF065" unicode="&#xf065;" 
d="M-416 479l-105 129l39 32l66 -81l66 81l38 -32z" />
    <glyph glyph-name="uniF070" unicode="&#xf070;" horiz-adv-x="833" 
d="M96 696h641v-717h-49v138h-247v-134h-49v134h-246v-138h-50v717zM688 167v479h-542v-479h542z" />
    <glyph glyph-name="uniF101" unicode="&#xf101;" 
d="M-393 294h-46v289h46v-289zM-307 66c-11 23 -24 47 -39 71c-25 -45 -60 -68 -104 -68c-24 0 -43 6 -58 18s-22 30 -22 53c0 28 9 51 28 68c18 17 41 26 69 26c37 0 65 -8 86 -25c22 -19 49 -59 80 -120l1 -4c-13 -7 -27 -13 -41 -19zM-433 189c-15 0 -28 -4 -37 -13
s-14 -21 -14 -36c0 -7 2 -13 7 -18c7 -5 16 -8 28 -8c31 0 55 20 70 61c-11 9 -28 13 -52 14h-2z" />
    <glyph glyph-name="uniF102" unicode="&#xf102;" 
d="M-567 478c-11 0 -21 4 -28 11s-11 17 -11 28s4 21 12 29c7 7 16 11 27 11s21 -4 29 -11c7 -8 11 -18 11 -29s-4 -20 -11 -27c-8 -8 -18 -12 -29 -12zM-266 478c-11 0 -20 4 -28 11c-7 7 -11 17 -11 28s4 21 11 29c8 7 17 11 28 11s20 -4 28 -11c7 -8 11 -18 11 -29
s-4 -21 -11 -28c-8 -7 -17 -11 -28 -11zM-291 363c4 -23 6 -48 6 -73h105v-38h-105c-2 -25 -6 -50 -12 -73h75v-38h-87c-4 -11 -7 -18 -10 -23c-26 -51 -58 -77 -97 -77c-40 0 -73 26 -98 77c-3 5 -6 12 -10 23h-87v38h75c-5 19 -9 44 -11 73h-106v38h105c0 25 2 50 6 73
h-69v38h78c9 34 24 64 43 89c20 25 45 38 74 38s54 -13 73 -38s34 -55 43 -89h78v-38h-69zM-416 486c-29 0 -53 -28 -73 -85h145c-20 57 -44 85 -72 85zM-499 363c-5 -31 -8 -55 -8 -73h181c0 22 -2 46 -7 73h-166zM-340 179c7 21 11 46 13 73h-178c2 -27 6 -52 13 -73h152z
M-357 137l2 4h-123l2 -4c18 -36 38 -54 60 -54c21 0 41 18 59 54z" />
    <glyph glyph-name="uniF103" unicode="&#xf103;" 
d="M-246 517l34 -37l-168 -157l168 -158l-34 -36l-170 159l-171 -159l-34 36l168 158l-168 157l34 37l171 -160z" />
    <glyph glyph-name="uniF104" unicode="&#xf104;" 
d="M-257 419l37 27l88 -123l-88 -121l-37 27l52 71h-99c-6 -60 -33 -109 -80 -148s-102 -58 -163 -58h-22v206h-104v46h104v206h22c61 0 115 -20 163 -58c48 -40 75 -89 80 -148h100zM-524 505v-159h174c-5 41 -24 77 -58 107c-32 30 -71 47 -116 52zM-524 141
c45 5 84 23 117 53c33 29 52 65 57 106h-174v-159z" />
    <glyph glyph-name="uniF105" unicode="&#xf105;" 
d="M-416 376c15 29 33 52 52 69c20 17 46 25 78 25c38 0 69 -15 92 -44c24 -30 36 -64 36 -103s-12 -73 -36 -103c-24 -29 -55 -44 -92 -44c-32 0 -58 8 -78 24c-19 17 -37 40 -52 69c-33 -62 -76 -93 -131 -93c-38 0 -69 15 -93 44c-23 29 -35 64 -35 103
c0 38 12 72 37 102c24 30 54 45 91 45c32 0 58 -8 78 -25s38 -40 53 -69zM-286 216c23 0 42 11 58 33c14 22 22 47 22 74s-8 51 -22 73c-16 22 -35 33 -58 33c-11 0 -22 -3 -32 -8s-18 -10 -23 -15c-5 -4 -12 -13 -21 -27c-8 -14 -13 -23 -14 -26c-2 -3 -7 -13 -15 -30
c9 -19 15 -31 19 -38c3 -7 10 -17 19 -31s19 -24 30 -30c11 -5 23 -8 37 -8zM-627 323c0 -27 7 -52 23 -74c14 -22 34 -33 57 -33c17 0 32 6 46 17s25 23 31 35c8 11 15 27 24 46c2 4 3 7 4 9c-21 43 -38 71 -52 84c-15 15 -33 22 -53 22c-23 0 -42 -11 -57 -33
s-23 -46 -23 -73z" />
    <glyph glyph-name="uniF106" unicode="&#xf106;" 
d="M-267 242v258h50v-308h-399v308h50v-258h299zM-416 162c11 0 20 -4 28 -12c7 -7 11 -17 11 -28s-4 -20 -11 -28c-8 -7 -17 -11 -28 -11s-20 4 -28 11c-7 8 -11 17 -11 28s4 21 11 28c8 8 17 12 28 12z" />
    <glyph glyph-name="uniF107" unicode="&#xf107;" 
d="M-416 401l174 110l27 -42l-201 -127l-201 127l26 42zM-617 177l201 126l201 -126l-27 -43l-174 111l-175 -111z" />
    <glyph glyph-name="uniF108" unicode="&#xf108;" 
d="M-241 515l39 -30l-190 -240v-182h-49v182l-189 240l39 30l175 -221z" />
    <glyph glyph-name="uniF109" unicode="&#xf109;" 
d="M-208 162h-115l-93 270l-94 -270h-115v50h80l129 373l128 -373h80v-50z" />
    <glyph glyph-name="uniF110" unicode="&#xf110;" 
d="M-628 87l-36 35c5 5 11 11 16 17c6 6 13 13 20 19c7 8 13 13 17 17l106 106l53 53l-53 53l-106 105l-53 53l9 9l18 17l9 9l246 -246zM-419 87l-35 35l53 53l105 106l53 53l-211 211l35 35c27 -27 48 -48 62 -61l185 -185z" />
    <glyph glyph-name="uniF111" unicode="&#xf111;" 
d="M-392 525v-177h178v-50h-178v-177h-49v177h-178v50h178v177h49z" />
    <glyph glyph-name="uniF112" unicode="&#xf112;" 
d="M-407 258c-10 -47 -25 -83 -45 -108c-19 -25 -50 -38 -93 -38c-27 0 -49 9 -67 28c-18 18 -27 40 -27 67c0 35 13 62 39 81s57 29 92 29c21 0 43 -2 66 -5l3 12l2 13c0 2 1 4 2 7c-41 11 -78 30 -111 58s-59 61 -78 98l41 21c32 -65 84 -109 157 -132c11 47 26 82 46 107
c19 25 50 37 93 37c26 0 48 -9 66 -28s27 -41 27 -68c0 -33 -12 -59 -37 -79c-25 -19 -55 -29 -91 -29c-27 0 -50 1 -69 4l-1 -3v-2l-2 -13l-3 -12c91 -25 154 -77 191 -158l-42 -19c-31 68 -84 112 -159 132zM-322 375c23 0 43 5 58 15c16 11 24 26 24 47
c0 13 -4 25 -12 35c-9 10 -20 15 -35 15c-30 0 -51 -9 -63 -27c-13 -18 -23 -45 -31 -81c17 -3 36 -4 59 -4zM-508 271c-25 0 -45 -5 -61 -17c-16 -10 -24 -26 -24 -47c0 -13 4 -25 13 -35c8 -9 20 -14 35 -14c33 0 56 13 70 38c8 15 16 38 24 71c-18 3 -37 4 -57 4z" />
    <glyph glyph-name="uniF113" unicode="&#xf113;" 
d="M-416 565c67 0 124 -24 170 -71c48 -47 71 -104 71 -171s-23 -124 -71 -171c-46 -47 -103 -71 -170 -71s-124 23 -171 71c-47 46 -71 104 -71 171s24 124 71 171s104 71 171 71zM-416 127c54 0 100 19 138 57c38 39 57 85 57 139s-19 100 -57 139c-38 38 -84 57 -138 57
s-100 -19 -138 -57c-39 -39 -58 -85 -58 -139c0 -55 19 -101 57 -139s84 -57 139 -57z" />
    <glyph glyph-name="uniF114" unicode="&#xf114;" 
d="M-416 329c-42 0 -80 -14 -113 -41c-33 -28 -50 -61 -50 -100h-50c0 54 22 99 65 136c44 37 93 55 148 55s104 -18 148 -55c42 -37 64 -82 64 -136h-50c0 39 -16 73 -50 100c-32 27 -70 41 -112 41z" />
    <glyph glyph-name="uniF115" unicode="&#xf115;" 
d="M-640 219v278h447v-278h-200v-136h-46v136h-201zM-239 265v186h-154v-186h154zM-594 451v-186h155v186h-155z" />
    <glyph glyph-name="uniF116" unicode="&#xf116;" 
d="M-214 141h-405v379h50v-329h305v329h50v-379zM-377 343c0 -11 -4 -21 -11 -28c-8 -7 -17 -11 -28 -11s-20 4 -28 11c-7 7 -11 17 -11 28s4 21 11 28c8 7 17 11 28 11s20 -4 28 -11c7 -7 11 -17 11 -28z" />
    <glyph glyph-name="uniF117" unicode="&#xf117;" 
d="M-187 383c0 -8 -3 -18 -7 -29c-6 -12 -12 -21 -19 -27c17 -24 25 -50 25 -79c0 -41 -16 -70 -48 -90c-32 -18 -73 -28 -124 -28c-16 0 -42 2 -78 6c-25 5 -46 9 -62 13c-25 -25 -51 -45 -77 -62l-23 35c18 12 36 26 54 42c-60 24 -90 62 -90 115c0 39 20 89 61 152
c-4 -1 -9 -3 -13 -5c-6 -2 -11 -4 -18 -7c-6 -3 -11 -5 -14 -6l-16 38c63 25 96 39 100 40c46 61 94 92 144 92c60 0 90 -31 90 -92c32 -6 59 -18 82 -36c22 -18 33 -42 33 -72zM-419 504c30 0 55 -2 75 -5c0 5 -1 11 -2 16c-6 17 -21 26 -46 26c-27 0 -54 -13 -79 -38
c10 1 27 1 52 1zM-511 454c-55 -76 -83 -134 -83 -174c0 -36 24 -63 72 -81l2 -1l6 -2c1 -1 1 -1 2 -1c28 29 53 59 75 88c-19 2 -35 8 -48 18s-20 24 -20 41c0 19 9 36 27 50c19 14 41 21 66 21c11 0 27 -1 48 -4c8 19 13 36 16 49c-18 3 -42 5 -71 5c-39 0 -70 -3 -92 -9z
M-307 450c-5 -19 -10 -36 -16 -50c32 -9 59 -23 82 -42l5 5l7 23l-1 3v3c0 20 -19 37 -57 51c-1 1 -1 1 -3 1c0 0 -1 0 -2 1l-10 3c-3 1 -4 2 -5 2zM-412 371c-15 0 -27 -3 -36 -10c-10 -7 -15 -13 -15 -19c0 -11 17 -18 52 -20c7 10 17 26 28 47c-15 1 -24 2 -29 2z
M-340 361c-5 -11 -12 -23 -21 -38c31 2 57 6 79 13c-13 9 -33 17 -58 25zM-360 171c87 0 130 26 130 77c0 20 -6 39 -18 56c-34 -15 -81 -23 -140 -24c-21 -31 -46 -63 -76 -95c-1 -1 -1 -1 -1 -2c38 -8 73 -12 105 -12z" />
    <glyph glyph-name="uniF118" unicode="&#xf118;" 
d="M-211 359c0 -47 -15 -90 -44 -128l70 -69l-33 -32l-69 69c-38 -31 -81 -46 -129 -46c-49 0 -92 15 -130 46l-69 -69l-32 32l69 69c-29 38 -44 81 -44 128c0 57 20 105 60 145c41 41 89 61 146 61s105 -20 145 -61c40 -40 60 -88 60 -145zM-416 199c44 0 82 16 112 47
c32 31 47 69 47 113s-15 82 -47 113c-30 31 -68 47 -112 47s-82 -16 -113 -47s-47 -69 -47 -113s16 -82 47 -113s69 -47 113 -47z" />
    <glyph glyph-name="uniF119" unicode="&#xf119;" 
d="M-302 407c-7 -35 -27 -61 -58 -79l156 -205h-425l154 205c-31 18 -50 44 -57 79h-72v46h72c5 23 16 43 32 59c18 18 37 28 60 33v59h46v-59c23 -5 42 -15 60 -32c16 -17 27 -37 32 -60h73v-46h-73zM-417 502c-20 0 -37 -7 -51 -21c-13 -14 -20 -31 -20 -51s7 -37 20 -51
c14 -14 31 -21 51 -21c19 0 36 7 50 22c14 14 21 31 21 50s-7 36 -21 50c-14 15 -31 22 -50 22zM-296 169l-110 144c-1 0 -3 0 -6 -1h-5h-3l-6 1h-3l-108 -144h241z" />
    <glyph glyph-name="uniF120" unicode="&#xf120;" 
d="M-647 271c0 35 9 66 29 94c18 28 42 50 71 67c-2 9 -3 19 -3 29c0 37 14 69 41 95c27 27 61 40 100 40s73 -13 101 -40c27 -26 41 -58 41 -95s-14 -69 -41 -96c-28 -27 -62 -40 -101 -40c-52 0 -92 21 -120 64c-48 -29 -72 -69 -72 -118c0 -41 18 -77 54 -105
c36 -30 80 -44 131 -44c45 0 84 11 120 33c34 22 55 51 62 87h-280v45h328v-23c0 -55 -23 -100 -69 -135s-100 -53 -161 -53c-59 0 -112 18 -160 55c-47 37 -71 83 -71 140zM-409 551c-27 0 -49 -9 -67 -27c-19 -17 -28 -38 -28 -63s9 -47 28 -64c18 -17 40 -26 67 -26
c26 0 49 9 67 27c20 17 29 38 29 63s-9 46 -29 63c-18 18 -41 27 -67 27z" />
    <glyph glyph-name="uniF121" unicode="&#xf121;" 
d="M-183 323c0 -46 -15 -86 -46 -119c-31 -34 -74 -51 -130 -51c-43 0 -79 10 -109 29c-30 20 -58 49 -83 88l-51 -101l-46 19c11 32 33 76 68 132c-9 17 -21 41 -36 72c-15 32 -26 53 -31 64l44 23c13 -25 31 -62 55 -112c63 83 126 125 189 125c55 0 99 -17 129 -50
c32 -33 47 -73 47 -119zM-359 203c37 0 68 11 91 33c23 21 35 50 35 87c0 7 -1 16 -3 25s-6 22 -14 38c-6 16 -20 29 -38 40c-20 11 -43 16 -71 16c-53 0 -107 -41 -163 -124c21 -37 44 -65 68 -85c23 -20 55 -30 95 -30z" />
    <glyph glyph-name="uniF122" unicode="&#xf122;" 
d="M-394 437h-45v126h45v-126zM-283 382l-37 28l73 97l36 -27zM-549 382l-73 98l36 27l73 -97zM-416 98c-59 0 -109 20 -150 61s-61 90 -61 149v23h421v-23c0 -59 -20 -108 -61 -149s-90 -61 -149 -61zM-580 285c5 -40 24 -73 54 -101c32 -26 68 -40 110 -40s78 14 109 40
c31 28 49 61 54 101h-327z" />
    <glyph glyph-name="uniF123" unicode="&#xf123;" 
d="M-307 138l-30 39l74 57l-136 225l-89 -297h-131v50h94l111 370l216 -360z" />
    <glyph glyph-name="uniF124" unicode="&#xf124;" 
d="M-654 421v11l1 18l19 4c26 5 46 7 59 7c76 0 129 -31 159 -92c10 30 29 53 58 68c28 15 62 23 101 23c20 0 40 -2 60 -6l18 -4l1 -18v-11c0 -35 -12 -64 -36 -87c-24 -22 -54 -33 -91 -33h-22c-9 0 -21 2 -36 5c-15 4 -24 6 -26 6c-3 -9 -4 -17 -4 -23l2 -164h-50l2 164
c-1 11 -3 18 -4 23c-39 -7 -61 -11 -66 -11h-27c-34 2 -62 14 -84 36c-23 22 -34 50 -34 84zM-521 348c4 0 10 0 18 1s14 1 17 1c2 1 6 1 12 2s11 2 14 3c-21 39 -56 58 -106 58c-12 0 -24 -1 -37 -3c0 -19 8 -34 25 -45c16 -11 35 -17 57 -17zM-325 348h21
c39 0 64 21 75 62c-13 2 -25 3 -37 3c-50 0 -86 -19 -107 -58c15 -5 31 -7 48 -7z" />
    <glyph glyph-name="uniF125" unicode="&#xf125;" 
d="M-284 521v8h45v-8c0 -43 -13 -82 -39 -117s-59 -62 -100 -81c41 -18 74 -45 100 -81s39 -75 39 -118v-7h-45v7c0 51 -21 93 -62 126c-41 34 -88 51 -139 51h-64v-184h-45v412h45v-184h64c53 0 99 17 140 50s61 75 61 126z" />
    <glyph glyph-name="uniF126" unicode="&#xf126;" 
d="M-580 203c13 91 65 140 156 148v4h-171v186h389v-186h-172v-4c49 -5 88 -23 115 -53c27 -31 41 -72 41 -125v-59h-46v59c0 89 -45 133 -134 133s-133 -44 -133 -133v-59h-23l-97 101l33 32zM-378 401h126v94h-126v-94zM-424 495h-124v-94h124v94z" />
    <glyph glyph-name="uniF127" unicode="&#xf127;" 
d="M-512 479c27 0 52 -10 74 -29v10c0 48 16 88 47 119l33 -33c-10 -10 -15 -16 -16 -17l-2 -2l-3 -4c-11 -15 -16 -39 -16 -73c17 19 45 28 85 28c38 0 68 -15 90 -45s33 -64 33 -103v-13c-5 -63 -24 -113 -59 -151c-34 -36 -81 -58 -142 -63h-4l-8 -1h-4h-16
c-68 0 -123 20 -165 61s-63 95 -63 162v12c0 40 13 74 38 101s58 41 98 41zM-420 148h15c53 0 96 16 128 49s48 76 48 129v16c0 27 -9 48 -26 66c-17 16 -39 25 -66 25c-11 0 -21 -2 -31 -7c-8 -4 -15 -8 -19 -13s-9 -12 -15 -21c-7 -9 -12 -16 -15 -20l-18 -24l-13 24
c-1 2 -6 8 -13 19s-13 18 -17 22c-3 4 -9 8 -18 13s-18 7 -28 7h-13c-23 0 -42 -9 -57 -28c-14 -19 -22 -40 -23 -65v-14c0 -56 16 -100 49 -131c32 -31 76 -47 132 -47z" />
    <glyph glyph-name="uniF128" unicode="&#xf128;" 
d="M-416 44l-268 284l143 222h249l143 -222zM-626 333l210 -222l210 222l-110 171h-200z" />
    <glyph glyph-name="uniF129" unicode="&#xf129;" 
d="M-418 578c32 0 59 -10 82 -32c22 -20 33 -46 33 -77c1 -1 4 -2 9 -2c2 0 5 0 10 1h8c30 -1 56 -12 78 -32c21 -20 32 -45 32 -74c0 -21 -6 -40 -19 -58c-13 -17 -28 -30 -47 -38c-4 -2 -6 -4 -6 -5c17 -19 25 -42 25 -67c0 -29 -11 -54 -33 -74c-23 -21 -50 -31 -81 -31
c-33 0 -62 12 -86 36c-4 2 -8 1 -12 -3c-22 -22 -50 -33 -83 -33c-31 0 -58 10 -80 31c-22 20 -33 45 -33 74c0 14 7 35 22 63c0 1 1 2 2 3l1 2c0 1 -2 3 -7 5c-19 8 -34 21 -46 39c-12 17 -18 36 -18 56c0 31 11 57 35 76c22 20 50 30 81 30l5 -1h3c7 0 11 1 11 4
c0 30 11 55 33 76s49 31 81 31zM-278 422h-8c-4 -1 -7 -1 -10 -1c-13 0 -25 4 -36 13c-10 8 -16 18 -17 31v11c-1 15 -8 28 -21 40c-14 10 -30 16 -48 16c-19 0 -36 -6 -49 -18c-13 -11 -20 -26 -20 -43c0 -16 -5 -28 -17 -37c-10 -9 -24 -13 -41 -13l-7 1h-3
c-18 -1 -33 -8 -47 -18c-12 -12 -19 -25 -19 -42c0 -12 4 -24 11 -34c8 -12 18 -18 30 -21c20 -11 30 -26 30 -47c0 -12 -4 -22 -13 -31c-1 0 -1 -1 -1 -2l-3 -3l-1 -1v-1c-5 -9 -8 -19 -8 -28c0 -17 7 -31 20 -42c14 -12 30 -18 48 -18c19 0 37 8 54 25c13 9 26 13 37 13
c15 0 28 -6 40 -18c13 -13 30 -20 50 -20c19 0 35 6 48 18c13 11 20 25 20 42c0 9 -4 21 -13 34c-8 13 -12 24 -12 33c0 23 9 38 28 45c29 12 44 31 44 56c0 17 -7 31 -20 42c-13 12 -29 18 -46 18z" />
    <glyph glyph-name="uniF130" unicode="&#xf130;" 
d="M-380 92v46c30 0 55 7 76 21s31 36 31 66c0 17 -4 30 -13 41s-23 24 -43 39c-16 13 -29 23 -38 33c-9 8 -18 20 -25 35s-11 31 -11 48c0 41 15 73 43 97c30 24 66 36 110 36v-46c-37 0 -64 -8 -81 -26c-17 -16 -26 -37 -26 -61c0 -16 4 -30 13 -41s23 -24 43 -39
c25 -19 43 -36 55 -53c13 -17 19 -38 19 -63c0 -41 -15 -73 -43 -97c-30 -24 -66 -36 -110 -36zM-583 92v46c30 0 55 7 76 21s31 36 31 66c0 17 -4 30 -13 41s-23 24 -43 39c-17 13 -30 24 -39 32s-17 19 -24 35c-7 14 -11 31 -11 49c0 41 14 73 44 97c28 24 65 36 109 36
v-46c-37 0 -64 -8 -81 -26c-17 -16 -26 -37 -26 -61c0 -16 4 -30 13 -41s23 -24 43 -39c25 -19 43 -36 56 -53c12 -17 18 -38 18 -63c0 -41 -14 -73 -44 -97c-28 -24 -65 -36 -109 -36z" />
    <glyph glyph-name="uniF131" unicode="&#xf131;" 
d="M-416 590l120 -225h127v-46h-102l94 -175h-479l94 175h-102v46h127zM-416 493l-69 -128h137zM-254 190l-69 129h-187l-69 -129h325z" />
    <glyph glyph-name="uniF132" unicode="&#xf132;" 
d="M-416 352c-35 0 -64 12 -88 36c-25 25 -37 54 -37 88c0 35 12 64 37 88c24 25 53 37 88 37s64 -12 88 -37c24 -24 36 -53 36 -88c0 -34 -12 -63 -36 -88c-24 -24 -53 -36 -88 -36zM-416 555c-22 0 -41 -8 -56 -23s-23 -34 -23 -56c0 -21 8 -40 23 -55s34 -23 56 -23
s41 8 56 23s23 34 23 55c0 22 -8 41 -23 56s-34 23 -56 23zM-554 104c-35 0 -64 12 -88 36c-25 25 -37 54 -37 89s12 64 37 88c24 24 53 36 88 36s64 -12 88 -36s36 -53 36 -88s-12 -64 -36 -89c-24 -24 -53 -36 -88 -36zM-278 104c-35 0 -64 12 -88 36
c-25 25 -37 54 -37 89s12 64 37 88c24 24 53 36 88 36s64 -12 88 -36s36 -53 36 -88s-12 -64 -36 -89c-24 -24 -53 -36 -88 -36zM-554 307c-22 0 -41 -8 -56 -23s-23 -34 -23 -55c0 -22 8 -41 23 -56s34 -23 56 -23s40 8 56 23c14 15 22 34 22 56c0 21 -8 40 -22 55
c-16 15 -34 23 -56 23zM-278 307c-22 0 -41 -8 -56 -23s-23 -34 -23 -55c0 -22 8 -41 23 -56s34 -23 56 -23s40 8 56 23c14 15 22 34 22 56c0 21 -8 40 -22 55c-16 15 -34 23 -56 23z" />
    <glyph glyph-name="uniF133" unicode="&#xf133;" 
d="M-647 348c0 165 73 248 218 248c83 0 145 -19 187 -57c40 -38 61 -97 61 -177c0 -76 -22 -138 -67 -184c-45 -48 -107 -88 -187 -121l-5 -2l-19 44c35 15 65 29 89 43s48 31 71 52s41 45 53 73c11 28 17 60 17 95c0 67 -16 114 -47 143c-32 29 -83 43 -153 43
c-61 0 -105 -17 -131 -50s-39 -83 -39 -150v-7h-48v7zM-397 433c5 -25 7 -46 7 -64c0 -57 -21 -106 -62 -147l-34 34l4 4c29 28 44 64 44 109c0 15 -2 34 -7 55z" />
    <glyph glyph-name="uniF134" unicode="&#xf134;" 
d="M-309 323c0 57 -21 99 -63 129c-43 28 -97 43 -164 43h-8v50h8c51 0 96 -7 136 -22c41 -15 74 -39 101 -73c27 -35 40 -77 40 -127c0 -39 -8 -73 -23 -103c-16 -29 -37 -52 -64 -69s-56 -29 -88 -37c-31 -8 -65 -12 -102 -12h-8v50h8c67 0 122 14 164 42
c42 29 63 72 63 129z" />
    <glyph glyph-name="uniF135" unicode="&#xf135;" 
d="M-337 531c51 0 93 -21 125 -64s48 -91 48 -144s-16 -101 -48 -144c-33 -43 -74 -64 -125 -64c-47 0 -87 19 -119 56c-31 37 -49 80 -53 129h-157v46h157c5 49 23 92 55 129c31 37 70 56 117 56zM-337 161c35 0 65 16 90 47c25 32 37 70 37 115s-12 83 -38 115
c-24 31 -54 47 -89 47s-65 -16 -89 -47c-26 -32 -38 -70 -38 -115s12 -83 37 -115c25 -31 55 -47 90 -47z" />
    <glyph glyph-name="uniF136" unicode="&#xf136;" 
d="M-197 513v-9c-10 -85 -51 -127 -123 -127c-21 0 -44 4 -71 11c-2 -5 -4 -16 -5 -31l190 -232h-421l190 232c-1 3 -1 9 -3 15c0 8 -1 13 -2 16c-27 -7 -50 -11 -71 -11l-21 1c-57 8 -91 47 -101 117v2l-1 5v2v10l1 14l15 5c23 5 41 8 56 8h8c35 0 64 -9 88 -28
c23 -19 40 -43 51 -73c28 67 75 101 141 101c10 0 18 0 23 -1l3 -1h1h5l31 -6l15 -4zM-381 425c21 -6 40 -9 59 -9c45 0 72 23 81 69v3l2 5v3h-2l-13 3h-5c-4 1 -10 1 -17 1c-49 0 -84 -25 -105 -75zM-556 500c-15 0 -27 -1 -37 -4c0 -25 7 -44 22 -58c15 -15 34 -22 59 -22
c22 0 42 3 59 9c-21 50 -55 75 -103 75zM-539 167h245l-123 149z" />
    <glyph glyph-name="uniF137" unicode="&#xf137;" 
d="M-420 575c47 0 87 -14 122 -42c34 -28 60 -65 78 -111h64v-46h-51c3 -19 5 -36 5 -53c0 -65 -21 -123 -62 -175c-41 -51 -93 -77 -156 -77c-64 0 -116 25 -156 77c-41 50 -61 109 -61 175c0 65 20 124 61 175s93 77 156 77zM-420 529c-32 0 -61 -10 -88 -29
c-27 -20 -47 -46 -62 -78h300c-15 32 -35 58 -62 78c-27 19 -56 29 -88 29zM-248 323c0 18 -2 36 -6 53h-332c-3 -14 -5 -32 -5 -53c0 -57 17 -105 50 -145c33 -41 74 -61 121 -61s88 20 122 61c33 40 50 88 50 145z" />
    <glyph glyph-name="uniF138" unicode="&#xf138;" 
d="M-612 120v406h391v-406h-45v79h-128v-77h-45v77h-128v-79h-45zM-567 480v-236h301v236h-301z" />
    <glyph glyph-name="uniF139" unicode="&#xf139;" 
d="M-247 511l-123 -165h168v-46h-168l123 -165l-37 -28l-132 178l-133 -178l-37 28l124 165h-168v46h168l-124 165l37 27l133 -177l132 177z" />
    <glyph glyph-name="uniF140" unicode="&#xf140;" 
d="M-522 85l-31 39l261 210c-8 7 -19 16 -34 28c-15 11 -25 19 -31 24l-131 104c-7 5 -18 14 -32 26c-15 12 -26 21 -33 26c3 4 5 7 8 10l15 19c4 5 7 9 8 10l310 -247z" />
    <glyph glyph-name="uniF141" unicode="&#xf141;" 
d="M-416 211l-137 169l39 31l98 -121l97 121l39 -31z" />
    <glyph glyph-name="uniF142" unicode="&#xf142;" 
d="M-527 181c-29 0 -53 9 -74 27s-36 41 -46 70s-17 56 -21 84c-4 26 -6 53 -6 80h46c0 -19 1 -40 4 -60c3 -22 7 -44 14 -70c6 -24 16 -45 30 -61c15 -16 32 -24 53 -24c13 0 26 9 41 28c12 15 29 42 52 82s40 67 52 82c25 31 50 46 76 46c30 0 56 -9 76 -26
c22 -17 37 -41 46 -69c10 -30 17 -57 20 -84c4 -26 6 -53 6 -82h-46c0 143 -34 215 -102 215c-11 0 -25 -10 -40 -29c-12 -15 -29 -43 -52 -82s-40 -66 -53 -81c-25 -31 -50 -46 -76 -46z" />
    <glyph glyph-name="uniF143" unicode="&#xf143;" 
d="M-250 110h-333v425h333v-425zM-533 160h233v325h-233v-325z" />
    <glyph glyph-name="uniF144" unicode="&#xf144;" 
d="M-233 526c0 -48 -12 -92 -35 -130c-24 -40 -55 -65 -93 -78l163 -193h-436l162 194c-38 13 -69 39 -92 77c-23 39 -35 82 -35 130v20h366v-20zM-556 505c4 -41 19 -77 44 -109c26 -30 58 -46 96 -46s70 16 96 46c25 32 40 68 44 109h-280zM-548 166h263l-120 143h-3
l-5 -1h-3h-3l-6 1h-3z" />
    <glyph glyph-name="uniF145" unicode="&#xf145;" 
d="M-377 419c0 -11 -4 -21 -11 -28c-8 -7 -17 -11 -28 -11s-20 4 -28 11c-7 7 -11 17 -11 28s4 21 11 28c8 7 17 11 28 11s20 -4 28 -11c7 -7 11 -17 11 -28zM-167 256h-499v50h499v-50z" />
    <glyph glyph-name="uniF146" unicode="&#xf146;" 
d="M-518 175h-33l-110 99l31 34l66 -60v101c0 49 16 93 48 130s72 56 121 56s89 -19 121 -56c31 -37 47 -81 47 -130v-174h-46v174c0 39 -12 73 -35 99c-24 28 -53 41 -87 41s-63 -14 -87 -41s-36 -60 -36 -99v-174z" />
    <glyph glyph-name="uniF147" unicode="&#xf147;" 
d="M-416 153c-34 0 -68 6 -102 19c-34 12 -63 31 -88 58s-37 58 -37 93c0 36 13 67 37 94c26 27 55 46 88 58s67 18 102 18c55 0 107 -15 154 -46c48 -31 72 -72 72 -124c0 -36 -12 -67 -37 -95c-25 -26 -54 -46 -87 -58c-33 -11 -67 -17 -102 -17zM-236 323
c0 37 -19 67 -56 90s-79 35 -124 35s-87 -12 -124 -35c-38 -23 -57 -53 -57 -90s19 -67 57 -91c37 -22 79 -34 124 -34s87 12 124 34c37 24 56 54 56 91zM-377 323c0 -11 -4 -21 -11 -28c-8 -7 -17 -11 -28 -11s-20 4 -28 11c-7 7 -11 17 -11 28s4 21 11 28c8 7 17 11 28 11
s20 -4 28 -11c7 -7 11 -17 11 -28z" />
    <glyph glyph-name="uniF148" unicode="&#xf148;" 
d="M-257 300v187h44v-187c0 -56 -20 -104 -59 -144c-40 -39 -88 -59 -144 -59s-104 20 -144 59c-40 40 -60 88 -60 144v187h45v-187c0 -45 15 -82 46 -113s68 -46 113 -46c44 0 82 15 112 47c32 30 47 68 47 112z" />
    <glyph glyph-name="uniF149" unicode="&#xf149;" 
d="M-416 554c63 0 118 -23 163 -68s68 -100 68 -163c0 -64 -23 -119 -67 -163c-46 -46 -100 -68 -164 -68c-65 0 -119 22 -164 67s-67 99 -67 164c0 64 23 119 67 163c46 46 100 68 164 68zM-233 352c-7 39 -25 74 -55 103c-29 29 -64 47 -105 52v-155h160zM-439 507
c-40 -5 -75 -22 -105 -51s-48 -64 -55 -104h160v155zM-601 306c3 -43 21 -80 51 -112c32 -31 68 -50 111 -55v167h-162zM-393 139c43 5 80 24 110 55s47 69 51 112h-161v-167z" />
    <glyph glyph-name="uniF150" unicode="&#xf150;" 
d="M-521 234c-28 14 -51 33 -69 57c-19 24 -28 52 -28 85c0 50 21 90 62 121s88 46 140 46s98 -15 140 -46c40 -31 61 -71 61 -121c0 -33 -9 -61 -27 -85c-19 -24 -42 -43 -70 -57c9 -13 14 -27 14 -42c0 -26 -12 -47 -36 -64c-23 -17 -51 -25 -82 -25s-59 8 -83 25
s-36 38 -36 64c0 15 5 29 14 42zM-416 256c40 0 76 11 108 34s48 51 48 86s-16 64 -48 86c-32 24 -68 35 -108 35s-76 -11 -108 -35c-33 -22 -49 -51 -49 -86s16 -63 49 -86c32 -23 68 -34 108 -34zM-343 192c0 8 -5 16 -16 25c-22 -5 -41 -7 -57 -7c-17 0 -36 2 -58 7
c-11 -9 -16 -17 -16 -25c0 -11 8 -21 22 -30c16 -9 33 -13 52 -13s36 4 51 13s22 19 22 30z" />
    <glyph glyph-name="uniF151" unicode="&#xf151;" 
d="M-195 521c0 -43 -18 -81 -55 -115c21 -32 31 -68 31 -107c0 -54 -19 -100 -58 -139s-85 -58 -139 -58s-100 19 -140 58c-38 39 -58 85 -58 139c0 39 10 75 31 107c-36 33 -54 72 -54 115h46c0 -30 12 -57 37 -80c39 37 85 56 138 56s98 -19 137 -56c25 24 38 51 38 80h46
zM-416 148c42 0 78 15 107 44c29 30 44 66 44 107c0 42 -15 78 -44 107c-29 30 -65 45 -107 45s-78 -15 -108 -45c-29 -29 -44 -65 -44 -107c0 -41 15 -77 44 -107c30 -29 66 -44 108 -44z" />
    <glyph glyph-name="uniF152" unicode="&#xf152;" 
d="M-182 167h-46v204c0 47 -18 86 -55 119s-81 49 -133 49s-96 -16 -133 -49s-55 -72 -55 -119v-204h-46v204c0 61 23 112 70 153s101 61 164 61c62 0 116 -20 164 -61c46 -41 70 -92 70 -153v-204zM-416 203c-41 0 -77 15 -107 45c-30 29 -45 65 -45 107c0 41 15 77 45 107
c30 29 66 44 107 44s77 -15 106 -44c30 -30 45 -66 45 -107c0 -42 -15 -78 -45 -107c-29 -30 -65 -45 -106 -45zM-416 461c-29 0 -54 -11 -75 -31c-21 -22 -31 -46 -31 -75s10 -54 31 -75s46 -31 75 -31s54 10 74 31c21 21 31 46 31 75s-10 54 -31 75s-45 31 -74 31z" />
    <glyph glyph-name="uniF153" unicode="&#xf153;" 
d="M-400 187c-57 0 -103 21 -139 62v-111h-46v237c2 51 21 93 56 127c35 33 78 50 129 50s94 -18 130 -54c37 -35 55 -78 55 -129c0 -50 -18 -93 -55 -129c-37 -35 -80 -53 -130 -53zM-400 233c38 0 71 13 98 40s41 59 41 96s-14 69 -41 97c-27 26 -60 40 -98 40
c-39 0 -72 -14 -98 -40c-28 -28 -41 -60 -41 -97s13 -69 41 -96c26 -27 59 -40 98 -40z" />
    <glyph glyph-name="uniF154" unicode="&#xf154;" 
d="M-234 382c0 -48 -16 -89 -49 -124h83v-91h-46v45h-105c-20 -8 -42 -12 -65 -12s-45 4 -65 12h-105v-45h-46v91h83c-33 35 -50 77 -50 124c0 50 18 93 54 129s79 54 129 54c51 0 94 -18 129 -53c35 -36 53 -79 53 -130zM-553 382c0 -37 13 -69 41 -96
c26 -27 59 -40 96 -40s69 13 96 40s40 59 40 96s-13 70 -40 96c-27 28 -59 41 -96 41s-70 -13 -96 -41c-28 -26 -41 -59 -41 -96z" />
    <glyph glyph-name="uniF155" unicode="&#xf155;" 
d="M-493 333c-27 18 -48 44 -65 77c-16 33 -24 69 -24 108v23h348v-23c0 -39 -8 -76 -24 -110c-17 -33 -39 -59 -66 -76c60 -29 90 -81 90 -157v-57h-45v57c0 41 -11 73 -34 95c-23 23 -55 34 -96 34s-73 -11 -96 -34c-23 -22 -34 -54 -34 -95v-57h-22l-95 98l33 31l41 -43
c7 64 37 107 89 129zM-535 496c4 -39 18 -72 41 -101s52 -43 86 -43s63 14 86 43s37 62 41 101h-254z" />
    <glyph glyph-name="uniF156" unicode="&#xf156;" 
d="M-416 565c67 0 124 -24 170 -71c48 -47 71 -104 71 -171s-23 -124 -71 -171c-46 -47 -103 -71 -170 -71s-124 23 -171 71c-47 46 -71 104 -71 171s24 124 71 171s104 71 171 71zM-416 127c54 0 100 19 138 57c38 39 57 85 57 139s-19 100 -57 139c-38 38 -84 57 -138 57
s-100 -19 -138 -57c-39 -39 -58 -85 -58 -139c0 -55 19 -101 57 -139s84 -57 139 -57zM-463 409l33 -26l-43 -53l43 -54l-33 -26l-37 46l-36 -46l-33 26l43 54l-43 53l33 26l36 -46zM-296 409l32 -26l-43 -53l43 -54l-32 -26l-37 46l-37 -46l-33 26l43 54l-43 53l33 26
l37 -46z" />
    <glyph glyph-name="uniF157" unicode="&#xf157;" 
d="M-250 110h-237v425h237v-50h-187v-325h187v-50zM-542 323c0 -11 -4 -21 -11 -28s-17 -11 -28 -11s-21 4 -28 11s-11 17 -11 28s4 21 11 28s17 11 28 11s21 -4 28 -11s11 -17 11 -28z" />
    <glyph glyph-name="uniF158" unicode="&#xf158;" 
d="M-280 533c29 0 55 -10 76 -31s32 -45 32 -74c0 -20 -5 -38 -16 -56c-11 -16 -25 -29 -43 -38c9 -21 13 -45 13 -70c0 -55 -19 -100 -58 -138c-39 -36 -85 -55 -140 -55s-102 19 -141 55c-39 38 -58 83 -58 138c0 25 4 49 13 70c-18 9 -32 22 -43 38c-11 18 -16 36 -16 56
c0 29 11 53 32 74s47 31 76 31c25 0 47 -7 66 -23c19 -14 32 -33 38 -56c11 2 22 3 33 3s21 -1 32 -3c6 23 19 42 38 56c19 16 41 23 66 23zM-553 487c-17 0 -32 -6 -44 -17s-18 -25 -18 -42s6 -31 18 -42s27 -17 44 -17s32 6 44 17s18 25 18 42s-6 31 -18 42s-27 17 -44 17
zM-280 369c17 0 32 6 44 17s18 25 18 42s-6 31 -18 42s-27 17 -44 17s-32 -6 -44 -17s-18 -25 -18 -42s6 -31 18 -42s27 -17 44 -17zM-263 264c0 21 -4 41 -13 59h-4c-26 0 -49 8 -68 25c-20 16 -32 36 -37 60c-10 2 -20 3 -31 3s-22 -1 -32 -3c-5 -24 -17 -44 -36 -60
c-20 -17 -43 -25 -69 -25h-3c-9 -18 -13 -38 -13 -59c0 -41 15 -75 45 -104s66 -43 108 -43s78 14 108 43s45 63 45 104zM-416 250c11 0 20 -4 28 -11c7 -7 11 -17 11 -28s-4 -21 -11 -28c-8 -7 -17 -11 -28 -11s-20 4 -28 11c-7 7 -11 17 -11 28s4 21 11 28
c8 7 17 11 28 11z" />
    <glyph glyph-name="uniF159" unicode="&#xf159;" 
d="M-442 90c-23 0 -48 3 -77 10c-29 6 -43 16 -43 31c0 10 5 17 15 20c39 11 72 31 99 63c27 30 41 67 41 109s-14 79 -41 109c-27 32 -60 52 -99 63c-10 2 -15 9 -15 20c0 14 15 25 44 31c29 8 55 11 76 11c67 0 126 -22 176 -67s75 -100 75 -167s-25 -122 -75 -167
c-50 -44 -109 -66 -176 -66zM-479 134c12 -2 24 -3 37 -3c58 0 107 19 148 56s61 83 61 136s-20 99 -61 136s-90 56 -148 56c-13 0 -25 -1 -37 -3c35 -19 62 -46 83 -80s31 -70 31 -109s-10 -75 -31 -109s-48 -61 -83 -80z" />
    <glyph glyph-name="uniF160" unicode="&#xf160;" 
d="M-293 533c30 0 56 -11 77 -31c22 -22 33 -47 33 -76c0 -40 -18 -70 -53 -91c7 -18 10 -37 10 -58c0 -51 -19 -94 -56 -131c-38 -36 -83 -54 -134 -54c-52 0 -97 18 -134 54s-56 80 -56 131c0 23 3 42 9 58c-35 21 -53 51 -53 91c0 29 11 54 32 76c22 20 48 31 78 31
s56 -11 77 -31c21 -22 32 -47 32 -76c0 -31 -11 -56 -33 -76c-22 -21 -48 -31 -79 -31l-7 1h-3c-5 -13 -7 -28 -7 -43c0 -39 14 -71 42 -99c29 -26 63 -40 102 -40s73 14 102 40c28 28 42 60 42 99c0 14 -3 28 -8 43h-3l-7 -1c-31 0 -57 10 -79 31c-22 20 -33 45 -33 76
c0 29 11 54 32 76c21 20 47 31 77 31zM-540 487c-17 0 -32 -6 -45 -18s-19 -26 -19 -43s6 -31 19 -43s28 -18 45 -18s32 6 45 18s19 26 19 43s-6 31 -19 43s-28 18 -45 18zM-293 365c17 0 32 6 45 18s19 26 19 43s-6 31 -19 43s-28 18 -45 18s-32 -6 -45 -18
s-19 -26 -19 -43s6 -31 19 -43s28 -18 45 -18z" />
    <glyph glyph-name="uniF161" unicode="&#xf161;" 
d="M-392 156h-49v333h49v-333zM-235 167h-50v312h50v-312zM-548 167h-49v312h49v-312z" />
    <glyph glyph-name="uniF162" unicode="&#xf162;" 
d="M-311 533v-105h105v-46h-105v-118h105v-46h-105v-106h-46v106h-118v-106h-46v106h-106v46h106v118h-106v46h106v105h46v-105h118v105h46zM-357 264v118h-118v-118h118z" />
    <glyph glyph-name="uniF163" unicode="&#xf163;" 
d="M-583 323c0 -47 18 -87 53 -121c35 -32 78 -49 129 -49c41 0 77 12 107 36c29 24 44 53 44 87s-15 63 -44 88c-30 24 -66 36 -107 36c-26 0 -48 -8 -67 -22c-18 -16 -27 -34 -27 -55s9 -39 27 -55c19 -14 41 -22 67 -22c11 0 21 4 29 10c7 8 11 16 11 26s-4 18 -11 26
c-8 6 -18 10 -29 10c-6 0 -11 2 -15 6c-5 5 -7 10 -7 16c0 7 2 12 7 16c4 4 9 6 15 6c23 0 43 -8 59 -23c17 -15 25 -34 25 -57c0 -22 -8 -41 -25 -56c-16 -16 -36 -24 -59 -24c-36 0 -68 11 -96 34s-42 52 -42 87s14 64 41 87c28 23 60 34 97 34c51 0 96 -16 136 -47
s60 -72 60 -121s-20 -90 -60 -120c-40 -32 -85 -47 -136 -47c-61 0 -115 21 -159 61c-46 42 -68 92 -68 153s22 111 68 153c44 40 98 61 159 61c69 0 126 -12 172 -36c8 -4 12 -10 12 -19c0 -7 -2 -12 -7 -16c-5 -5 -10 -7 -16 -7c-4 0 -7 1 -10 3c-39 21 -90 31 -151 31
c-51 0 -94 -17 -129 -49c-35 -34 -53 -74 -53 -121z" />
    <glyph glyph-name="uniF164" unicode="&#xf164;" 
d="M-394 583v-160l189 -174l-31 -33l-158 145v-298h-45v298l-158 -145l-31 33l189 174v160h45z" />
    <glyph glyph-name="uniF165" unicode="&#xf165;" 
d="M-416 526c-43 0 -81 -16 -112 -47s-47 -69 -47 -112v-187h-45v187c0 57 20 105 60 145c39 38 87 58 144 58c56 0 104 -20 144 -60c39 -39 59 -87 59 -143v-187h-44v187c0 43 -16 81 -47 112s-69 47 -112 47z" />
    <glyph glyph-name="uniF166" unicode="&#xf166;" 
d="M-394 171l161 138l30 -35l-213 -182l-214 182l30 35l161 -138v391h45v-391z" />
    <glyph glyph-name="uniF167" unicode="&#xf167;" 
d="M-248 197h-336c-21 0 -40 7 -54 23c-16 14 -23 33 -23 54v98c0 21 7 38 23 54c14 14 33 22 54 22h336c21 0 39 -7 54 -22s22 -33 22 -54v-98c0 -21 -8 -40 -22 -54c-16 -16 -33 -23 -54 -23zM-584 402c-9 0 -16 -3 -22 -8c-6 -6 -9 -13 -9 -22v-98c0 -9 3 -16 9 -22
s13 -9 22 -9h336c9 0 16 3 22 9c5 6 8 13 8 22v98c0 9 -3 16 -8 22c-6 5 -13 8 -22 8h-336z" />
    <glyph glyph-name="uniF168" unicode="&#xf168;" 
d="M-329 389c39 0 72 -12 99 -36c26 -24 39 -56 39 -95c0 -35 -11 -61 -32 -80s-50 -28 -86 -28h-270v375h43v-332h227c50 0 75 22 75 65c0 27 -9 49 -26 65c-18 16 -41 24 -69 24h-56v178h43v-136h13z" />
    <glyph glyph-name="uniF169" unicode="&#xf169;" 
d="M-391 292h-50v267h50v-267zM-416 80c-24 0 -45 9 -62 26s-26 38 -26 62s9 44 26 62c17 16 38 25 62 25s45 -9 62 -25c17 -18 26 -38 26 -62s-9 -45 -26 -62s-38 -26 -62 -26zM-416 205c-11 0 -20 -3 -27 -11c-7 -6 -11 -15 -11 -26s4 -20 11 -28c7 -7 16 -11 27 -11
s20 4 27 11c7 8 11 17 11 28s-4 20 -11 26c-7 8 -16 11 -27 11z" />
    <glyph glyph-name="uniF170" unicode="&#xf170;" 
d="M-620 434c0 35 10 64 30 86c20 23 47 34 81 34c37 0 66 -14 86 -42l2 -2l3 -5l2 -2c18 29 45 46 82 51l3 1h2h14c30 0 53 -8 71 -25c16 -17 26 -40 29 -69c0 -4 1 -11 2 -20v-13c0 -23 -10 -47 -29 -72c18 -19 27 -49 27 -88l1 -6c0 -39 -20 -76 -62 -110
c-40 -34 -85 -61 -132 -80l-8 -3c-3 1 -8 3 -14 5c-5 3 -9 4 -11 5l-16 7c-41 20 -78 44 -111 72c-32 29 -50 60 -53 94v19c2 33 13 60 34 81c-2 3 -5 7 -9 14c-4 6 -7 11 -9 14s-5 8 -7 14c-4 6 -6 12 -6 19c-2 7 -2 14 -2 21zM-518 384h9c41 0 72 -17 93 -52
c19 35 49 52 90 52h10c5 0 17 -2 37 -5c14 14 21 34 21 61c0 23 -5 41 -14 52c-10 11 -26 17 -49 17c-1 -1 -3 -1 -5 -1h-5c-6 0 -12 -1 -17 -3c-6 -2 -11 -4 -14 -6c-4 -2 -8 -6 -12 -11c-5 -6 -8 -10 -9 -12c-1 -3 -4 -8 -9 -14c-4 -8 -6 -12 -7 -13l-16 -28l-19 28
c-2 3 -6 8 -10 17c-6 8 -9 14 -12 17s-7 7 -12 13c-5 4 -12 8 -18 10c-8 2 -15 3 -24 3h-9c-17 -2 -31 -10 -41 -24s-15 -31 -15 -52v-8c3 -18 10 -34 23 -49c13 5 25 8 34 8zM-256 260c0 27 -4 46 -13 59s-25 19 -48 19h-15c-21 -5 -37 -15 -48 -30c-1 -1 -2 -2 -2 -4
c-2 -1 -2 -2 -3 -3l-9 -15c-3 -3 -4 -5 -5 -7l-16 -28l-19 28c-1 2 -5 7 -10 17c-6 8 -10 14 -12 17s-6 7 -12 12c-5 5 -11 9 -18 11c-7 1 -15 2 -24 2c-43 0 -64 -27 -64 -82c2 -24 17 -47 46 -70s59 -42 91 -58c5 -3 12 -6 21 -10c57 28 98 53 122 74c25 25 38 48 38 68z
" />
    <glyph glyph-name="uniF171" unicode="&#xf171;" 
d="M-365 549c53 0 97 -19 133 -59c37 -38 55 -84 55 -137c0 -51 -17 -96 -51 -135c-34 -38 -76 -58 -127 -61h-280v48h146l-2 2l-6 5l-2 2c-36 37 -54 84 -54 139c0 53 18 99 55 138c36 39 80 58 133 58zM-505 353c0 -40 14 -75 41 -104s60 -44 99 -44s72 15 99 44
s41 64 41 104s-14 75 -41 103c-27 30 -60 44 -99 44s-73 -14 -99 -44c-28 -28 -41 -63 -41 -103z" />
    <glyph glyph-name="uniF172" unicode="&#xf172;" 
d="M-281 356v154h45v-377h-361v377h46v-154h270zM-551 179h270v131h-270v-131z" />
    <glyph glyph-name="uniF173" unicode="&#xf173;" 
d="M-597 118v410h362v-410h-362zM-524 315l97 171h-128v-327h102l79 156h-150zM-311 355l-97 -196h130v327h-103l-75 -131h145z" />
    <glyph glyph-name="uniF174" unicode="&#xf174;" 
d="M-311 334c57 -29 85 -81 85 -156v-59h-45v59c0 43 -11 75 -33 97c-23 22 -56 33 -99 33s-75 -11 -97 -34c-23 -22 -34 -54 -34 -96v-59h-22l-96 99l33 32l41 -43c7 59 35 102 86 128c-39 25 -59 60 -59 104c0 39 15 70 45 95c31 24 66 36 105 36s74 -12 105 -37
c30 -25 45 -56 45 -94c0 -44 -20 -79 -60 -105zM-506 439c0 -23 10 -43 31 -60s45 -25 74 -25s54 8 75 25c20 17 30 37 30 60s-10 43 -30 60c-21 17 -46 25 -75 25s-53 -8 -74 -25s-31 -37 -31 -60z" />
    <glyph glyph-name="uniF175" unicode="&#xf175;" 
d="M-416 60c-35 0 -64 12 -90 38c-24 24 -37 55 -37 90v270c0 35 13 64 37 90c26 24 55 37 90 37s64 -13 90 -37c24 -26 37 -55 37 -90v-270c0 -35 -13 -66 -37 -90c-26 -26 -55 -38 -90 -38zM-416 539c-23 0 -42 -8 -58 -23c-16 -16 -24 -35 -24 -58v-270
c0 -23 8 -42 24 -58s35 -24 58 -24s42 8 58 24c15 16 23 35 23 58v270c0 23 -8 42 -23 58c-16 15 -35 23 -58 23z" />
    <glyph glyph-name="uniF176" unicode="&#xf176;" 
d="M-400 373l-16 -16l-16 16c-23 23 -48 45 -76 65c-26 20 -47 34 -62 42c-14 9 -22 13 -23 13l20 42l5 -3c4 -2 9 -4 14 -8c5 -2 12 -6 19 -11s16 -10 25 -17c9 -6 19 -13 29 -20s21 -16 32 -26c11 -9 22 -19 33 -29c11 10 22 20 33 29c11 10 22 19 32 26s19 14 29 20
c8 7 17 12 24 17s14 9 19 11c5 4 10 6 13 8l6 3l21 -42c-1 0 -9 -4 -23 -13c-15 -8 -36 -22 -62 -42c-28 -20 -53 -42 -76 -65zM-400 228l-16 -16l-16 16c-24 24 -49 46 -76 66s-47 34 -62 42c-14 9 -22 13 -23 13l20 41l5 -3c4 -2 9 -5 14 -7c5 -4 12 -7 19 -12
s16 -10 25 -16c9 -7 19 -14 29 -21s21 -16 32 -25l33 -30l33 30c11 9 22 18 32 25s19 14 29 21c8 6 17 11 24 16s14 8 19 12c5 2 10 5 13 7l6 3l21 -41c-1 0 -9 -4 -23 -13c-15 -8 -36 -22 -62 -42c-28 -21 -53 -43 -76 -66zM-400 83l-16 -16l-16 16c-23 23 -48 45 -76 65
c-26 21 -47 35 -62 44c-14 8 -22 12 -23 12l20 41l5 -3c4 -2 9 -4 14 -8c5 -2 12 -6 19 -11s16 -10 25 -17c9 -6 19 -13 29 -20s21 -16 32 -26c11 -9 22 -19 33 -29c11 10 22 20 33 29c11 10 22 19 32 26s19 14 29 20c8 7 17 12 24 17s14 9 19 11c5 4 10 6 13 8l6 3l21 -41
c-1 0 -9 -4 -23 -12c-15 -9 -36 -23 -62 -44c-28 -20 -53 -42 -76 -65z" />
    <glyph glyph-name="uniF177" unicode="&#xf177;" 
d="M-380 572v-131h-46v131h46zM-310 418l73 98l37 -28l-73 -98zM-496 418l-37 -28l-73 98l37 28zM-403 405c52 0 95 -15 127 -45c34 -29 50 -69 50 -119v-123h-46v123c0 37 -12 66 -36 87c-23 21 -55 31 -95 31s-72 -10 -95 -31c-24 -21 -36 -50 -36 -87v-123h-22l-100 99
l33 32l43 -43v35c0 50 16 90 50 119c32 30 75 45 127 45z" />
    <glyph glyph-name="uniF178" unicode="&#xf178;" 
d="M-225 141h-383v379h50v-329h334z" />
    <glyph glyph-name="uniF179" unicode="&#xf179;" 
d="M-296 502c40 -4 69 -19 86 -44c18 -25 27 -61 27 -108v-12c-2 -41 -19 -82 -52 -125c-35 -41 -86 -81 -153 -119c-1 -1 -4 -2 -8 -5c-5 -3 -8 -5 -11 -6l-9 -4l-21 9c-6 4 -12 7 -17 10l-33 20c-42 25 -80 56 -113 94c-33 36 -51 75 -52 115v24c5 76 33 124 85 144
c11 5 21 7 30 7h10c49 0 85 -25 110 -75l15 24c18 29 45 46 82 50l3 1h2h19zM-605 339v-7c1 -11 2 -18 3 -19c13 -59 75 -120 186 -183c49 25 93 55 132 92c39 36 59 75 59 116v11v3l-1 5c0 47 -13 78 -38 91c-5 3 -17 5 -34 8h-19c-12 -1 -23 -5 -31 -12
c-10 -7 -16 -13 -20 -19c-5 -6 -10 -15 -17 -28s-12 -22 -15 -27l-18 -32l-15 32c-3 5 -9 14 -16 28c-7 13 -13 23 -17 30c-5 6 -12 12 -24 18c-10 7 -23 10 -37 10h-8c-23 -3 -41 -15 -53 -38c-11 -22 -17 -48 -17 -79z" />
    <glyph glyph-name="uniF180" unicode="&#xf180;" 
d="M-669 172l253 413l252 -413h-505zM-364 412l-52 86l-53 -86l53 -64zM-492 374l-95 -156h63l81 98zM-309 218h63l-95 156l-49 -58zM-416 283l-54 -65h107z" />
    <glyph glyph-name="uniF181" unicode="&#xf181;" 
d="M-562 467v46h291v-46h-123v-288h123v-46h-291v46h123v288h-123z" />
    <glyph glyph-name="uniF182" unicode="&#xf182;" 
d="M-553 478c-11 0 -21 4 -28 11s-11 17 -11 28s4 21 12 29c7 7 16 11 27 11s20 -4 27 -11c8 -8 12 -18 12 -29s-4 -21 -11 -28s-17 -11 -28 -11zM-280 478c-11 0 -20 4 -28 11c-7 7 -11 17 -11 28s4 21 11 29c8 7 17 11 28 11s20 -4 28 -11c7 -8 11 -18 11 -29
s-4 -21 -11 -28c-8 -7 -17 -11 -28 -11zM-394 541v-125h166v-46h-166v-62h166v-46h-166v-61h166v-46h-166v-72h-45v72h-166v46h166v61h-166v46h166v62h-166v46h166v125h45z" />
    <glyph glyph-name="uniF183" unicode="&#xf183;" 
d="M-331 164h-275v336h46v-290h183v290h46v-336zM-208 344c0 -11 -4 -21 -12 -28c-7 -8 -16 -12 -27 -12s-21 4 -29 12c-7 8 -11 17 -11 28s4 20 11 28c8 7 18 11 29 11s21 -4 28 -11c7 -8 11 -17 11 -28z" />
    <glyph glyph-name="uniF184" unicode="&#xf184;" 
d="M-225 141h-383v379h50v-329h283v329h50v-379z" />
    <glyph glyph-name="uniF185" unicode="&#xf185;" 
d="M-416 177c49 0 91 15 126 45c35 31 53 68 53 111h50c0 -59 -23 -108 -69 -147c-47 -39 -100 -59 -160 -59c-61 0 -114 19 -160 59c-47 38 -70 88 -70 147h50c0 -43 18 -80 54 -111c35 -30 77 -45 126 -45z" />
    <glyph glyph-name="uniF186" unicode="&#xf186;" 
d="M-612 102v442h391v-442h-391zM-567 498v-350h301v350h-301zM-398 483v-56h-37v56h37zM-347 417l38 38l26 -27l-37 -37zM-486 417l-27 -26l-37 37l26 27zM-416 413c35 0 64 -12 88 -37c24 -24 36 -53 36 -88c0 -34 -12 -63 -36 -88c-24 -24 -53 -36 -88 -36s-64 12 -88 36
c-25 25 -37 54 -37 88c0 35 12 64 37 88c24 25 53 37 88 37zM-416 202c24 0 44 8 61 25s25 37 25 61s-8 45 -25 62s-37 26 -61 26s-44 -9 -62 -26c-16 -17 -25 -38 -25 -62s9 -44 25 -61c18 -17 38 -25 62 -25zM-360 292c0 -15 -6 -28 -16 -40c-12 -10 -25 -16 -40 -16
s-29 6 -40 16c-11 12 -17 25 -17 40h34c0 -7 2 -12 7 -16c4 -5 9 -7 16 -7c6 0 11 2 16 7c4 4 6 9 6 16h34z" />
    <glyph glyph-name="uniF187" unicode="&#xf187;" 
d="M-228 383h-377v46h377v-46zM-221 216h-391v46h391v-46z" />
    <glyph glyph-name="uniF188" unicode="&#xf188;" 
d="M-394 260h-45v292h45v-292zM-520 208l-125 229l40 22l126 -229zM-313 208l-40 22l125 229l40 -22zM-377 133c0 -11 -4 -21 -11 -28c-8 -7 -17 -11 -28 -11s-20 4 -28 11c-7 7 -11 17 -11 28s4 21 11 28c8 7 17 11 28 11s20 -4 28 -11c7 -7 11 -17 11 -28z" />
    <glyph glyph-name="uniF189" unicode="&#xf189;" 
d="M-612 527h390l8 -379h-45l-2 335h-54l4 -322h-45l-2 322h-117l-2 -322h-45l4 322h-56v-335h-45z" />
    <glyph glyph-name="uniF190" unicode="&#xf190;" 
d="M-594 413c0 -10 4 -19 11 -28s14 -15 20 -19c6 -3 15 -8 27 -15l-24 -40c-53 27 -80 61 -80 102c0 23 8 44 24 62s36 32 60 41c25 10 49 17 73 22s46 7 67 7c30 0 61 -4 92 -11c32 -7 62 -22 90 -43c27 -21 41 -47 41 -78c0 -33 -15 -60 -45 -81
c-31 -22 -66 -37 -107 -44h-1c-9 -1 -19 -5 -30 -10c-11 -6 -17 -13 -17 -20v-57h-47v57c0 19 8 36 26 48c16 14 37 23 60 28h3c25 5 49 15 75 28c24 14 37 31 37 51c0 27 -21 49 -63 63c-42 16 -80 23 -114 23c-51 0 -94 -10 -131 -30c-31 -17 -47 -36 -47 -56zM-416 162
c11 0 20 -4 28 -12c7 -7 11 -17 11 -28s-4 -20 -11 -28c-8 -7 -17 -11 -28 -11s-20 4 -28 11c-7 8 -11 17 -11 28s4 21 11 28c8 8 17 12 28 12z" />
    <glyph glyph-name="uniF191" unicode="&#xf191;" 
d="M-276 161v382h41v-382h-41zM-600 205c3 -3 7 -4 10 -4l2 1c3 1 6 4 8 7c3 3 4 6 6 9c0 2 2 6 4 12c1 5 2 9 3 10c3 12 6 36 9 72v8l1 17v8h40v-33c0 -4 0 -11 1 -21s1 -18 2 -23c0 -6 0 -13 1 -20c1 -8 2 -15 3 -22c2 -6 4 -11 7 -16c3 -7 8 -10 14 -10c6 3 11 7 15 14
s7 16 8 28c2 12 3 21 4 28s1 18 2 35s1 26 1 28v15l1 27v15h40v-40c3 -67 7 -108 12 -124s9 -24 12 -24c1 -1 4 -2 7 -2c11 4 19 14 23 28c3 16 6 34 7 57v6c1 19 2 51 2 95v74h42v-106c-3 -78 -8 -129 -17 -152c-11 -26 -28 -40 -52 -43h-12c-22 2 -37 14 -45 35
c-11 -23 -29 -35 -52 -35c-21 0 -38 11 -50 34c-13 -22 -32 -33 -55 -33c-7 0 -18 6 -33 17l-6 7l27 28z" />
    <glyph glyph-name="uniF192" unicode="&#xf192;" 
d="M-604 146v377h375v-377h-46v331h-119v-316h-45v316h-119v-331h-46z" />
    <glyph glyph-name="uniF193" unicode="&#xf193;" 
d="M-416 133c-53 0 -98 19 -134 55c-38 38 -56 82 -56 135s18 97 56 135c36 36 81 55 134 55c52 0 96 -19 134 -56c36 -37 55 -82 55 -134s-19 -97 -55 -134c-38 -37 -82 -56 -134 -56zM-416 467c-39 0 -73 -14 -102 -43c-28 -28 -42 -62 -42 -101s14 -73 42 -101
c29 -29 63 -43 102 -43s73 14 101 43c28 28 42 62 42 101s-14 73 -42 101c-28 29 -62 43 -101 43zM-416 223c-27 0 -51 10 -70 29c-20 20 -30 44 -30 71s10 51 30 71c19 19 43 29 70 29s51 -10 70 -29c19 -20 29 -44 29 -71s-10 -51 -29 -71c-19 -19 -43 -29 -70 -29z
M-416 381c-16 0 -30 -6 -42 -17c-11 -11 -17 -25 -17 -41s6 -30 17 -41c12 -11 26 -17 42 -17s30 6 41 17s17 25 17 41s-6 30 -17 41s-25 17 -41 17z" />
    <glyph glyph-name="uniF194" unicode="&#xf194;" 
d="M-392 396h-49v166h49v-166zM-500 263h-157v50h157v-50zM-176 263h-157v50h157v-50z" />
    <glyph glyph-name="uniF195" unicode="&#xf195;" 
d="M-539 407c36 41 82 62 139 62c50 0 93 -18 130 -53c37 -36 55 -79 55 -129c0 -51 -18 -94 -55 -129c-36 -36 -79 -54 -130 -54s-94 17 -129 50c-35 34 -54 76 -56 127v238h46v-112zM-400 150c38 0 71 14 98 40c27 28 41 60 41 97s-14 69 -41 97c-27 26 -60 40 -98 40
c-39 0 -72 -14 -98 -40c-28 -28 -41 -60 -41 -97s13 -69 41 -97c26 -26 59 -40 98 -40z" />
    <glyph glyph-name="uniF196" unicode="&#xf196;" 
d="M-333 110h-237v50h187v325h-187v50h237v-425zM-278 323c0 11 4 21 11 28s17 11 28 11s21 -4 28 -11s11 -17 11 -28s-4 -21 -11 -28s-17 -11 -28 -11s-21 4 -28 11s-11 17 -11 28z" />
    <glyph glyph-name="uniF197" unicode="&#xf197;" 
d="M-612 102v442h391v-442h-391zM-567 498v-350h301v350h-301zM-514 356c10 0 18 -4 26 -10c6 -8 10 -16 10 -26s-4 -19 -10 -26c-8 -7 -16 -11 -26 -11s-19 4 -26 11s-11 16 -11 26s4 18 11 26c7 6 16 10 26 10zM-318 356c10 0 18 -4 26 -10c6 -8 10 -16 10 -26
s-4 -19 -10 -26c-8 -7 -16 -11 -26 -11s-19 4 -26 11s-11 16 -11 26s4 18 11 26c7 6 16 10 26 10zM-416 356c10 0 18 -4 26 -10c6 -8 10 -16 10 -26s-4 -19 -10 -26c-8 -7 -16 -11 -26 -11s-19 4 -26 11s-11 16 -11 26s4 18 11 26c7 6 16 10 26 10z" />
    <glyph glyph-name="uniF198" unicode="&#xf198;" 
d="M-394 471h-45v117h45v-117zM-272 426l-39 24l57 89l39 -24zM-561 426l-56 89l38 24l57 -89zM-259 109h-315v283h315v-283zM-528 155h223v191h-223v-191z" />
    <glyph glyph-name="uniF199" unicode="&#xf199;" 
d="M-167 395c0 -43 -12 -80 -35 -111c-24 -31 -55 -50 -93 -55v-113h-41v153h20c32 0 58 12 78 37s30 54 30 89c0 33 -11 60 -34 81c-23 22 -51 33 -85 33h-198v42h198c45 0 83 -15 114 -45c31 -29 46 -66 46 -111zM-365 432c0 -11 -4 -20 -11 -27s-16 -11 -27 -11
s-20 4 -27 11s-11 16 -11 27s4 20 11 26c7 8 16 11 27 11s20 -3 27 -11c7 -6 11 -15 11 -26zM-261 432c0 -11 -4 -20 -11 -27s-16 -11 -27 -11s-20 4 -27 11s-11 16 -11 27s4 20 11 26c7 8 16 11 27 11s20 -3 27 -11c7 -6 11 -15 11 -26zM-382 116h-42v155h42v-155z
M-465 116h-42v155h42v-155zM-549 116h-41v155h41v-155z" />
    <glyph glyph-name="uniF200" unicode="&#xf200;" 
d="M-416 61l-24 68c-48 134 -116 256 -204 365l39 31c64 -79 119 -167 166 -264c3 -6 7 -15 11 -27c6 -12 9 -21 12 -26c43 108 105 214 188 317l39 -31c-64 -79 -117 -164 -159 -254c-9 -20 -18 -39 -25 -58c-7 -18 -12 -31 -15 -40l-4 -13z" />
    <glyph glyph-name="uniF201" unicode="&#xf201;" 
d="M-394 499c39 -5 73 -22 102 -50s45 -62 50 -101h97v-46h-97c-5 -39 -21 -73 -50 -101s-63 -45 -102 -50v-99h-45v99c-39 5 -73 22 -102 50s-45 62 -50 101h-96v46h96c5 39 21 73 50 101s63 45 102 50v95h45v-95zM-416 195c36 0 66 13 92 38c24 25 37 56 37 92
s-13 67 -37 92c-26 25 -56 38 -92 38s-67 -13 -92 -38s-38 -56 -38 -92s13 -67 38 -92s56 -38 92 -38z" />
    <glyph glyph-name="uniF202" unicode="&#xf202;" 
d="M-650 400v42h468v-42h-75l9 -213h-42l-9 213h-235l-9 -213h-42l9 213h-74z" />
    <glyph glyph-name="uniF203" unicode="&#xf203;" 
d="M-568 531l114 -205l-42 -16l-72 129l-72 -129l-42 16zM-381 326l114 205l114 -205l-42 -16l-72 129l-71 -129zM-417 208c13 0 24 -5 33 -14c10 -9 15 -21 15 -34s-5 -25 -15 -34c-9 -9 -20 -14 -33 -14s-24 5 -33 14c-10 9 -15 21 -15 34s5 25 15 34c9 9 20 14 33 14z
" />
    <glyph glyph-name="uniF204" unicode="&#xf204;" 
d="M-249 241c0 5 1 15 2 28s2 24 2 31c0 77 -31 129 -92 158c-11 5 -23 8 -38 8h-18c-21 -3 -33 -5 -36 -8c-18 -5 -30 -11 -37 -17c-32 -19 -64 -54 -97 -104c-5 -8 -8 -14 -9 -17l89 14l7 -45c-17 -3 -44 -6 -78 -11c-36 -5 -62 -8 -79 -10c-7 32 -19 80 -35 144l45 10
l16 -77c3 3 6 9 9 15c3 8 6 12 7 14c40 63 84 103 133 119c17 11 40 17 70 17h20c7 0 23 -4 47 -11l8 -3c75 -37 113 -107 113 -208v-14c-3 -28 -5 -44 -5 -48c-7 -34 -13 -57 -19 -68l-43 17c12 33 18 55 18 66z" />
    <glyph glyph-name="uniF205" unicode="&#xf205;" 
d="M-379 348v169h50v-388h-50v169h-204v50h204z" />
    <glyph glyph-name="uniF206" unicode="&#xf206;" 
d="M-526 138l-109 84l216 360l111 -370h94v-50h-131l-89 297l-135 -225l74 -57z" />
    <glyph glyph-name="uniF207" unicode="&#xf207;" 
d="M-333 378c24 0 42 11 53 33c12 22 18 48 18 79v12h46v-12c0 -42 -10 -79 -30 -110c-19 -32 -48 -48 -87 -48c-23 0 -43 7 -58 20c-15 14 -30 33 -45 58c-9 15 -16 25 -21 32c-5 6 -11 12 -19 17c-7 5 -15 8 -24 8c-24 0 -42 -11 -54 -33c-11 -22 -17 -48 -17 -79v-11h-46
v11c0 41 10 78 30 110s49 48 87 48c17 0 32 -4 46 -13c13 -9 24 -18 30 -26c8 -10 16 -23 27 -40c13 -21 23 -35 32 -44c9 -8 19 -12 32 -12zM-333 178c24 0 42 11 53 34c12 22 18 48 18 79v11h46v-11c0 -42 -10 -79 -30 -111c-19 -31 -48 -47 -87 -47c-17 0 -32 4 -45 13
c-14 8 -24 16 -32 26c-6 8 -15 22 -26 39c-9 15 -16 25 -21 31c-5 7 -11 13 -19 18c-7 5 -15 8 -24 8c-24 0 -42 -11 -54 -34c-11 -22 -17 -48 -17 -79v-11h-46v11c0 41 10 77 30 110s49 49 87 49c17 0 32 -4 46 -13c13 -9 24 -17 30 -27c8 -8 16 -22 27 -39
c9 -15 16 -25 21 -31c5 -7 11 -13 18 -18c8 -5 16 -8 25 -8z" />
    <glyph glyph-name="uniF208" unicode="&#xf208;" 
d="M-416 102c-61 0 -114 22 -156 64c-44 44 -65 96 -65 157s21 113 65 157c42 42 95 64 156 64s113 -22 156 -65s65 -95 65 -156s-22 -113 -65 -156s-95 -65 -156 -65zM-416 498c-48 0 -89 -17 -124 -52c-34 -34 -51 -75 -51 -123c0 -49 17 -90 51 -124
c35 -34 76 -51 124 -51s89 17 124 51c34 34 51 75 51 124c0 48 -17 89 -51 123c-35 35 -76 52 -124 52zM-296 284h-141v165h41v-123h100v-42z" />
    <glyph glyph-name="uniF209" unicode="&#xf209;" 
d="M-394 466h-45v104h45v-104zM-558 408l-62 63l32 32l63 -62zM-275 408l-33 33l63 62l32 -32zM-416 102c-45 0 -84 16 -116 48c-31 31 -47 69 -47 114s16 84 47 116c32 31 71 47 116 47s83 -16 114 -47c32 -32 48 -71 48 -116s-16 -84 -47 -115s-70 -47 -115 -47zM-416 381
c-32 0 -60 -11 -82 -35c-24 -22 -35 -50 -35 -82s11 -59 35 -82c22 -23 50 -34 82 -34s59 11 82 34s34 50 34 82s-11 60 -34 82c-23 24 -50 35 -82 35z" />
    <glyph glyph-name="uniF210" unicode="&#xf210;" 
d="M-637 367l221 207l220 -207v-229h-441v229zM-416 511l-175 -164v-163h349v163z" />
    <glyph glyph-name="uniF211" unicode="&#xf211;" 
d="M-496 141h-49v363h49v-363zM-287 141h-50v363h50v-363z" />
    <glyph glyph-name="uniF212" unicode="&#xf212;" 
d="M-416 469c43 36 83 54 121 54c33 0 61 -11 83 -33c21 -23 32 -50 32 -83c0 -66 -38 -118 -113 -156c0 -47 -11 -89 -33 -126s-52 -55 -89 -55c-38 0 -68 18 -91 54c-22 36 -33 78 -34 125v3c-75 37 -113 89 -113 155c0 34 11 62 33 83c22 22 50 33 83 33
c39 0 80 -18 121 -54zM-532 299c11 45 39 91 83 138c-32 27 -61 40 -88 40c-21 0 -38 -7 -51 -20s-19 -30 -19 -51c0 -43 25 -78 75 -107zM-298 300c48 29 72 64 72 106c0 21 -6 38 -19 51s-29 20 -50 20c-26 0 -55 -13 -88 -40c47 -51 76 -97 85 -137zM-416 406
c-41 -44 -65 -86 -74 -126c26 -9 51 -14 74 -14c25 0 50 5 76 14c-7 41 -33 83 -76 126zM-415 116c23 0 41 12 53 38c13 24 20 51 22 78c-27 -7 -53 -11 -76 -11s-49 4 -77 13c2 -28 9 -55 23 -80c12 -25 31 -38 55 -38z" />
    <glyph glyph-name="uniF213" unicode="&#xf213;" 
d="M-416 201c-69 0 -127 25 -174 75c-47 49 -71 108 -71 177v23h489v-23c0 -69 -24 -128 -70 -177c-48 -50 -105 -75 -174 -75zM-614 430c5 -51 27 -95 65 -130s82 -53 133 -53s96 18 133 53s59 79 64 130h-395zM-377 122c0 -11 -4 -20 -11 -28c-8 -7 -17 -11 -28 -11
s-20 4 -28 11c-7 8 -11 17 -11 28s4 21 11 28c8 8 17 12 28 12s20 -4 28 -12c7 -7 11 -17 11 -28z" />
    <glyph glyph-name="uniF214" unicode="&#xf214;" 
d="M-292 220l55 116l41 -19l-86 -184l-134 173l-135 -173l-86 184l42 19l54 -116l96 124l-119 153l37 28l111 -144l111 144l36 -28l-119 -153z" />
    <glyph glyph-name="uniF215" unicode="&#xf215;" 
d="M-203 441l-79 -75l118 -194h-505l118 194l-79 75l31 34l73 -69l110 179l109 -179l73 69zM-587 218h341l-170 280z" />
    <glyph glyph-name="uniF216" unicode="&#xf216;" 
d="M-370 131h-50v323l-107 -73l-29 41l186 128v-419z" />
    <glyph glyph-name="uniF217" unicode="&#xf217;" 
d="M-498 92h-46v126l277 15l-135 342l43 17l157 -402l-296 -15v-83zM-481 337c0 -11 -4 -20 -11 -27s-16 -11 -27 -11s-19 4 -27 11c-6 7 -10 16 -10 27s4 20 10 27c8 7 16 11 27 11s20 -4 27 -11s11 -16 11 -27zM-377 337c0 -11 -3 -20 -11 -27c-6 -7 -15 -11 -26 -11
s-20 4 -27 11s-11 16 -11 27s4 20 11 27s16 11 27 11s20 -4 26 -11c8 -7 11 -16 11 -27z" />
    <glyph glyph-name="uniF218" unicode="&#xf218;" 
d="M-268 186l35 304l40 -5l-35 -303zM-640 485l40 5l36 -304l-41 -4zM-416 489c43 0 76 -19 101 -59c25 -38 37 -81 37 -126s-12 -87 -38 -126c-24 -40 -58 -60 -100 -60c-43 0 -76 20 -102 59c-24 39 -37 82 -37 127s12 88 37 126c25 40 59 59 102 59zM-416 160
c29 0 52 15 70 45c17 30 26 63 26 99s-9 69 -26 99c-18 30 -41 45 -70 45s-52 -15 -70 -46c-18 -30 -27 -63 -27 -98c0 -36 9 -69 27 -99s41 -45 70 -45z" />
    <glyph glyph-name="uniF219" unicode="&#xf219;" 
d="M-602 493l36 29l115 -142l-32 -33zM-382 380l115 142l36 -29l-119 -146zM-382 266l32 33l119 -146l-36 -29zM-602 153l119 146l32 -33l-115 -142z" />
    <glyph glyph-name="uniF220" unicode="&#xf220;" 
d="M-394 317v-5c0 -47 10 -81 31 -102c9 -9 20 -14 35 -14c29 0 50 11 62 33c14 22 20 48 20 79c0 57 -19 107 -58 149l33 32c47 -53 71 -113 71 -181c0 -45 -11 -83 -34 -113c-22 -30 -53 -45 -94 -45c-39 0 -69 19 -88 57c-9 -17 -21 -30 -36 -41c-16 -11 -34 -16 -53 -16
c-41 0 -72 15 -95 45c-22 30 -33 68 -33 113c0 69 24 129 71 181l33 -32c-39 -42 -58 -92 -58 -149c0 -30 7 -56 20 -78c13 -23 34 -34 62 -34c15 0 26 5 35 14c21 21 31 55 31 102v5h45z" />
    <glyph glyph-name="uniF221" unicode="&#xf221;" 
d="M-394 583v-271h-45v271h45zM-438 281h43c0 -7 -1 -17 -1 -32c-2 -15 -2 -26 -2 -33c8 4 18 11 28 21c12 10 20 17 26 20l24 -36c-1 -1 -4 -3 -8 -5c-5 -2 -7 -3 -8 -4c-5 -3 -12 -7 -20 -12c-10 -6 -16 -10 -19 -12h-1c0 -1 0 -1 -1 -1l-4 -3c-1 0 -2 0 -2 -1v-2
c1 -1 1 -1 2 -1l4 -2c1 0 1 0 2 -1c21 -13 37 -23 48 -29c1 -1 2 -1 3 -2c2 -1 3 -1 4 -2l-24 -36c-6 3 -14 10 -26 20c-10 9 -20 16 -28 20v-3c0 -24 1 -42 3 -53v-9h-43c0 7 0 18 2 32c0 14 1 25 1 33c-4 -4 -11 -9 -20 -16c-9 -6 -16 -10 -19 -13c-7 -4 -12 -8 -15 -11
l-24 36c5 3 15 8 30 17s27 16 34 21c-8 6 -20 14 -37 23c-16 9 -25 15 -27 16l24 36c3 -2 8 -5 14 -11c6 -4 10 -8 11 -9c7 -5 16 -11 26 -19c1 0 2 -1 3 -2v2c0 25 -1 44 -3 55v8z" />
    <glyph glyph-name="uniF222" unicode="&#xf222;" 
d="M-599 172l333 334l32 -33l-333 -333zM-531 398c-11 0 -21 4 -28 11s-11 17 -11 28s4 21 12 29c7 7 16 11 27 11s20 -4 27 -11c8 -8 12 -18 12 -29s-4 -21 -11 -28s-17 -11 -28 -11zM-302 247c11 0 20 -4 28 -11c7 -8 11 -17 11 -28s-4 -20 -11 -28c-8 -7 -17 -11 -28 -11
s-20 4 -28 11c-7 8 -11 17 -11 28s4 20 11 28c8 7 17 11 28 11z" />
    <glyph glyph-name="uniF223" unicode="&#xf223;" 
d="M-250 156h-333v333h333v-333zM-541 198h249v250h-249v-250zM-335 242h-163v162h163v-162zM-460 279h88v88h-88v-88z" />
    <glyph glyph-name="uniF224" unicode="&#xf224;" 
d="M-735 308c11 16 18 28 23 36l48 72c5 8 12 20 23 36c7 -19 18 -47 31 -82s23 -60 28 -73c3 6 6 15 11 27c5 11 8 20 10 26l42 106c9 24 16 42 21 53c8 -23 15 -43 20 -61l42 -123c2 -7 9 -27 20 -61l81 245c9 -23 23 -59 43 -106c18 -47 33 -83 42 -106c6 15 15 41 28 75
c13 36 23 62 30 80c11 -16 18 -28 23 -36l48 -72c5 -8 12 -20 23 -36l-1 -61l-82 115c-2 -5 -5 -12 -9 -22c-3 -10 -6 -18 -8 -23l-34 -90c-2 -5 -5 -12 -8 -22c-4 -10 -7 -18 -9 -23c-10 26 -25 62 -43 110c-20 46 -32 78 -39 95c-9 -28 -16 -49 -21 -64l-43 -127
c-2 -7 -5 -18 -10 -32s-8 -25 -11 -32c-2 7 -5 18 -10 32s-8 25 -11 32l-43 127c-5 15 -12 36 -21 64c-8 -20 -21 -53 -40 -99s-33 -81 -43 -106c-2 5 -5 13 -8 23c-4 10 -7 17 -9 22l-34 90c-2 5 -5 13 -9 23c-3 10 -6 17 -8 22l-83 -115v61z" />
    <glyph glyph-name="uniF225" unicode="&#xf225;" 
d="M-392 414h-49v138h49v-138zM-508 298h-137v50h137v-50zM-187 298h-138v50h138v-50zM-392 94h-49v137h49v-137z" />
    <glyph glyph-name="uniF226" unicode="&#xf226;" 
d="M-639 346c75 0 138 20 191 60c52 40 87 92 106 157l44 -13c-3 -14 -9 -29 -17 -46c45 -51 68 -112 68 -182s-22 -130 -67 -181c7 -17 13 -32 16 -45l-44 -13c-19 65 -54 117 -106 157s-116 60 -191 60v46zM-506 323c73 -27 130 -73 169 -138c11 15 20 33 29 54
c-19 5 -34 16 -46 31c-11 15 -17 33 -17 53c0 19 6 37 17 53c12 15 27 26 45 31c-7 19 -16 36 -29 53c-41 -65 -97 -111 -168 -137zM-292 322c0 13 -2 28 -5 45c-22 -7 -33 -21 -33 -44c0 -22 11 -37 34 -44c3 19 4 33 4 43z" />
    <glyph glyph-name="uniF227" unicode="&#xf227;" 
d="M-604 444v49h375v-49h-163v-329h-49v329h-163z" />
    <glyph glyph-name="kijetesantakalu" horiz-adv-x="833" 
d="M582 733l24 -94l227 -182l-142 -94v-380h-49v407l107 71l-187 150l-18 70c-69 -9 -126 -33 -172 -75c-45 -40 -77 -89 -96 -145s-28 -119 -28 -188v-245h137l-32 114l47 13l51 -176h-315c-44 0 -78 13 -101 40s-35 63 -35 109c0 49 14 90 43 122s68 48 118 48h38
c1 79 17 152 46 218s74 119 135 158c27 17 56 31 87 40c31 10 53 16 66 17s23 2 30 2h19zM445 542c13 0 24 -5 33 -14s14 -20 14 -33s-4 -25 -14 -34c-8 -9 -20 -14 -33 -14s-25 5 -34 14s-14 21 -14 34s5 24 14 33s21 14 34 14zM578 542c13 0 24 -5 34 -14
c8 -9 13 -20 13 -33s-5 -25 -13 -34c-10 -9 -21 -14 -34 -14s-25 5 -34 14s-14 21 -14 34s5 25 14 33c9 10 21 14 34 14zM153 28h46v220h-38h-8v-220zM49 128c0 -51 18 -83 54 -95v202c-36 -20 -54 -56 -54 -107zM528 -17v207h49v-207h-49z" />
    <glyph glyph-name="kijetesantakalu.mark" 
d="M-316 579l14 -56l135 -108l-85 -57v-226h-38v246l59 39l-105 84l-10 39c-109 -19 -163 -97 -163 -232v-137h68l-17 60l37 10l31 -108h-189c-26 0 -47 8 -61 24c-16 16 -23 38 -23 67c0 31 9 56 27 74c18 20 42 29 72 29h17c2 53 13 98 33 135c18 35 44 63 77 84
c33 22 69 33 106 33h15zM-408 464c7 0 14 -3 20 -8c5 -5 8 -12 8 -19c0 -8 -3 -15 -8 -20c-6 -5 -13 -8 -20 -8s-14 3 -19 8s-8 12 -8 20c0 7 3 14 8 19s12 8 19 8zM-331 464c7 0 14 -3 19 -8c6 -5 9 -12 9 -19c0 -8 -3 -15 -9 -20c-5 -5 -12 -8 -19 -8s-14 3 -19 8
s-8 12 -8 20c0 7 3 14 8 19s12 8 19 8zM-565 289v-118h25v118h-25zM-625 224c0 -29 10 -46 29 -51v109c-19 -10 -29 -29 -29 -58zM-356 132v128h38v-128h-38z" />
    <glyph glyph-name="kijetesantakalu.sup" 
d="M-265 739l15 -46l157 -94l-100 -50v-188h-37v211l61 30l-111 66l-12 34c-58 -6 -104 -25 -138 -57c-33 -32 -50 -77 -50 -135v-112h81l-17 46l34 13l36 -95h-209c-29 0 -51 7 -67 20c-16 14 -24 33 -24 58c0 29 10 51 31 66s46 23 76 23h23c5 85 45 146 120 182
c39 19 78 28 117 28h14zM-403 613c0 9 3 16 9 21c6 6 13 9 22 9s16 -3 22 -9c5 -5 8 -12 8 -21s-3 -16 -8 -22c-6 -6 -13 -9 -22 -9s-16 3 -22 9s-9 13 -9 22zM-286 643c9 0 16 -3 22 -9c6 -5 9 -12 9 -21s-3 -16 -9 -22s-13 -9 -22 -9s-16 3 -22 9s-9 13 -9 22s3 16 9 21
c6 6 13 9 22 9zM-542 492v-94h32v94h-29h-3zM-609 440c0 -23 13 -37 38 -41v88c-7 -2 -14 -5 -19 -8c-13 -9 -19 -22 -19 -39zM-304 361v109h37v-109h-37z" />
    <glyph glyph-name="apeja" horiz-adv-x="833" 
d="M625 373c-44 0 -81 15 -113 47c-30 30 -46 68 -46 112c0 43 16 80 46 112c32 30 69 46 113 46c43 0 81 -16 112 -46c31 -32 47 -69 47 -112c0 -44 -16 -82 -47 -112c-31 -32 -69 -47 -112 -47zM211 373c-44 0 -81 15 -113 47c-30 30 -46 68 -46 112c0 43 16 80 46 112
c32 30 69 46 113 46c43 0 81 -16 112 -46c31 -32 47 -69 47 -112c0 -44 -16 -82 -47 -112c-31 -32 -69 -47 -112 -47zM625 644c-31 0 -58 -11 -80 -33s-33 -48 -33 -79s11 -57 33 -80c22 -22 49 -33 80 -33s58 11 80 33c22 23 33 49 33 80s-11 57 -33 79s-49 33 -80 33z
M211 644c-31 0 -58 -11 -80 -33s-33 -48 -33 -79s11 -57 33 -80c22 -22 49 -33 80 -33s58 11 80 33c22 23 33 49 33 80s-11 57 -33 79s-49 33 -80 33zM806 145l-29 -40l-359 260l-359 -260l-29 40l388 282zM418 -45c-44 0 -82 16 -112 47c-32 31 -47 69 -47 112
c0 44 15 82 47 112c30 32 68 47 112 47c43 0 81 -15 112 -47c31 -30 47 -68 47 -112c0 -43 -16 -81 -47 -112s-69 -47 -112 -47zM418 227c-31 0 -57 -11 -80 -33c-22 -23 -33 -49 -33 -80s11 -57 33 -80c23 -22 49 -33 80 -33s57 11 80 33c22 23 33 49 33 80s-11 57 -33 80
c-23 22 -49 33 -80 33z" />
    <glyph glyph-name="apeja.mark" 
d="M-296 349c-27 0 -50 9 -68 29c-20 18 -29 41 -29 68s9 50 29 68c18 20 41 29 68 29s50 -9 68 -29c20 -18 29 -41 29 -68s-9 -50 -29 -68c-18 -20 -41 -29 -68 -29zM-533 349c-27 0 -49 9 -69 29c-18 18 -28 41 -28 68s10 50 28 68c20 20 42 29 69 29s51 -9 69 -29
c20 -18 29 -41 29 -68s-9 -50 -29 -68c-18 -20 -42 -29 -69 -29zM-296 504c-16 0 -30 -6 -41 -17s-17 -25 -17 -41s6 -30 17 -41s25 -17 41 -17s30 6 41 17s17 25 17 41s-6 30 -17 41s-25 17 -41 17zM-533 504c-16 0 -30 -6 -41 -17s-17 -25 -17 -41s6 -30 17 -41
s25 -17 41 -17s30 6 41 17s17 25 17 41s-6 30 -17 41s-25 17 -41 17zM-189 229l-23 -32l-202 147l-202 -147l-23 32l225 164zM-414 110c-27 0 -50 10 -70 28c-18 20 -28 42 -28 69s10 49 28 69c20 18 43 28 70 28s50 -10 68 -28c20 -20 29 -42 29 -69s-9 -49 -29 -69
c-18 -18 -41 -28 -68 -28zM-414 265c-16 0 -30 -6 -41 -17s-17 -25 -17 -41s6 -30 17 -41s25 -17 41 -17s30 6 41 17s17 25 17 41s-6 30 -17 41s-25 17 -41 17z" />
    </font>
</defs>
</svg>
